<?xml version="1.0" encoding="iso-8859-1"?>
<!-- Uploaded to: SVG Repo, www.svgrepo.com, Generator: SVG Repo Mixer Tools -->
<svg fill="#000000" height="800px" width="800px" version="1.1" id="Layer_1" xmlns="http://www.w3.org/2000/svg" xmlns:xlink="http://www.w3.org/1999/xlink" 
	 viewBox="0 0 512 512" xml:space="preserve">
<g>
	<g>
		<path d="M391.535,53.198c-31.037,0-60.333,4.757-82.493,13.398c-24.487,9.547-37.973,23.162-37.973,38.34
			c0,2.411,0.333,4.78,0.995,7.101c-5.352-0.301-10.723-0.455-16.064-0.455c-5.417,0-10.777,0.153-16.06,0.439
			c0.659-2.316,0.99-4.679,0.99-7.085c0-20.59-22.268-32.383-38.869-38.674c-35.819-13.573-76.479-15.559-114.254-11.239
			c-4.29,0.491-7.37,4.366-6.88,8.658c0.491,4.29,4.359,7.366,8.658,6.88c35.392-4.007,74.185-2.456,107.692,10.607
			c17.541,6.839,28.014,15.725,28.014,23.77c0,2.807-1.265,5.72-3.766,8.682c-0.091,0.01-0.179,0.024-0.27,0.034
			c-4.948,0.606-9.877,1.356-14.782,2.249c-0.241,0.045-0.48,0.092-0.72,0.137c-25.462,4.763-45.911,13.044-57.949,23.632
			c-0.92,0.092-1.84,0.182-2.766,0.265c-8.171,0.73-16.37,1.1-24.573,1.1c-28.988,0-61.313-3.252-87.328-17.112
			c-10.678-5.688-16.976-12.168-17.466-18.227c-0.02-0.254-0.031-0.508-0.031-0.76c0-10.505,17.183-21.825,43.776-28.84
			c4.175-1.102,6.668-5.38,5.566-9.555c-1.102-4.175-5.381-6.667-9.555-5.566C20.202,70.266,0,86.29,0,104.936v81.321v81.321v81.321
			c0,33.604,62.067,51.738,120.465,51.738c5.025,0,10.064-0.143,15.069-0.399v7.046c0,33.604,62.067,51.738,120.465,51.738
			c31.037,0,60.333-4.757,82.493-13.398c24.487-9.547,37.973-23.163,37.973-38.34v-7.046c5.005,0.256,10.045,0.399,15.069,0.399
			c31.037,0,60.333-4.757,82.493-13.398c24.487-9.547,37.973-23.163,37.973-38.34v-81.321v-81.321v-81.321
			C512,71.332,449.933,53.198,391.535,53.198z M135.535,384.591c-4.999,0.27-10.043,0.407-15.069,0.407
			c-59.997,0-104.827-19.058-104.827-36.099V294.07c0.07,0.052,0.145,0.102,0.215,0.153c5.824,4.315,12.3,7.642,18.978,10.422
			c19.859,8.268,41.303,12.013,62.65,13.74c12.148,0.984,24.365,1.166,36.54,0.607c0.503-0.023,1.01-0.032,1.513-0.057V384.591z
			 M135.535,244.641v58.622c-0.266,0.015-0.534,0.026-0.801,0.04c-1.896,0.096-3.795,0.175-5.694,0.236
			c-2.858,0.091-5.716,0.139-8.575,0.139c-59.997,0-104.827-19.058-104.827-36.099v-54.829c0.07,0.052,0.145,0.102,0.215,0.153
			c0.617,0.458,1.246,0.911,1.894,1.357c0.05,0.034,0.103,0.068,0.153,0.102C39.63,229.1,67.86,234.3,93.535,236.719
			c13.56,1.277,27.193,1.576,40.797,0.937c0.4-0.019,0.804-0.026,1.203-0.046V244.641z M135.536,163.32v58.618
			c-0.404,0.022-0.807,0.041-1.211,0.06c-28.457,1.399-58.049-0.882-85.189-10.039c-8.594-2.899-17.321-6.533-24.566-12.094
			c-4.215-3.235-8.931-7.886-8.931-13.609v-54.829c0.07,0.052,0.145,0.102,0.214,0.153c0.626,0.463,1.256,0.915,1.895,1.357
			c21.858,15.148,50.989,20.22,76.946,22.565c13.776,1.245,27.628,1.483,41.439,0.755c0.136-0.007,0.272-0.011,0.409-0.02
			C135.876,158.554,135.536,160.917,135.536,163.32z M360.827,407.283c0,8.044-10.473,16.93-28.014,23.77
			c-20.394,7.951-47.673,12.329-76.813,12.329c-29.14,0-56.419-4.379-76.813-12.329c-17.541-6.839-28.014-15.725-28.014-23.77
			v-54.829c0.07,0.052,0.145,0.102,0.215,0.153c28.931,21.454,69.716,25.092,104.612,25.092c31.037,0,60.333-4.757,82.493-13.398
			c7.733-3.015,15.348-6.768,22.04-11.775c0.096-0.072,0.199-0.141,0.294-0.213V407.283z M151.173,325.962v-54.829
			c0.07,0.052,0.144,0.101,0.215,0.153c31.127,23.051,73.031,25.755,110.41,25.036c32.742-0.629,71.652-4.855,98.734-25.117
			c0.096-0.072,0.199-0.141,0.294-0.213v54.969c0,0.503-0.041,1.009-0.122,1.518c-1.214,7.628-11.447,15.84-27.892,22.252
			c-24.235,9.449-50.954,12.329-76.812,12.329c-29.14,0-56.419-4.379-76.813-12.329
			C161.646,342.892,151.173,334.006,151.173,325.962z M315.353,192.597c-4.187,1.06-6.72,5.313-5.661,9.499
			c1.06,4.188,5.316,6.719,9.499,5.661c11.311-2.864,22.533-6.691,32.773-12.344c2.832-1.564,5.578-3.292,8.186-5.207
			c0.224-0.165,0.457-0.326,0.677-0.492v54.927c0,0.503-0.041,1.009-0.122,1.518c-1.215,7.63-11.448,15.841-27.893,22.252
			c-24.244,9.452-50.945,12.33-76.812,12.33c-29.14,0-56.419-4.379-76.813-12.33c-17.541-6.839-28.014-15.725-28.014-23.77v-54.829
			c0.07,0.052,0.145,0.102,0.215,0.153c28.949,21.443,69.703,25.093,104.612,25.093c10.329,0,20.683-0.526,30.953-1.634
			c8.761-0.945,9.174-14.113,0.373-15.492c-0.664-0.104-1.35-0.133-2.051-0.058c-9.492,1.025-19.342,1.545-29.276,1.545
			c-29.14,0-56.419-4.379-76.813-12.33c-17.54-6.838-28.013-15.724-28.014-23.769c-0.001-13.442,21.868-22.594,32.17-26.171
			c31.848-11.058,69.321-11.983,102.52-8.323c22.718,2.505,52.422,7.111,69.458,23.936c0.023,0.023,0.05,0.039,0.074,0.062
			c0.043,0.042,0.087,0.082,0.13,0.122c3.446,3.463,5.302,6.993,5.302,10.373C360.827,173.943,342.552,185.71,315.353,192.597z
			 M468.347,372.668c-20.394,7.951-47.673,12.329-76.813,12.329c-5.025,0-10.07-0.137-15.069-0.407v-58.629v-7.027
			c0.501,0.025,1.009,0.034,1.512,0.057c4.515,0.205,9.037,0.323,13.558,0.323c14.053,0,27.811-0.976,40.891-2.899
			c4.272-0.629,7.227-4.601,6.597-8.874c-0.629-4.272-4.596-7.227-8.874-6.597c-12.328,1.813-25.32,2.733-38.614,2.733
			c-4.758,0-9.517-0.14-14.27-0.374c-0.267-0.014-0.534-0.025-0.801-0.04v-58.622v-7.031c0.4,0.021,0.803,0.027,1.203,0.046
			c22.818,1.073,46.362-0.123,68.883-4.933c17.193-3.672,35.269-9.253,49.516-19.901c0.096-0.072,0.199-0.141,0.294-0.213v54.969
			c0,9.361-13.872,19.57-36.204,26.646c-4.116,1.304-6.396,5.699-5.092,9.816c1.303,4.116,5.696,6.4,9.816,5.092
			c10.661-3.377,21.133-7.727,30.281-14.248c0.404-0.291,0.808-0.581,1.199-0.875v54.889h0.002
			C496.361,356.943,485.889,365.829,468.347,372.668z M496.361,186.257c0,8.045-10.473,16.93-28.014,23.77
			c-20.394,7.951-47.673,12.33-76.813,12.33c-2.258,0-4.52-0.036-6.78-0.092c-0.655-0.016-1.31-0.039-1.964-0.058
			c-1.709-0.053-3.414-0.122-5.116-0.206c-0.404-0.02-0.806-0.039-1.209-0.06v-58.618c0-2.443-0.337-4.8-0.968-7.078
			c0.123,0.006,0.247,0.01,0.37,0.017c32.742,1.695,67.373-0.979,98.161-12.983c7.858-3.065,15.589-6.876,22.333-11.989V186.257z
			 M468.347,128.706c-20.394,7.951-47.673,12.329-76.813,12.329c-9.077,0-18.154-0.45-27.186-1.35
			c-5.443-4.789-12.503-8.988-20.721-12.582c-0.414-0.184-0.834-0.365-1.255-0.545c-0.027-0.011-0.053-0.023-0.08-0.034
			c-14.039-6.008-31.755-10.473-51.818-12.905c-2.501-2.963-3.766-5.876-3.766-8.683c0-8.044,10.473-16.93,28.014-23.77
			c20.394-7.951,47.673-12.329,76.813-12.329s56.419,4.379,76.813,12.329c17.541,6.839,28.014,15.725,28.014,23.77
			S485.889,121.866,468.347,128.706z"/>
	</g>
</g>
</svg>