<?xml version='1.0' encoding='iso-8859-1'?>
<!-- Uploaded to: SVG Repo, www.svgrepo.com, Generator: SVG Repo Mixer Tools -->
<svg fill="#000000" height="800px" width="800px" version="1.1" xmlns="http://www.w3.org/2000/svg" viewBox="0 0 455 455" xmlns:xlink="http://www.w3.org/1999/xlink" enable-background="new 0 0 455 455">
  <g>
    <path d="m426.804,361.836c0.116-0.764 0.196-1.54 0.196-2.336v-24c0-5.907-3.323-11.049-8.196-13.664 0.116-0.764 0.196-1.54 0.196-2.336v-24c0-0.796-0.079-1.572-0.196-2.336 4.873-2.615 8.196-7.757 8.196-13.664v-24c0-8.547-6.953-15.5-15.5-15.5h-104.525c0.005-0.167 0.025-0.331 0.025-0.5v-24c0-5.907-3.323-11.049-8.196-13.664 0.116-0.764 0.196-1.54 0.196-2.336v-24c0-5.907-3.323-11.049-8.196-13.664 0.116-0.764 0.196-1.54 0.196-2.336v-24c0-0.796-0.079-1.572-0.196-2.336 4.873-2.615 8.196-7.757 8.196-13.664v-24c0-0.796-0.079-1.572-0.196-2.336 4.873-2.615 8.196-7.757 8.196-13.664v-24c0-5.907-3.323-11.049-8.196-13.664 0.116-0.764 0.196-1.54 0.196-2.336v-24c0-8.547-6.953-15.5-15.5-15.5h-112c-8.547,0-15.5,6.953-15.5,15.5v24c0,5.907 3.323,11.049 8.196,13.664-0.117,0.764-0.196,1.54-0.196,2.336v24c0,0.796 0.079,1.572 0.196,2.336-4.873,2.615-8.196,7.757-8.196,13.664v24c0,0.796 0.079,1.572 0.196,2.336-4.873,2.615-8.196,7.757-8.196,13.664v24c0,0.169 0.02,0.333 0.025,0.5h-104.525c-8.547,0-15.5,6.953-15.5,15.5v24c0,5.907 3.323,11.049 8.196,13.664-0.117,0.764-0.196,1.54-0.196,2.336v24c0,0.796 0.079,1.572 0.196,2.336-4.873,2.615-8.196,7.757-8.196,13.664v24c0,0.796 0.079,1.572 0.196,2.336-4.873,2.615-8.196,7.757-8.196,13.664v24c0,5.907 3.323,11.049 8.196,13.664-0.117,0.764-0.196,1.54-0.196,2.336v24c0,5.907 3.323,11.049 8.196,13.664-0.117,0.764-0.196,1.54-0.196,2.336v24c0,0.796 0.079,1.572 0.196,2.336-4.873,2.615-8.196,7.757-8.196,13.664v24c0,8.547 6.953,15.5 15.5,15.5h112c2.929,0 5.661-0.832 8-2.249 2.339,1.418 5.071,2.249 8,2.249h240c8.547,0 15.5-6.953 15.5-15.5v-24c0-0.796-0.079-1.572-0.196-2.336 4.873-2.615 8.196-7.757 8.196-13.664v-24c0-5.907-3.323-11.049-8.196-13.664zm-7.304,13.164c0.275,0 0.5,0.224 0.5,0.5v24c0,0.276-0.225,0.5-0.5,0.5h-50.443c1.258-5.301 1.943-10.82 1.943-16.5 0-2.878-0.191-5.71-0.523-8.5h49.023zm-120,65c-31.154,0-56.5-25.346-56.5-56.5s25.346-56.5 56.5-56.5 56.5,25.346 56.5,56.5-25.346,56.5-56.5,56.5zm-120.5-56.5c0-31.154 25.346-56.5 56.5-56.5 5.807,0 11.568,0.902 17.06,2.635-4.888,4.266-9.194,9.177-12.778,14.611-1.42-0.154-2.848-0.247-4.282-0.247-21.78,0-39.5,17.72-39.5,39.5s17.72,39.5 39.5,39.5c1.434,0 2.862-0.093 4.282-0.246 3.584,5.434 7.89,10.346 12.778,14.611-5.491,1.733-11.253,2.635-17.06,2.635-31.154,0.001-56.5-25.345-56.5-56.499zm-23.5,16.5h-104c-0.275,0-0.5-0.224-0.5-0.5v-24c0-0.276 0.225-0.5 0.5-0.5h104 9.023c-0.332,2.79-0.523,5.622-0.523,8.5 0,5.68 0.686,11.199 1.943,16.5h-10.443zm-112-40c-0.275,0-0.5-0.224-0.5-0.5v-24c0-0.276 0.225-0.5 0.5-0.5h104 8c0.275,0 0.5,0.224 0.5,0.5v24c0,0.276-0.225,0.5-0.5,0.5h-112zm-8-40c-0.275,0-0.5-0.224-0.5-0.5v-24c0-0.276 0.225-0.5 0.5-0.5h112c0.275,0 0.5,0.224 0.5,0.5v24c0,0.276-0.225,0.5-0.5,0.5h-112zm7.5-40.5v-24c0-0.276 0.225-0.5 0.5-0.5h112c0.275,0 0.5,0.224 0.5,0.5v24c0,0.276-0.225,0.5-0.5,0.5h-112c-0.275,0-0.5-0.224-0.5-0.5zm8-40v-24c0-0.276 0.225-0.5 0.5-0.5h112c0.275,0 0.5,0.224 0.5,0.5v24c0,0.276-0.225,0.5-0.5,0.5h-112c-0.275,0-0.5-0.224-0.5-0.5zm112-104c0-0.276 0.225-0.5 0.5-0.5h112c0.275,0 0.5,0.224 0.5,0.5v24c0,0.276-0.225,0.5-0.5,0.5h-112c-0.275,0-0.5-0.224-0.5-0.5v-24zm8-16v-24c0-0.276 0.225-0.5 0.5-0.5h112c0.275,0 0.5,0.224 0.5,0.5v24c0,0.276-0.225,0.5-0.5,0.5h-112c-0.275,0-0.5-0.224-0.5-0.5zm8-40v-24c0-0.276 0.225-0.5 0.5-0.5h112c0.275,0 0.5,0.224 0.5,0.5v24c0,0.276-0.225,0.5-0.5,0.5h-8-104c-0.275,0-0.5-0.224-0.5-0.5zm104.5,95.5c0.275,0 0.5,0.224 0.5,0.5v24c0,0.276-0.225,0.5-0.5,0.5h-112c-0.275,0-0.5-0.224-0.5-0.5v-24c0-0.276 0.225-0.5 0.5-0.5h104 8zm8,40c0.275,0 0.5,0.224 0.5,0.5v24c0,0.276-0.225,0.5-0.5,0.5h-8-104c-0.275,0-0.5-0.224-0.5-0.5v-24c0-0.276 0.225-0.5 0.5-0.5h104 8zm112.5,80.5v24c0,0.276-0.225,0.5-0.5,0.5h-71.199c-9.832-5.1-20.981-8-32.801-8-2.878,0-5.71,0.191-8.5,0.523v-17.023c0-0.276 0.225-0.5 0.5-0.5h112c0.275,0 0.5,0.224 0.5,0.5zm7.5,39.5c0.275,0 0.5,0.224 0.5,0.5v24c0,0.276-0.225,0.5-0.5,0.5h-44.487c-3.271-9.371-8.433-17.858-15.039-25h59.526zm-143.966-15.428c-9.889-4.957-20.9-7.572-32.034-7.572-11.82,0-22.968,2.9-32.801,8h-39.199c-0.275,0-0.5-0.224-0.5-0.5v-24c0-0.276 0.225-0.5 0.5-0.5h112c0.275,0 0.5,0.224 0.5,0.5v20.487c-2.912,1.016-5.738,2.215-8.466,3.585zm16.466-64.072v24c0,0.276-0.225,0.5-0.5,0.5h-112c-0.275,0-0.5-0.224-0.5-0.5v-24c0-0.276 0.225-0.5 0.5-0.5h112c0.275,0 0.5,0.224 0.5,0.5zm-113,97.165v-17.165c0-0.169-0.02-0.333-0.025-0.5h12.051c-4.837,5.229-8.91,11.174-12.026,17.665zm61.25,55.113c-11.978-1.595-21.25-11.871-21.25-24.278s9.272-22.683 21.25-24.278c-2.746,7.584-4.25,15.758-4.25,24.278s1.504,16.694 4.25,24.278zm179.75-152.278v24c0,0.276-0.225,0.5-0.5,0.5h-112c-0.275,0-0.5-0.224-0.5-0.5v-24c0-0.276 0.225-0.5 0.5-0.5h112c0.275,0 0.5,0.224 0.5,0.5zm-241-240c0-0.276 0.225-0.5 0.5-0.5h112c0.275,0 0.5,0.224 0.5,0.5v24c0,0.276-0.225,0.5-0.5,0.5h-112c-0.275,0-0.5-0.224-0.5-0.5v-24zm-128,160c0-0.276 0.225-0.5 0.5-0.5h112c0.275,0 0.5,0.224 0.5,0.5v24c0,0.276-0.225,0.5-0.5,0.5h-112c-0.275,0-0.5-0.224-0.5-0.5v-24zm112.5,264.5h-112c-0.275,0-0.5-0.224-0.5-0.5v-24c0-0.276 0.225-0.5 0.5-0.5h112c0.275,0 0.5,0.224 0.5,0.5v24c0,0.276-0.225,0.5-0.5,0.5zm16,0c-0.275,0-0.5-0.224-0.5-0.5v-24c0-0.169-0.014-0.334-0.025-0.5h0.358c4.836,9.812 11.859,18.352 20.427,25h-20.26zm240.5-.5c0,0.276-0.225,0.5-0.5,0.5h-68.26c8.567-6.648 15.59-15.188 20.427-25h47.833c0.275,0 0.5,0.224 0.5,0.5v24z"/>
    <path d="m299.5,344c-21.78,0-39.5,17.72-39.5,39.5s17.72,39.5 39.5,39.5 39.5-17.72 39.5-39.5-17.72-39.5-39.5-39.5zm0,64c-13.51,0-24.5-10.991-24.5-24.5s10.99-24.5 24.5-24.5 24.5,10.991 24.5,24.5-10.99,24.5-24.5,24.5z"/>
  </g>
</svg>