<?xml version="1.0" encoding="iso-8859-1"?>
<!-- Generator: Adobe Illustrator 19.0.0, SVG Export Plug-In . SVG Version: 6.00 Build 0)  -->
<svg xmlns="http://www.w3.org/2000/svg" xmlns:xlink="http://www.w3.org/1999/xlink" version="1.1" id="Layer_1" x="0px" y="0px" viewBox="0 0 511.997 511.997" style="enable-background:new 0 0 511.997 511.997;" xml:space="preserve">
<path style="fill:#FFDC5E;" d="M296.387,323.874V178.237v-32.62V40.557H18.674v44.494v207.25v25.576v153.566  c0,18.162,62.168,32.884,138.856,32.884s138.856-18.049,138.856-36.212V323.874H296.387z"/>
<g>
	<path style="opacity:0.58;fill:#CCA61C;enable-background:new    ;" d="M157.53,219.558c76.688,0,138.857-14.723,138.857-32.884   v-8.437v-32.62v-32.885c0,18.162-62.168,32.884-138.857,32.884c-76.688,0-138.856-14.723-138.856-32.884v73.942   C18.674,204.836,80.842,219.558,157.53,219.558z"/>
	<path style="opacity:0.58;fill:#CCA61C;enable-background:new    ;" d="M296.387,259.417c0,18.162-62.168,32.884-138.857,32.884   c-76.688,0-138.856-14.723-138.856-32.884v32.884v25.576v14.47c0,18.162,62.168,32.884,138.856,32.884   c57.517,0,103.796-8.281,124.876-20.085h13.981v-21.272V259.417z"/>
	<path style="opacity:0.58;fill:#CCA61C;enable-background:new    ;" d="M157.53,439.316c-76.688,0-138.856-14.723-138.856-32.884   v65.011c0,18.162,62.168,32.884,138.856,32.884s138.857-18.049,138.857-36.212v-45.24h-20.626   C251.751,432.704,208.925,439.316,157.53,439.316z"/>
</g>
<path style="opacity:0.16;fill:#2D2128;enable-background:new    ;" d="M255.749,40.557v62.691v32.62v145.637v144.242  c0,18.162-62.168,36.212-138.857,36.212c-37.491,0-71.505-3.52-96.489-9.239v18.723c0,18.162,62.168,32.884,138.857,32.884  s138.856-18.049,138.856-36.212V323.874V178.237v-32.62V40.557H255.749z"/>
<path style="fill:#FFEDAC;" d="M464.719,467.685c0.403-0.444,0.796-0.893,1.19-1.341c0.189-0.216,0.383-0.43,0.57-0.647  c0.461-0.533,0.912-1.071,1.361-1.61c0.112-0.134,0.224-0.266,0.335-0.4c0.5-0.607,0.99-1.217,1.475-1.831  c0.053-0.069,0.108-0.135,0.162-0.204c0.524-0.667,1.038-1.339,1.545-2.015c0.013-0.017,0.027-0.036,0.04-0.053  c3.212-4.292,6.07-8.764,8.576-13.379c0.016-0.03,0.032-0.058,0.047-0.088c0.395-0.728,0.78-1.46,1.158-2.194  c0.049-0.096,0.098-0.192,0.146-0.287c0.34-0.667,0.673-1.337,0.998-2.009c0.088-0.181,0.175-0.364,0.262-0.546  c0.281-0.588,0.557-1.178,0.827-1.772c0.128-0.281,0.254-0.564,0.38-0.846c0.22-0.495,0.438-0.99,0.651-1.488  c0.168-0.393,0.332-0.787,0.496-1.181c0.162-0.391,0.323-0.783,0.48-1.175c0.202-0.503,0.399-1.01,0.593-1.517  c0.11-0.288,0.222-0.578,0.329-0.867c0.229-0.611,0.451-1.225,0.669-1.841c0.066-0.187,0.133-0.374,0.198-0.562  c0.247-0.709,0.486-1.422,0.718-2.137c0.032-0.099,0.064-0.198,0.096-0.298c0.254-0.79,0.499-1.582,0.735-2.379  c0.008-0.029,0.017-0.057,0.026-0.086c1.491-5.036,2.633-10.221,3.397-15.53c0.003-0.021,0.006-0.042,0.009-0.063  c0.12-0.837,0.231-1.676,0.332-2.517c0.01-0.087,0.019-0.175,0.03-0.262c0.091-0.776,0.177-1.555,0.252-2.337  c0.016-0.171,0.03-0.343,0.046-0.514c0.064-0.701,0.126-1.402,0.176-2.108c0.02-0.282,0.036-0.566,0.053-0.848  c0.039-0.6,0.079-1.2,0.107-1.802c0.021-0.45,0.035-0.901,0.051-1.352c0.016-0.446,0.037-0.89,0.048-1.337  c0.022-0.91,0.035-1.822,0.035-2.732v-0.001l0,0c0-0.911-0.012-1.823-0.035-2.733c-0.011-0.446-0.032-0.89-0.048-1.336  c-0.016-0.451-0.03-0.902-0.051-1.353c-0.029-0.602-0.069-1.202-0.107-1.801c-0.018-0.283-0.033-0.567-0.054-0.849  c-0.051-0.705-0.113-1.405-0.176-2.106c-0.015-0.172-0.029-0.344-0.046-0.515c-0.075-0.781-0.161-1.559-0.252-2.335  c-0.01-0.088-0.019-0.176-0.03-0.263c-0.101-0.842-0.213-1.681-0.332-2.516c-0.003-0.021-0.006-0.043-0.009-0.064  c-0.764-5.308-1.907-10.493-3.397-15.529c-0.008-0.029-0.017-0.058-0.026-0.087c-0.236-0.797-0.482-1.589-0.735-2.377  c-0.032-0.1-0.065-0.201-0.097-0.301c-0.232-0.715-0.471-1.426-0.717-2.134c-0.065-0.188-0.132-0.375-0.198-0.564  c-0.218-0.616-0.44-1.23-0.669-1.84c-0.108-0.289-0.219-0.579-0.329-0.867c-0.194-0.506-0.391-1.012-0.593-1.515  c-0.158-0.394-0.319-0.786-0.481-1.178c-0.164-0.394-0.327-0.788-0.495-1.179c-0.213-0.498-0.432-0.994-0.652-1.49  c-0.126-0.281-0.251-0.563-0.378-0.843c-0.27-0.593-0.546-1.184-0.828-1.773c-0.087-0.182-0.174-0.364-0.261-0.545  c-0.325-0.673-0.66-1.344-0.999-2.012c-0.048-0.094-0.096-0.189-0.144-0.283c-0.377-0.735-0.764-1.468-1.159-2.196  c-0.016-0.03-0.032-0.058-0.047-0.088c-2.506-4.613-5.364-9.086-8.576-13.379c-0.013-0.017-0.027-0.036-0.04-0.053  c-0.506-0.676-1.021-1.348-1.545-2.015c-0.053-0.069-0.108-0.136-0.162-0.204c-0.485-0.614-0.975-1.225-1.475-1.831  c-0.11-0.134-0.224-0.266-0.335-0.4c-0.449-0.539-0.9-1.077-1.361-1.61c-0.188-0.218-0.381-0.432-0.57-0.647  c-0.394-0.448-0.788-0.897-1.19-1.341c-0.306-0.338-0.619-0.669-0.929-1.002c-0.301-0.323-0.597-0.65-0.903-0.971  c-1.257-1.321-2.546-2.609-3.867-3.867c-0.32-0.306-0.646-0.602-0.971-0.903c-0.333-0.31-0.665-0.623-1.002-0.929  c-0.444-0.403-0.893-0.796-1.341-1.19c-0.216-0.189-0.43-0.383-0.647-0.57c-0.533-0.461-1.071-0.912-1.61-1.361  c-0.134-0.112-0.266-0.224-0.4-0.335c-0.607-0.5-1.217-0.99-1.832-1.475c-0.069-0.053-0.135-0.108-0.204-0.162  c-0.667-0.524-1.339-1.038-2.015-1.545c-0.017-0.013-0.035-0.027-0.053-0.04c-4.292-3.212-8.764-6.07-13.379-8.576  c-0.03-0.016-0.058-0.032-0.088-0.047c-0.728-0.395-1.461-0.781-2.196-1.159c-0.094-0.048-0.189-0.096-0.283-0.144  c-0.668-0.341-1.338-0.674-2.012-0.999c-0.181-0.088-0.363-0.174-0.545-0.261c-0.589-0.281-1.18-0.558-1.773-0.828  c-0.28-0.128-0.562-0.253-0.843-0.378c-0.496-0.221-0.992-0.439-1.49-0.652c-0.392-0.168-0.786-0.331-1.179-0.495  c-0.392-0.163-0.785-0.323-1.177-0.481c-0.503-0.201-1.009-0.398-1.515-0.593c-0.288-0.11-0.578-0.222-0.867-0.329  c-0.611-0.229-1.224-0.451-1.84-0.669c-0.188-0.066-0.375-0.133-0.564-0.198c-0.708-0.247-1.42-0.485-2.134-0.717  c-0.1-0.033-0.201-0.065-0.301-0.097c-0.789-0.254-1.581-0.499-2.377-0.735c-0.029-0.008-0.058-0.017-0.087-0.026  c-5.036-1.491-10.221-2.633-15.529-3.397c-0.021-0.003-0.043-0.006-0.064-0.009c-0.836-0.12-1.674-0.231-2.516-0.332  c-0.088-0.01-0.176-0.019-0.263-0.03c-0.776-0.091-1.555-0.177-2.335-0.252c-0.172-0.016-0.344-0.03-0.514-0.046  c-0.701-0.064-1.402-0.126-2.106-0.176c-0.283-0.02-0.567-0.036-0.849-0.054c-0.599-0.039-1.199-0.079-1.801-0.107  c-0.451-0.023-0.902-0.035-1.353-0.051c-0.445-0.016-0.889-0.037-1.336-0.048c-0.911-0.022-1.822-0.035-2.733-0.035l0,0l0,0  c-24.247,0-48.491,7.944-68.507,23.816c-0.094,0.075-0.188,0.149-0.282,0.224c-0.839,0.67-1.67,1.351-2.494,2.049  c-0.072,0.06-0.144,0.12-0.215,0.18c-0.881,0.75-1.753,1.514-2.616,2.295c-0.077,0.07-0.15,0.141-0.227,0.211  c-0.723,0.659-1.438,1.331-2.148,2.012c-0.255,0.245-0.505,0.492-0.757,0.739c-0.279,0.273-0.562,0.541-0.839,0.817  c-0.27,0.27-0.531,0.545-0.798,0.817c-0.249,0.254-0.497,0.506-0.743,0.762c-0.668,0.695-1.326,1.396-1.972,2.103  c-0.083,0.091-0.169,0.18-0.252,0.271c-0.783,0.862-1.546,1.735-2.296,2.615c-0.052,0.061-0.103,0.125-0.157,0.187  c-0.704,0.831-1.392,1.67-2.068,2.516c-0.075,0.093-0.148,0.186-0.223,0.28c-4.524,5.702-8.404,11.746-11.64,18.037  c-0.028,0.053-0.053,0.105-0.081,0.159c-0.506,0.989-0.997,1.983-1.472,2.984c-0.047,0.098-0.095,0.196-0.141,0.295  c-0.497,1.057-0.981,2.118-1.443,3.187c-0.033,0.076-0.063,0.153-0.096,0.229c-0.388,0.903-0.762,1.811-1.124,2.721  c-0.145,0.364-0.287,0.73-0.43,1.097c-0.249,0.643-0.489,1.289-0.725,1.935c-0.153,0.419-0.309,0.837-0.457,1.258  c-0.312,0.889-0.613,1.781-0.901,2.676c-0.184,0.572-0.358,1.149-0.533,1.724c-0.127,0.416-0.253,0.834-0.374,1.251  c-0.182,0.625-0.36,1.251-0.532,1.88c-0.088,0.325-0.172,0.652-0.257,0.977c-0.328,1.252-0.636,2.511-0.922,3.78  c-0.058,0.261-0.121,0.522-0.178,0.784c-0.146,0.674-0.284,1.351-0.418,2.029c-0.072,0.359-0.139,0.719-0.207,1.079  c-0.206,1.096-0.393,2.197-0.566,3.304c-0.069,0.439-0.142,0.878-0.206,1.318c-0.081,0.564-0.151,1.131-0.224,1.697  c-0.071,0.552-0.138,1.106-0.201,1.659c-0.057,0.51-0.115,1.02-0.165,1.532c-0.099,1.007-0.189,2.013-0.261,3.021  c-0.02,0.289-0.034,0.581-0.052,0.87c-0.055,0.875-0.101,1.75-0.136,2.626c-0.013,0.34-0.027,0.679-0.037,1.019  c-0.035,1.135-0.058,2.271-0.058,3.406l0,0v0.001c0,0.911,0.012,1.822,0.035,2.732c0.01,0.447,0.032,0.891,0.048,1.337  c0.016,0.451,0.03,0.901,0.051,1.352c0.03,0.602,0.069,1.202,0.107,1.802c0.018,0.282,0.033,0.566,0.053,0.848  c0.051,0.705,0.112,1.406,0.176,2.108c0.015,0.171,0.029,0.343,0.046,0.514c0.075,0.782,0.161,1.56,0.252,2.337  c0.01,0.087,0.019,0.175,0.03,0.262c0.101,0.842,0.213,1.682,0.332,2.517c0.003,0.021,0.006,0.042,0.009,0.063  c0.764,5.308,1.907,10.493,3.397,15.53c0.008,0.029,0.017,0.057,0.026,0.086c0.236,0.797,0.482,1.591,0.735,2.379  c0.032,0.099,0.064,0.198,0.096,0.298c0.232,0.715,0.472,1.428,0.718,2.137c0.065,0.187,0.132,0.374,0.197,0.562  c0.218,0.616,0.44,1.231,0.669,1.841c0.108,0.289,0.219,0.578,0.329,0.867c0.194,0.507,0.392,1.013,0.593,1.517  c0.158,0.393,0.318,0.784,0.48,1.175c0.164,0.395,0.328,0.789,0.496,1.181c0.213,0.497,0.431,0.993,0.651,1.488  c0.126,0.282,0.252,0.565,0.381,0.846c0.27,0.592,0.546,1.182,0.827,1.772c0.087,0.182,0.174,0.364,0.262,0.546  c0.325,0.673,0.659,1.342,0.998,2.009c0.049,0.096,0.097,0.192,0.146,0.287c0.377,0.734,0.763,1.466,1.158,2.194  c0.015,0.03,0.032,0.058,0.047,0.088c2.506,4.613,5.364,9.086,8.576,13.379c0.013,0.017,0.027,0.036,0.04,0.053  c0.506,0.676,1.021,1.348,1.545,2.015c0.053,0.069,0.108,0.136,0.162,0.204c0.485,0.614,0.975,1.225,1.475,1.831  c0.11,0.134,0.224,0.266,0.335,0.4c0.449,0.539,0.9,1.077,1.361,1.61c0.188,0.218,0.381,0.432,0.57,0.648  c0.394,0.448,0.788,0.897,1.19,1.341c0.306,0.338,0.619,0.669,0.929,1.002c0.301,0.323,0.597,0.65,0.903,0.971  c17.348,18.224,40.862,30.519,67.195,33.559c0.118,0.013,0.235,0.027,0.353,0.04c1.069,0.12,2.141,0.226,3.219,0.315  c0.092,0.008,0.183,0.017,0.275,0.025c1.154,0.093,2.311,0.17,3.474,0.227c0.104,0.005,0.208,0.007,0.312,0.012  c0.976,0.045,1.956,0.077,2.939,0.096c0.353,0.007,0.706,0.01,1.059,0.013c0.391,0.004,0.779,0.014,1.17,0.014  c0.382,0,0.761-0.01,1.143-0.014c0.355-0.004,0.71-0.006,1.065-0.013c0.963-0.018,1.922-0.05,2.878-0.093  c0.125-0.006,0.25-0.008,0.373-0.014c1.162-0.056,2.319-0.133,3.472-0.225c0.081-0.006,0.163-0.015,0.243-0.021  c1.085-0.089,2.165-0.196,3.242-0.316c0.118-0.013,0.235-0.027,0.354-0.041c7.231-0.833,14.248-2.362,20.984-4.522  c0.058-0.018,0.116-0.038,0.173-0.056c1.056-0.341,2.105-0.696,3.146-1.067c0.103-0.037,0.208-0.073,0.312-0.109  c1.099-0.395,2.191-0.804,3.273-1.233c0.076-0.03,0.15-0.062,0.226-0.092c0.915-0.365,1.823-0.744,2.726-1.131  c0.359-0.154,0.716-0.312,1.073-0.47c0.632-0.28,1.261-0.567,1.887-0.858c0.403-0.187,0.806-0.371,1.207-0.564  c0.85-0.408,1.695-0.828,2.533-1.257c0.533-0.272,1.061-0.556,1.59-0.839c0.388-0.207,0.775-0.414,1.16-0.625  c0.568-0.311,1.134-0.627,1.698-0.949c0.297-0.17,0.589-0.344,0.884-0.516c1.115-0.652,2.221-1.324,3.318-2.017  c0.225-0.142,0.453-0.282,0.677-0.427c0.581-0.373,1.158-0.755,1.733-1.141c0.303-0.203,0.604-0.408,0.904-0.614  c0.915-0.626,1.822-1.268,2.722-1.926c0.365-0.266,0.732-0.528,1.093-0.799c0.455-0.341,0.905-0.69,1.356-1.039  c0.442-0.342,0.883-0.686,1.32-1.034c0.4-0.319,0.799-0.637,1.196-0.963c0.783-0.642,1.559-1.292,2.324-1.955  c0.217-0.188,0.431-0.384,0.646-0.574c0.66-0.581,1.312-1.169,1.959-1.766c0.249-0.229,0.496-0.459,0.744-0.693  c1.491-1.402,2.948-2.843,4.36-4.326c0.306-0.321,0.602-0.646,0.903-0.971C464.1,468.353,464.413,468.022,464.719,467.685z"/>
<ellipse style="fill:#CCA61C;" cx="157.526" cy="40.557" rx="138.859" ry="32.886"/>
<g style="opacity:0.58;">
	<path style="fill:#CCA61C;" d="M414.295,287.636l-5.738,19.637c0.649,0.192,1.293,0.392,1.95,0.604l0.104,0.034l0.125,0.041   c0.581,0.189,1.16,0.383,1.745,0.586l0.31,0.109l0.138,0.049c0.501,0.177,1,0.358,1.513,0.549c0.218,0.082,0.436,0.165,0.653,0.249   l0.039,0.015c0.411,0.158,0.822,0.317,1.246,0.487c0.321,0.129,0.64,0.261,0.943,0.386c0.321,0.133,0.641,0.266,0.973,0.408   c0.406,0.174,0.81,0.352,1.242,0.544c0.214,0.095,0.428,0.19,0.658,0.296c0.483,0.22,0.965,0.445,1.425,0.665l0.145,0.07   l0.316,0.151c0.547,0.265,1.091,0.536,1.633,0.811l0.118,0.059l0.118,0.059c0.597,0.307,1.193,0.621,1.788,0.944l0.069,0.037   c3.76,2.043,7.409,4.38,10.845,6.948l0.026,0.019l0.059,0.045c0.551,0.413,1.099,0.832,1.653,1.267l-0.03-0.024l0.185,0.147   c0.5,0.395,0.998,0.794,1.485,1.196l0.079,0.066l0.255,0.214c0.44,0.366,0.88,0.734,1.323,1.117l0.202,0.178l0.317,0.28l0.126,0.11   c0.324,0.284,0.65,0.569,0.976,0.866c0.17,0.154,0.337,0.311,0.504,0.467l0.308,0.286l0.366,0.339   c0.142,0.131,0.284,0.262,0.434,0.403c1.072,1.021,2.133,2.082,3.159,3.16c0.136,0.143,0.27,0.288,0.403,0.433l0.331,0.358   l0.283,0.304c0.159,0.17,0.318,0.34,0.479,0.518c0.285,0.314,0.564,0.632,0.843,0.95l0.119,0.136l0.287,0.325l0.187,0.212   c0.376,0.435,0.745,0.875,1.103,1.305l0.223,0.266l0.057,0.068c0.407,0.494,0.807,0.992,1.204,1.495l0.145,0.183   c0.422,0.538,0.837,1.079,1.224,1.598l0.048,0.063l0.005,0.007c2.58,3.448,4.928,7.11,6.978,10.886l0.004,0.008l0.024,0.044   l0.01,0.018c0.321,0.592,0.635,1.188,0.951,1.803l0.06,0.119l0.047,0.093c0.276,0.543,0.548,1.088,0.82,1.651l0.155,0.324   l0.051,0.107c0.228,0.479,0.453,0.958,0.678,1.454c0.101,0.221,0.199,0.443,0.303,0.674c0.179,0.403,0.357,0.806,0.537,1.226   c0.137,0.319,0.27,0.639,0.398,0.949c0.131,0.316,0.262,0.633,0.396,0.969c0.164,0.409,0.323,0.82,0.492,1.259   c0.085,0.22,0.169,0.44,0.258,0.679c0.186,0.496,0.366,0.995,0.54,1.488l0.044,0.125l0.121,0.343   c0.201,0.576,0.394,1.154,0.582,1.733l0.037,0.112l0.044,0.135c0.207,0.641,0.406,1.287,0.594,1.92l0.026,0.085   c1.218,4.115,2.147,8.358,2.757,12.581l0.01,0.072l0.01,0.073c0.096,0.669,0.185,1.34,0.266,2.019l-0.004-0.035l0.028,0.238   c0.075,0.634,0.144,1.269,0.206,1.898l0.008,0.1l0.03,0.333c0.052,0.571,0.102,1.143,0.145,1.727l0.016,0.265l0.026,0.415   l0.01,0.151c0.029,0.44,0.057,0.879,0.08,1.327c0.011,0.226,0.018,0.453,0.026,0.679l0.015,0.42l0.019,0.498   c0.008,0.197,0.016,0.395,0.021,0.599c0.018,0.744,0.029,1.487,0.029,2.231c0,0.744-0.01,1.487-0.029,2.236   c-0.005,0.198-0.013,0.397-0.021,0.594l-0.018,0.486l-0.015,0.441c-0.007,0.223-0.014,0.446-0.026,0.677   c-0.021,0.448-0.051,0.893-0.081,1.339l-0.008,0.127l-0.026,0.421l-0.017,0.274c-0.042,0.578-0.093,1.153-0.144,1.71l-0.03,0.336   l-0.008,0.095c-0.061,0.637-0.131,1.271-0.204,1.89l-0.029,0.255c-0.082,0.676-0.171,1.35-0.272,2.055l-0.007,0.053   c-0.614,4.251-1.542,8.491-2.752,12.578l-0.028,0.094c-0.192,0.649-0.392,1.294-0.608,1.964l-0.024,0.074l-0.046,0.14   c-0.189,0.582-0.384,1.162-0.585,1.742l-0.105,0.3l-0.053,0.151c-0.178,0.501-0.358,1.001-0.551,1.517   c-0.078,0.208-0.157,0.414-0.236,0.621l-0.025,0.063c-0.16,0.414-0.32,0.828-0.489,1.249c-0.128,0.32-0.26,0.639-0.389,0.949   c-0.132,0.319-0.265,0.639-0.405,0.966c-0.174,0.406-0.352,0.811-0.54,1.235c-0.097,0.219-0.195,0.438-0.3,0.667   c-0.219,0.482-0.444,0.962-0.668,1.431l-0.063,0.132l-0.154,0.322c-0.265,0.548-0.537,1.094-0.806,1.621l-0.069,0.135l-0.056,0.112   c-0.307,0.598-0.621,1.194-0.943,1.786l-0.019,0.037l-0.019,0.036c-2.043,3.762-4.382,7.412-6.952,10.85l-0.023,0.03l-0.037,0.049   c-0.413,0.551-0.832,1.099-1.247,1.627l-0.144,0.182c-0.396,0.501-0.795,0.999-1.195,1.485l-0.064,0.077L452.121,451   c-0.366,0.44-0.734,0.88-1.119,1.324l-0.18,0.204l-0.276,0.313l-0.122,0.138c-0.282,0.321-0.564,0.642-0.854,0.964   c-0.157,0.173-0.316,0.343-0.475,0.512l-0.284,0.305l-0.329,0.356c-0.134,0.144-0.267,0.29-0.408,0.439   c-1.102,1.157-2.298,2.344-3.563,3.533c-0.202,0.189-0.404,0.377-0.601,0.561c-0.527,0.487-1.06,0.967-1.607,1.448l-0.376,0.334   l-0.141,0.127c-0.565,0.49-1.186,1.012-1.905,1.601c-0.322,0.265-0.649,0.524-0.966,0.776c-0.357,0.284-0.717,0.566-1.087,0.852   l-0.184,0.142c-0.305,0.236-0.61,0.473-0.914,0.702c-0.16,0.12-0.321,0.235-0.483,0.353l-0.413,0.3   c-0.746,0.544-1.491,1.072-2.217,1.568c-0.245,0.168-0.49,0.336-0.734,0.498c-0.469,0.314-0.939,0.626-1.409,0.928l-0.204,0.128   l-0.35,0.22c-0.888,0.562-1.796,1.114-2.706,1.645l-0.305,0.179c-0.139,0.082-0.278,0.164-0.407,0.237   c-0.459,0.263-0.921,0.52-1.386,0.774c-0.315,0.173-0.631,0.342-0.94,0.506l-0.282,0.15c-0.336,0.179-0.671,0.359-1.019,0.537   c-0.666,0.342-1.359,0.685-2.048,1.016c-0.207,0.099-0.414,0.194-0.622,0.29l-0.377,0.175c-0.509,0.237-1.02,0.471-1.522,0.694   c-0.289,0.128-0.579,0.256-0.885,0.388c-0.786,0.338-1.511,0.639-2.196,0.912c-0.1,0.04-0.199,0.08-0.304,0.123   c-0.786,0.31-1.625,0.625-2.568,0.965l-0.251,0.088c-0.834,0.297-1.694,0.589-2.55,0.864l-0.15,0.049   c-5.53,1.774-11.275,3.011-17.097,3.681l-0.268,0.031c-0.932,0.104-1.797,0.189-2.665,0.26l-0.235,0.02   c-0.928,0.074-1.833,0.133-2.691,0.176c-0.136,0.004-0.271,0.009-0.392,0.015c-0.773,0.035-1.564,0.06-2.36,0.076   c-0.226,0.004-0.453,0.006-0.679,0.008l-0.184,0.002l-0.586,0.008c-0.116,0.002-0.232,0.005-0.349,0.005   c-0.126,0-0.252-0.003-0.376-0.005l-0.58-0.008l-0.214-0.002c-0.218-0.002-0.436-0.004-0.654-0.008   c-0.818-0.016-1.626-0.043-2.386-0.078c-0.121-0.005-0.24-0.01-0.372-0.015c-0.86-0.043-1.74-0.101-2.676-0.176l-0.283-0.025   c-0.835-0.07-1.718-0.155-2.623-0.257l-0.29-0.034c-20.79-2.4-40.224-12.11-54.724-27.343c-0.138-0.145-0.273-0.293-0.408-0.439   l-0.326-0.352l-0.291-0.312c-0.158-0.169-0.315-0.337-0.476-0.515c-0.289-0.318-0.571-0.641-0.854-0.963l-0.112-0.127l-0.279-0.316   l-0.187-0.213c-0.376-0.436-0.746-0.876-1.105-1.308l-0.222-0.265l-0.057-0.069c-0.407-0.494-0.807-0.993-1.212-1.507l-0.123-0.153   c-0.428-0.543-0.846-1.091-1.239-1.615l-0.036-0.048l-0.016-0.023c-2.58-3.447-4.927-7.11-6.978-10.886l-0.038-0.071v-0.001   c-0.321-0.592-0.635-1.188-0.945-1.792l-0.049-0.096l-0.066-0.131c-0.276-0.543-0.548-1.087-0.814-1.637l-0.142-0.298l-0.068-0.141   c-0.228-0.479-0.453-0.958-0.683-1.464c-0.093-0.205-0.185-0.41-0.276-0.616l-0.023-0.05c-0.18-0.404-0.358-0.808-0.536-1.225   c-0.137-0.32-0.271-0.641-0.398-0.947c-0.132-0.318-0.263-0.636-0.397-0.971c-0.165-0.41-0.325-0.823-0.476-1.217l-0.032-0.083   c-0.08-0.207-0.159-0.413-0.242-0.638c-0.186-0.498-0.367-0.998-0.539-1.483l-0.055-0.157l-0.111-0.316   c-0.201-0.575-0.394-1.153-0.584-1.738l-0.038-0.116l-0.041-0.128c-0.207-0.641-0.406-1.286-0.598-1.934l0,0l-0.02-0.069   c-1.212-4.095-2.139-8.318-2.757-12.585l-0.004-0.033l-0.01-0.073c-0.097-0.68-0.188-1.364-0.271-2.053l0.003,0.029l-0.028-0.239   c-0.075-0.633-0.144-1.268-0.205-1.89l-0.008-0.098l-0.03-0.333c-0.052-0.573-0.103-1.147-0.145-1.724l-0.016-0.262l-0.027-0.427   l-0.01-0.163c-0.029-0.437-0.057-0.874-0.079-1.317c-0.01-0.22-0.017-0.439-0.026-0.659l-0.015-0.438l-0.019-0.502   c-0.008-0.194-0.016-0.389-0.021-0.6c-0.018-0.743-0.029-1.485-0.029-2.228c0-0.801,0.015-1.685,0.049-2.786   c0.008-0.278,0.019-0.555,0.03-0.823c0.029-0.715,0.065-1.43,0.112-2.15l0.031-0.515l0.01-0.187   c0.053-0.744,0.123-1.551,0.214-2.471c0.04-0.408,0.087-0.815,0.135-1.243c0.051-0.452,0.106-0.903,0.165-1.36l0.031-0.239   c0.049-0.384,0.097-0.767,0.149-1.129c0.028-0.191,0.059-0.382,0.09-0.573l0.082-0.515c0.144-0.922,0.299-1.827,0.461-2.692   c0.054-0.292,0.109-0.583,0.168-0.879c0.109-0.552,0.221-1.104,0.34-1.652l0.054-0.236l0.091-0.396   c0.231-1.029,0.484-2.064,0.752-3.083l0.089-0.34c0.04-0.154,0.08-0.309,0.119-0.45c0.139-0.512,0.284-1.022,0.435-1.535   c0.099-0.341,0.203-0.679,0.303-1.01l0.091-0.298c0.113-0.37,0.224-0.741,0.346-1.119c0.228-0.707,0.475-1.438,0.728-2.163   c0.078-0.22,0.159-0.439,0.239-0.658l0.138-0.376c0.192-0.527,0.388-1.052,0.584-1.561c0.116-0.298,0.23-0.596,0.357-0.912   c0.308-0.773,0.615-1.516,0.906-2.194c0.042-0.098,0.084-0.196,0.127-0.3c0.33-0.761,0.696-1.565,1.113-2.454l0.014-0.031   l0.121-0.252c0.381-0.801,0.783-1.617,1.2-2.431l0.071-0.138c2.654-5.16,5.84-10.093,9.475-14.675l0.171-0.216   c0.585-0.732,1.137-1.404,1.701-2.069l0.155-0.185c0.599-0.703,1.192-1.377,1.773-2.02c0.09-0.096,0.18-0.193,0.266-0.287   c0.521-0.57,1.063-1.149,1.62-1.729c0.149-0.155,0.3-0.309,0.45-0.462l0.144-0.147l0.414-0.426c0.08-0.083,0.159-0.166,0.247-0.254   c0.087-0.087,0.176-0.172,0.265-0.258l0.415-0.404l0.149-0.146c0.155-0.152,0.312-0.306,0.473-0.46   c0.594-0.571,1.185-1.124,1.758-1.647c0.081-0.074,0.162-0.148,0.25-0.231c0.637-0.577,1.301-1.159,2.021-1.773l0.223-0.187   c0.638-0.541,1.323-1.103,2.012-1.653l0.253-0.201c15.767-12.503,35.583-19.388,55.796-19.388h0.009   c0.741,0,1.481,0.01,2.231,0.029c0.196,0.005,0.393,0.013,0.588,0.021l0.492,0.019l0.431,0.015   c0.224,0.008,0.449,0.014,0.683,0.027c0.441,0.021,0.881,0.05,1.32,0.079l0.141,0.009l0.427,0.027l0.277,0.017   c0.575,0.042,1.147,0.092,1.704,0.143l0.351,0.031l0.085,0.007c0.637,0.061,1.272,0.132,1.885,0.204l0.26,0.03   c0.676,0.082,1.35,0.171,1.982,0.262l0.094,0.013c4.262,0.614,8.514,1.544,12.635,2.764L414.295,287.636 M382.901,283.098   c-0.003,0-0.006,0-0.009,0c-24.247,0-48.491,7.944-68.507,23.816c-0.094,0.075-0.188,0.149-0.282,0.224   c-0.839,0.67-1.67,1.351-2.494,2.049c-0.072,0.06-0.144,0.12-0.215,0.18c-0.881,0.75-1.753,1.514-2.616,2.295   c-0.077,0.07-0.15,0.141-0.227,0.211c-0.723,0.659-1.438,1.331-2.148,2.012c-0.255,0.244-0.505,0.492-0.757,0.738   c-0.279,0.273-0.562,0.541-0.839,0.817c-0.27,0.27-0.531,0.545-0.798,0.817c-0.249,0.254-0.497,0.506-0.743,0.762   c-0.668,0.695-1.326,1.396-1.972,2.103c-0.083,0.091-0.169,0.18-0.252,0.271c-0.783,0.862-1.546,1.735-2.296,2.615   c-0.052,0.061-0.103,0.125-0.157,0.187c-0.704,0.831-1.392,1.669-2.068,2.516c-0.075,0.093-0.148,0.186-0.223,0.28   c-4.524,5.702-8.404,11.746-11.64,18.037c-0.028,0.053-0.053,0.105-0.081,0.159c-0.506,0.989-0.997,1.983-1.472,2.984   c-0.047,0.098-0.095,0.196-0.141,0.295c-0.497,1.057-0.981,2.118-1.443,3.187c-0.033,0.076-0.063,0.153-0.096,0.229   c-0.388,0.903-0.762,1.811-1.124,2.721c-0.145,0.364-0.287,0.73-0.43,1.097c-0.249,0.643-0.489,1.289-0.725,1.935   c-0.153,0.419-0.309,0.837-0.457,1.258c-0.312,0.889-0.613,1.781-0.901,2.676c-0.184,0.572-0.358,1.149-0.533,1.724   c-0.127,0.416-0.253,0.834-0.374,1.251c-0.182,0.625-0.36,1.251-0.532,1.88c-0.088,0.325-0.172,0.652-0.257,0.977   c-0.328,1.252-0.636,2.511-0.922,3.78c-0.058,0.261-0.121,0.522-0.178,0.784c-0.146,0.674-0.284,1.351-0.418,2.029   c-0.072,0.359-0.139,0.719-0.207,1.079c-0.206,1.096-0.393,2.197-0.566,3.304c-0.069,0.439-0.142,0.878-0.206,1.318   c-0.081,0.564-0.151,1.131-0.224,1.697c-0.071,0.552-0.138,1.106-0.201,1.659c-0.057,0.51-0.115,1.02-0.165,1.532   c-0.099,1.007-0.189,2.013-0.261,3.021c-0.02,0.289-0.034,0.581-0.052,0.871c-0.055,0.875-0.101,1.75-0.136,2.626   c-0.013,0.34-0.027,0.679-0.037,1.019c-0.035,1.135-0.058,2.271-0.058,3.406v0.001c0,0.911,0.012,1.822,0.035,2.733   c0.01,0.447,0.032,0.891,0.048,1.337c0.016,0.451,0.03,0.901,0.051,1.352c0.03,0.602,0.069,1.202,0.107,1.802   c0.018,0.282,0.033,0.566,0.053,0.848c0.051,0.705,0.112,1.406,0.176,2.108c0.015,0.171,0.029,0.343,0.046,0.514   c0.075,0.782,0.161,1.56,0.252,2.337c0.01,0.087,0.019,0.175,0.03,0.262c0.101,0.842,0.213,1.682,0.332,2.517   c0.003,0.021,0.006,0.042,0.009,0.063c0.764,5.308,1.907,10.493,3.397,15.53c0.008,0.029,0.017,0.057,0.026,0.086   c0.236,0.797,0.482,1.591,0.735,2.379c0.032,0.099,0.064,0.198,0.096,0.298c0.232,0.715,0.472,1.428,0.718,2.137   c0.065,0.187,0.132,0.374,0.197,0.562c0.218,0.616,0.44,1.231,0.669,1.841c0.108,0.289,0.219,0.578,0.329,0.867   c0.194,0.507,0.392,1.013,0.593,1.517c0.158,0.393,0.318,0.784,0.48,1.175c0.164,0.395,0.328,0.789,0.496,1.181   c0.213,0.497,0.431,0.993,0.651,1.488c0.126,0.282,0.252,0.565,0.381,0.846c0.27,0.592,0.546,1.182,0.827,1.772   c0.087,0.182,0.174,0.364,0.262,0.546c0.325,0.673,0.659,1.342,0.998,2.009c0.049,0.096,0.097,0.192,0.146,0.287   c0.377,0.734,0.763,1.466,1.158,2.194c0.015,0.03,0.032,0.058,0.047,0.088c2.506,4.613,5.364,9.086,8.576,13.379   c0.013,0.017,0.027,0.036,0.04,0.053c0.506,0.676,1.021,1.348,1.545,2.015c0.053,0.069,0.108,0.136,0.162,0.204   c0.485,0.614,0.975,1.225,1.475,1.831c0.11,0.134,0.224,0.266,0.335,0.4c0.449,0.539,0.9,1.077,1.361,1.61   c0.188,0.218,0.381,0.432,0.57,0.647c0.394,0.448,0.788,0.897,1.19,1.341c0.306,0.338,0.619,0.669,0.929,1.002   c0.301,0.323,0.597,0.65,0.903,0.971c17.348,18.224,40.862,30.519,67.195,33.559c0.118,0.013,0.235,0.028,0.353,0.04   c1.069,0.12,2.141,0.226,3.219,0.315c0.092,0.007,0.183,0.017,0.275,0.025c1.154,0.093,2.311,0.17,3.474,0.227   c0.104,0.005,0.208,0.007,0.312,0.012c0.976,0.045,1.956,0.077,2.939,0.096c0.353,0.007,0.706,0.009,1.059,0.013   c0.391,0.004,0.779,0.014,1.17,0.014c0.382,0,0.761-0.01,1.143-0.014c0.355-0.004,0.71-0.006,1.065-0.013   c0.963-0.018,1.922-0.05,2.878-0.093c0.125-0.006,0.25-0.008,0.373-0.014c1.162-0.056,2.319-0.133,3.472-0.225   c0.081-0.006,0.163-0.015,0.243-0.021c1.085-0.089,2.165-0.196,3.242-0.316c0.118-0.013,0.235-0.027,0.354-0.041   c7.231-0.833,14.248-2.362,20.984-4.522c0.058-0.018,0.116-0.038,0.173-0.056c1.056-0.341,2.105-0.696,3.146-1.067   c0.103-0.037,0.208-0.073,0.312-0.109c1.099-0.395,2.191-0.804,3.273-1.233c0.076-0.03,0.15-0.062,0.226-0.092   c0.915-0.365,1.823-0.744,2.726-1.131c0.359-0.154,0.716-0.312,1.073-0.47c0.632-0.28,1.261-0.567,1.887-0.858   c0.403-0.187,0.806-0.371,1.207-0.564c0.85-0.408,1.695-0.828,2.533-1.257c0.533-0.272,1.061-0.556,1.59-0.839   c0.388-0.207,0.775-0.414,1.16-0.625c0.568-0.311,1.134-0.627,1.698-0.949c0.297-0.17,0.589-0.344,0.884-0.516   c1.115-0.652,2.221-1.324,3.318-2.017c0.225-0.142,0.453-0.282,0.677-0.427c0.581-0.373,1.158-0.755,1.733-1.141   c0.303-0.203,0.604-0.408,0.904-0.614c0.915-0.626,1.822-1.268,2.722-1.926c0.365-0.266,0.732-0.528,1.093-0.799   c0.455-0.341,0.905-0.69,1.356-1.039c0.442-0.342,0.883-0.686,1.32-1.034c0.4-0.319,0.799-0.637,1.196-0.963   c0.783-0.642,1.559-1.292,2.324-1.955c0.217-0.188,0.431-0.384,0.646-0.574c0.66-0.581,1.312-1.169,1.959-1.766   c0.249-0.229,0.496-0.459,0.744-0.693c1.491-1.402,2.948-2.843,4.36-4.326c0.306-0.321,0.602-0.646,0.903-0.971   c0.31-0.333,0.623-0.665,0.929-1.002c0.403-0.444,0.796-0.893,1.19-1.341c0.189-0.216,0.383-0.43,0.57-0.647   c0.461-0.533,0.912-1.071,1.361-1.61c0.112-0.134,0.224-0.266,0.334-0.4c0.5-0.607,0.99-1.217,1.475-1.831   c0.053-0.069,0.108-0.136,0.162-0.204c0.524-0.667,1.038-1.339,1.545-2.015c0.013-0.017,0.027-0.036,0.04-0.053   c3.212-4.292,6.07-8.764,8.576-13.379c0.016-0.03,0.032-0.058,0.047-0.088c0.395-0.728,0.78-1.46,1.158-2.194   c0.049-0.096,0.098-0.192,0.146-0.287c0.34-0.667,0.673-1.337,0.998-2.009c0.088-0.181,0.175-0.364,0.262-0.546   c0.281-0.588,0.557-1.178,0.827-1.772c0.128-0.281,0.254-0.564,0.38-0.846c0.22-0.495,0.438-0.99,0.651-1.488   c0.168-0.393,0.332-0.787,0.496-1.181c0.162-0.391,0.323-0.783,0.48-1.175c0.202-0.503,0.399-1.01,0.593-1.517   c0.11-0.288,0.222-0.578,0.329-0.867c0.229-0.611,0.451-1.225,0.669-1.841c0.066-0.187,0.133-0.374,0.198-0.562   c0.247-0.709,0.486-1.422,0.718-2.137c0.032-0.099,0.064-0.198,0.096-0.298c0.254-0.79,0.499-1.582,0.735-2.379   c0.008-0.029,0.017-0.057,0.026-0.086c1.491-5.036,2.633-10.221,3.397-15.53c0.003-0.021,0.006-0.042,0.009-0.063   c0.12-0.837,0.231-1.676,0.332-2.517c0.01-0.087,0.019-0.175,0.03-0.262c0.091-0.776,0.177-1.555,0.252-2.337   c0.016-0.171,0.03-0.343,0.046-0.513c0.064-0.701,0.126-1.402,0.176-2.108c0.02-0.282,0.036-0.566,0.053-0.848   c0.039-0.6,0.079-1.2,0.107-1.802c0.021-0.45,0.035-0.901,0.051-1.352c0.016-0.445,0.037-0.89,0.048-1.337   c0.022-0.91,0.035-1.822,0.035-2.733v-0.001l0,0c0-0.911-0.012-1.823-0.035-2.734c-0.011-0.446-0.032-0.89-0.048-1.336   c-0.016-0.451-0.03-0.902-0.051-1.353c-0.029-0.602-0.069-1.201-0.107-1.801c-0.018-0.283-0.033-0.567-0.054-0.849   c-0.051-0.705-0.112-1.405-0.176-2.106c-0.015-0.172-0.029-0.344-0.046-0.515c-0.075-0.781-0.161-1.559-0.252-2.335   c-0.01-0.088-0.019-0.176-0.03-0.263c-0.101-0.842-0.213-1.681-0.332-2.516c-0.003-0.021-0.006-0.043-0.009-0.064   c-0.764-5.308-1.907-10.493-3.397-15.529c-0.008-0.029-0.017-0.058-0.026-0.087c-0.236-0.797-0.482-1.589-0.735-2.377   c-0.032-0.1-0.065-0.201-0.097-0.301c-0.232-0.715-0.471-1.426-0.717-2.135c-0.065-0.188-0.132-0.375-0.198-0.564   c-0.218-0.616-0.44-1.23-0.669-1.84c-0.108-0.289-0.219-0.579-0.329-0.867c-0.194-0.506-0.391-1.012-0.593-1.515   c-0.158-0.394-0.319-0.786-0.481-1.178c-0.164-0.394-0.327-0.788-0.495-1.179c-0.213-0.498-0.432-0.994-0.652-1.49   c-0.126-0.281-0.251-0.563-0.378-0.843c-0.27-0.593-0.546-1.184-0.828-1.773c-0.087-0.182-0.174-0.364-0.261-0.545   c-0.325-0.673-0.66-1.344-0.999-2.012c-0.048-0.094-0.096-0.189-0.144-0.283c-0.377-0.735-0.764-1.468-1.159-2.196   c-0.016-0.03-0.032-0.058-0.047-0.088c-2.506-4.613-5.364-9.086-8.576-13.379c-0.013-0.017-0.027-0.036-0.04-0.053   c-0.506-0.676-1.021-1.348-1.545-2.015c-0.053-0.069-0.108-0.136-0.162-0.204c-0.485-0.614-0.975-1.225-1.475-1.832   c-0.11-0.134-0.224-0.266-0.335-0.4c-0.449-0.539-0.9-1.077-1.361-1.61c-0.188-0.218-0.381-0.431-0.57-0.647   c-0.394-0.448-0.788-0.897-1.19-1.341c-0.306-0.338-0.619-0.669-0.929-1.002c-0.301-0.323-0.597-0.65-0.903-0.971   c-1.257-1.321-2.546-2.609-3.867-3.867c-0.32-0.306-0.646-0.602-0.971-0.903c-0.333-0.31-0.665-0.623-1.002-0.929   c-0.444-0.403-0.893-0.796-1.341-1.19c-0.216-0.189-0.43-0.383-0.647-0.57c-0.533-0.46-1.071-0.912-1.61-1.361   c-0.134-0.111-0.266-0.224-0.4-0.334c-0.607-0.5-1.217-0.99-1.832-1.475c-0.069-0.054-0.135-0.108-0.204-0.162   c-0.667-0.524-1.339-1.038-2.015-1.545c-0.017-0.013-0.035-0.027-0.053-0.04c-4.292-3.212-8.764-6.07-13.379-8.576   c-0.03-0.016-0.058-0.032-0.088-0.047c-0.728-0.395-1.461-0.781-2.196-1.159c-0.094-0.048-0.189-0.096-0.283-0.144   c-0.668-0.341-1.338-0.674-2.012-0.999c-0.181-0.088-0.363-0.174-0.545-0.261c-0.589-0.281-1.18-0.557-1.773-0.828   c-0.28-0.128-0.562-0.253-0.843-0.378c-0.496-0.221-0.992-0.439-1.49-0.652c-0.392-0.168-0.786-0.331-1.179-0.495   c-0.392-0.163-0.785-0.323-1.177-0.481c-0.503-0.202-1.009-0.398-1.515-0.593c-0.288-0.11-0.578-0.222-0.867-0.329   c-0.611-0.229-1.224-0.451-1.84-0.669c-0.188-0.066-0.375-0.133-0.564-0.198c-0.708-0.247-1.42-0.485-2.134-0.717   c-0.1-0.033-0.201-0.065-0.301-0.097c-0.789-0.254-1.581-0.499-2.377-0.735c-0.029-0.008-0.058-0.017-0.087-0.026   c-5.036-1.491-10.221-2.633-15.529-3.397c-0.021-0.003-0.043-0.006-0.064-0.009c-0.836-0.12-1.674-0.231-2.516-0.332   c-0.088-0.01-0.176-0.019-0.263-0.03c-0.776-0.091-1.555-0.177-2.335-0.252c-0.172-0.016-0.344-0.03-0.515-0.046   c-0.701-0.064-1.402-0.126-2.106-0.176c-0.283-0.02-0.567-0.036-0.849-0.054c-0.599-0.039-1.199-0.079-1.801-0.107   c-0.451-0.023-0.902-0.035-1.353-0.051c-0.445-0.016-0.889-0.037-1.336-0.048C384.717,283.111,383.809,283.098,382.901,283.098   L382.901,283.098z"/>
</g>
<path d="M360.419,425.014c0-4.237-3.434-7.672-7.672-7.672c-4.238,0-7.672,3.435-7.672,7.672c0,18.224,12.958,33.478,30.145,37.033  v1.659v7.968c0,4.237,3.434,7.672,7.672,7.672c4.238,0,7.672-3.435,7.672-7.672v-7.968v-1.66  c17.186-3.556,30.144-18.809,30.144-37.033c0-18.519-13.581-25.78-26.715-32.804c-1.128-0.603-2.276-1.218-3.429-1.845v-46.762  c8.624,3.142,14.8,11.425,14.8,21.122c0,4.237,3.434,7.672,7.672,7.672c4.238,0,7.672-3.435,7.672-7.672  c0-18.224-12.958-33.477-30.144-37.032v-12.31c0-4.237-3.434-7.672-7.672-7.672c-4.238,0-7.672,3.435-7.672,7.672v12.31  c-17.186,3.556-30.145,18.808-30.145,37.032c0,18.093,12.9,25.13,25.376,31.934c1.561,0.852,3.156,1.725,4.769,2.633v46.845  C366.596,442.995,360.419,434.712,360.419,425.014z M405.365,425.014c0,9.698-6.175,17.981-14.8,21.123v-38.334  C400.536,413.295,405.365,417.045,405.365,425.014z M360.419,364.725c0-9.698,6.176-17.981,14.801-21.123v38.167  C364.11,375.589,360.419,372.443,360.419,364.725z"/>
<path d="M382.892,275.427c-4.238,0-7.672,3.435-7.672,7.672s3.434,7.672,7.672,7.672c56.662,0,102.758,46.097,102.758,102.759  s-46.096,102.758-102.758,102.758S280.133,450.19,280.133,393.528c0-37.283,20.262-71.716,52.876-89.862  c3.702-2.06,5.034-6.732,2.974-10.434c-2.06-3.702-6.731-5.034-10.434-2.974c-7.811,4.346-14.996,9.515-21.491,15.348V178.237  c0-4.237-3.434-7.672-7.672-7.672c-4.238,0-7.672,3.435-7.672,7.672v8.437c0,1.499-6.187,9.019-34.767,15.788  c-25.664,6.078-59.905,9.425-96.418,9.425s-70.754-3.347-96.419-9.425c-28.579-6.769-34.765-14.289-34.765-15.788v-54.126  c7.563,4.135,17.944,7.755,31.229,10.901c26.789,6.344,62.288,9.838,99.955,9.838s73.165-3.494,99.954-9.838  c13.287-3.146,23.667-6.768,31.23-10.902v13.069c0,4.237,3.434,7.672,7.672,7.672c4.238,0,7.672-3.435,7.672-7.672V40.556  c0-13.249-15.235-23.296-46.574-30.718C230.696,3.494,195.199,0,157.531,0S84.365,3.494,57.576,9.838  c-31.339,7.422-46.573,17.47-46.573,30.718s15.235,23.297,46.573,30.719c26.789,6.344,62.288,9.838,99.955,9.838  s73.165-3.494,99.954-9.838c13.287-3.146,23.667-6.768,31.23-10.902v52.357c0,1.499-6.187,9.019-34.767,15.789  c-25.664,6.077-59.905,9.425-96.418,9.425s-70.754-3.347-96.419-9.425c-28.579-6.769-34.765-14.289-34.765-15.789V85.05  c0-4.237-3.434-7.672-7.672-7.672s-7.672,3.435-7.672,7.672V292.3c0,4.237,3.434,7.672,7.672,7.672s7.672-3.435,7.672-7.672v-13.068  c7.563,4.135,17.944,7.755,31.229,10.901c26.789,6.344,62.288,9.838,99.955,9.838s73.165-3.494,99.954-9.838  c13.287-3.146,23.667-6.768,31.23-10.902v43.077c-3.888,5.145-7.346,10.595-10.343,16.296  c-21.178,11.695-67.41,18.953-120.842,18.953c-36.512,0-70.754-3.347-96.419-9.425c-28.579-6.769-34.765-14.289-34.765-15.788  v-14.47c0-4.237-3.434-7.672-7.672-7.672s-7.672,3.435-7.672,7.672v153.566c0,13.249,15.235,23.296,46.573,30.718  c26.789,6.345,62.288,9.838,99.955,9.838c36.987,0,72.567-4.106,100.185-11.56c22.48-6.068,36.848-13.514,42.957-22.215  c21.279,20.663,50.287,33.407,82.219,33.407c65.121,0,118.102-52.98,118.102-118.103S448.014,275.427,382.892,275.427z   M253.948,56.345c-25.664,6.077-59.905,9.425-96.418,9.425s-70.754-3.347-96.419-9.425c-28.579-6.769-34.765-14.289-34.765-15.789  c0-1.5,6.187-9.019,34.765-15.788c25.666-6.078,59.907-9.425,96.42-9.425s70.754,3.347,96.418,9.425  c28.58,6.769,34.767,14.289,34.767,15.788C288.716,42.055,282.529,49.576,253.948,56.345z M253.948,275.205  c-25.664,6.077-59.905,9.425-96.418,9.425s-70.754-3.347-96.419-9.425c-28.579-6.769-34.765-14.289-34.765-15.789V206.49  c7.563,4.135,17.944,7.755,31.229,10.901c26.789,6.345,62.288,9.838,99.955,9.838s73.165-3.494,99.954-9.838  c13.287-3.146,23.667-6.768,31.23-10.901v52.926C288.716,260.916,282.529,268.436,253.948,275.205z M57.576,363.065  c26.789,6.345,62.288,9.838,99.955,9.838c46.069,0,86.312-5.147,112.489-14.087c-3.418,11.094-5.229,22.776-5.229,34.713  c0,8.338,0.874,16.474,2.525,24.327c-24.975,8.677-65.296,13.789-109.784,13.789c-36.512,0-70.754-3.347-96.419-9.425  c-28.579-6.769-34.765-14.289-34.765-15.788v-54.268C33.91,356.297,44.289,359.919,57.576,363.065z M253.718,485.625  c-26.352,7.113-60.511,11.03-96.187,11.03c-36.512,0-70.754-3.347-96.419-9.425c-28.579-6.769-34.765-14.289-34.765-15.788v-45.194  c7.563,4.135,17.944,7.755,31.229,10.901c26.789,6.345,62.288,9.838,99.955,9.838c45.504,0,87.211-5.306,113.927-14.34  c4.187,11.892,10.225,22.916,17.77,32.729c-0.326,0.852-0.512,1.773-0.512,2.739C288.716,469.716,282.488,477.861,253.718,485.625z"/>
<g>
</g>
<g>
</g>
<g>
</g>
<g>
</g>
<g>
</g>
<g>
</g>
<g>
</g>
<g>
</g>
<g>
</g>
<g>
</g>
<g>
</g>
<g>
</g>
<g>
</g>
<g>
</g>
<g>
</g>
</svg>
