<?xml version="1.0" encoding="UTF-8" standalone="no"?>
<!-- Created with Inkscape (http://www.inkscape.org/) -->

<svg
   version="1.1"
   id="svg2"
   width="5333.3335"
   height="5333.3335"
   viewBox="0 0 5333.3335 5333.3335"
   sodipodi:docname="vecteezy_flat-vector-illustration-of-coin-stack-suitable-for-design_6607016.eps"
   xmlns:inkscape="http://www.inkscape.org/namespaces/inkscape"
   xmlns:sodipodi="http://sodipodi.sourceforge.net/DTD/sodipodi-0.dtd"
   xmlns="http://www.w3.org/2000/svg"
   xmlns:svg="http://www.w3.org/2000/svg">
  <defs
     id="defs6" />
  <sodipodi:namedview
     id="namedview4"
     pagecolor="#ffffff"
     bordercolor="#000000"
     borderopacity="0.25"
     inkscape:showpageshadow="2"
     inkscape:pageopacity="0.0"
     inkscape:pagecheckerboard="0"
     inkscape:deskcolor="#d1d1d1" />
  <g
     id="g8"
     inkscape:groupmode="layer"
     inkscape:label="ink_ext_XXXXXX"
     transform="matrix(1.3333333,0,0,-1.3333333,0,5333.3333)">
    <g
       id="g10"
       transform="scale(0.1)">
      <path
         d="M 40000,0 H 0 V 40000 H 40000 V 0"
         style="fill:#ffffff;fill-opacity:1;fill-rule:nonzero;stroke:none"
         id="path12" />
      <path
         d="m 36941.3,14123.2 c 0,-1864.7 -6332.7,-3417.8 -14144.4,-3468.8 -7811.8,-51 -14144.52,1419.2 -14144.52,3283.9 0,1864.7 6332.72,3417.7 14144.52,3468.8 7811.7,51 14144.4,-1419.2 14144.4,-3283.9"
         style="fill:#e5e5e5;fill-opacity:1;fill-rule:nonzero;stroke:none"
         id="path14" />
      <path
         d="m 16776,13886.7 v -2055.1 c -462.4,-33.4 -941.8,-50.9 -1433,-50.9 -839,0 -1643.4,51.2 -2388.3,145.1 V 13981 c 744.9,-94 1549.3,-145.2 2388.3,-145.2 491.2,0 970.6,17.6 1433,50.9"
         style="fill:#ecaf12;fill-opacity:1;fill-rule:nonzero;stroke:none"
         id="path16" />
      <path
         d="m 22307.8,14185.4 c 0,-539 -513.6,-1036.6 -1381.1,-1437.6 v 2054.3 c 805.8,372 1306.8,827.2 1375.4,1321.5 v -1839.9 c 3.8,-32.5 5.7,-65.3 5.7,-98.3"
         style="fill:#ecaf12;fill-opacity:1;fill-rule:nonzero;stroke:none"
         id="path18" />
      <path
         d="m 12954.7,13981 v -2055.2 c -2670.3,336.5 -4576.55,1221.2 -4576.55,2259.6 v 1950.3 h 4.2 c 123.46,-992.9 1991.25,-1829.8 4572.35,-2154.7"
         style="fill:#f9be15;fill-opacity:1;fill-rule:nonzero;stroke:none"
         id="path20" />
      <path
         d="m 19345.5,14272 v -2054.9 c -759,-184.3 -1629.4,-317.6 -2569.5,-385.5 v 2055.1 c 940,67.9 1810.4,201.1 2569.5,385.3"
         style="fill:#f9be15;fill-opacity:1;fill-rule:nonzero;stroke:none"
         id="path22" />
      <path
         d="m 20926.7,14802.1 v -2054.3 c -442.1,-204.4 -976.3,-383.7 -1581.2,-530.7 V 14272 c 604.8,146.8 1139,325.9 1581.2,530.1"
         style="fill:#ffd800;fill-opacity:1;fill-rule:nonzero;stroke:none"
         id="path24" />
      <path
         d="m 20975.7,15708.4 731.4,-448 c -111.2,-85.9 -236.6,-169 -375.1,-249.3 l -732.2,448.5 c -774.3,-424.9 -2089.1,-745.9 -3662.1,-877.3 l 948.7,-581.1 c -229.9,-31.1 -465.8,-58.2 -707,-80.9 l -1003,614.3 c -272.3,-11.5 -550.6,-17.4 -833.4,-17.4 -903.6,0 -1760.6,60.7 -2529.3,169.4 l 1331,-815.3 c -3218,192.5 -5679.17,1147 -5766.55,2305.5 23.64,313.2 220.72,611.5 559.45,883.9 l 535.39,-328 c 249.54,350.2 829.11,662.9 1634.61,906.5 l -426.2,261.1 c 183.6,57.1 376,110.7 576.4,160.9 l 435,-266.4 c 1011.7,235.8 2277.2,375.9 3650.2,375.9 292.3,0 579.7,-6.3 860.8,-18.6 l -594.2,364 c 280.4,-3.7 556.6,-13.1 827.7,-27.9 l 645.3,-395.3 c 497.2,-45.6 967.2,-110.4 1400.7,-191.5 l -773.9,474.1 c 2628.1,-327.5 4522,-1185 4598.4,-2198.7 -12.9,-172.1 -78.3,-339.7 -190.7,-501 l -796.6,488 c -51.1,-158.6 -168.9,-311.3 -344.8,-455.4"
         style="fill:#ffc515;fill-opacity:1;fill-rule:nonzero;stroke:none"
         id="path26" />
      <path
         d="m 21349.4,16343.9 c 0,-50 -6.6,-99.5 -19.6,-148.4 -121.7,427.4 -804.4,810.2 -1839.9,1089.4 -465.7,125.6 -1002.6,230.3 -1592,308.6 -301.6,40.2 -617.1,73.4 -943.7,99 -512.7,40.3 -1053.1,61.8 -1611.2,61.8 -1162.7,0 -2248.3,-93.3 -3167.9,-254.9 -220.2,-38.7 -431,-81.3 -631,-127.5 -852,-196.8 -1509.1,-458.3 -1877.16,-757.9 -163.06,-132.8 -269.3,-273 -310.73,-418.5 -13.01,48.9 -19.6,98.4 -19.6,148.4 0,133.4 47.03,263.6 136.38,388.8 249.54,350.2 829.11,662.9 1634.61,906.5 183.7,55.6 379.2,107.6 585.2,155.6 1011.7,235.8 2277.2,375.9 3650.2,375.9 292.3,0 579.7,-6.3 860.8,-18.6 300.7,-13.2 594.3,-33 878.8,-59.2 497.2,-45.6 967.2,-110.4 1400.7,-191.5 1719.4,-321.3 2866.1,-898.6 2866.1,-1557.5"
         style="fill:#c9840a;fill-opacity:1;fill-rule:nonzero;stroke:none"
         id="path28" />
      <path
         d="m 21329.8,16195.5 c -2.8,-10.6 -6,-21.2 -9.3,-31.7 -51.1,-158.6 -168.9,-311.3 -344.8,-455.4 -105.1,-86.2 -231.1,-169.3 -375.9,-248.8 -774.3,-424.9 -2089.1,-745.9 -3662.1,-877.3 -247.8,-20.7 -501.8,-36.7 -761.3,-47.7 -272.3,-11.5 -550.6,-17.4 -833.4,-17.4 -903.6,0 -1760.6,60.7 -2529.3,169.4 -1913.6,270.6 -3280.26,838.7 -3457.49,1508.9 41.43,145.5 147.67,285.7 310.73,418.5 368.06,299.6 1025.16,561.1 1877.16,757.9 200,46.2 410.8,88.8 631,127.5 919.6,161.6 2005.2,254.9 3167.9,254.9 558.1,0 1098.5,-21.5 1611.2,-61.8 326.6,-25.6 642,-58.8 943.6,-99 h 0.1 c 589.4,-78.3 1126.3,-183 1591.9,-308.6 h 0.1 c 1035.5,-279.2 1718.2,-662 1839.9,-1089.4"
         style="fill:#efa90c;fill-opacity:1;fill-rule:nonzero;stroke:none"
         id="path30" />
      <path
         d="m 22310.3,16113 c 0,-1328.2 -3119.4,-2404.8 -6967.3,-2404.8 -3847.9,0 -6967.32,1076.6 -6967.32,2404.8 0,21.3 0.83,42.6 2.47,63.8 97.92,-1298.7 3178.75,-2341 6964.85,-2341 3786.1,0 6866.9,1042.3 6964.8,2341 1.7,-21.2 2.5,-42.5 2.5,-63.8"
         style="fill:#ffe755;fill-opacity:1;fill-rule:nonzero;stroke:none"
         id="path32" />
      <path
         d="m 18483.3,17901.4 c -433.5,81.1 -903.5,145.9 -1400.7,191.5 l -645.3,395.3 c 439,-23.9 864.4,-61.9 1272.1,-112.7 l 773.9,-474.1"
         style="fill:#ffe755;fill-opacity:1;fill-rule:nonzero;stroke:none"
         id="path34" />
      <path
         d="m 22117.1,15675.8 c -100.4,-143.9 -238.3,-282.8 -410,-415.4 l -731.4,448 c 175.9,144.1 293.7,296.8 344.8,455.4 l 796.6,-488"
         style="fill:#ffe755;fill-opacity:1;fill-rule:nonzero;stroke:none"
         id="path36" />
      <path
         d="m 13398.9,16749.8 -102.7,-0.4 -182,-239.4 c -18,-23.6 -34.4,-46.8 -49.4,-69.5 l 1191.6,-729.9 c 106.5,-3.1 219.6,-4.7 339.1,-4.5 h 16.4 l -51.3,-181.8 628.2,-384.8 h 293.5 l 24.1,319.5 -2107.5,1290.8"
         style="fill:#ffc515;fill-opacity:1;fill-rule:nonzero;stroke:none"
         id="path38" />
      <path
         d="m 15620.2,16487 c 127.4,-13.2 221.7,-32.6 282.5,-58.4 48.8,-20.8 81.8,-48 98.9,-82.1 21,26.1 30.7,57 29,92.5 l -15.7,335.1 c -2.8,59.6 -40.5,104.1 -112.2,134.5 -60.8,25.9 -155.1,45.3 -282.5,58.5 l -55.9,-740.2 c 12.5,0.9 24.6,1.8 36.5,2.7 l 19.4,257.4"
         style="fill:#c9840a;fill-opacity:1;fill-rule:nonzero;stroke:none"
         id="path40" />
      <path
         d="m 14955.2,17687.2 c -58.7,-14.6 -94.5,-37.3 -107.2,-68.6 l -50,-124 c -15.2,-37.7 3.8,-67.6 58,-89.2 47.1,-18.7 122.1,-31.8 224.7,-38.9 l 97.6,345.7 c -98.6,-4.3 -172.9,-12.6 -223.1,-25"
         style="fill:#c9840a;fill-opacity:1;fill-rule:nonzero;stroke:none"
         id="path42" />
      <path
         d="m 13967.3,17179.5 c -89.7,34.9 -136.8,79.9 -143.7,133.9 l -0.2,0.2 v -454.4 c -4,-40.5 12.4,-76.6 49.8,-107.7 l 625.7,2.2 -115.5,-286 c -33.3,-82.5 -18.1,-143.2 47.8,-179.9 16.8,-9.4 37.9,-17.8 63.2,-25.3 l 4.5,11.1 h -14.2 l 14.2,1.4 v 319.5 c 104.6,-12.7 222.4,-24.8 353.6,-36.2 l 132.5,469.1 c -527.2,41.3 -864.1,92.3 -1017.7,152.1"
         style="fill:#c9840a;fill-opacity:1;fill-rule:nonzero;stroke:none"
         id="path44" />
      <path
         d="m 15956.5,17612.7 c -1.4,35.8 -27.2,61 -76.9,76.2 -42.2,12.9 -109.9,21.4 -203,25.6 l -29.8,-395.3 c 519.4,-41.9 882.1,-92.4 1080.5,-152.3 55.3,-16.6 105.4,-35.9 150.5,-57.9 v 390.3 l -916.7,-4.8 -4.6,118.2"
         style="fill:#c9840a;fill-opacity:1;fill-rule:nonzero;stroke:none"
         id="path46" />
      <path
         d="m 14612,15706.1 -16.5,-0.1 c -783.8,-0.9 -1286.4,69.6 -1499.3,204.8 -85.3,54.2 -131,123.3 -139.8,205.2 l -1.7,1 v -459.7 h 0.2 c 2.6,-91.3 48.6,-167.7 141.3,-226.6 201.9,-128.2 664.6,-198.2 1380.3,-204.3 l 135.5,479.7"
         style="fill:#c9840a;fill-opacity:1;fill-rule:nonzero;stroke:none"
         id="path48" />
      <path
         d="m 17308.8,16324.3 c -0.2,-159.6 -94,-292.1 -290.2,-389.9 -277.8,-138.5 -780.1,-216.2 -1493.4,-226.4 l -42.9,-568.5 h -99.3 -832.1 -3.7 -95.2 v 0 -480.1 0 h 98.9 832.1 40.5 58.8 l 42.9,568.5 c 713.3,10.2 1215.6,87.9 1493.4,226.4 191.3,95.4 285.2,223.8 289.9,378.1 h 0.3 v 492 -0.1"
         style="fill:#c9840a;fill-opacity:1;fill-rule:nonzero;stroke:none"
         id="path50" />
      <path
         d="m 16203.8,18152.1 c -281.1,12.3 -568.5,18.6 -860.8,18.6 -1373,0 -2638.5,-140.1 -3650.2,-375.9 l -435,266.4 c 1147.8,287.3 2559.2,456.6 4085.2,456.6 89.3,0 178.1,-0.6 266.6,-1.7 l 594.2,-364"
         style="fill:#ffe755;fill-opacity:1;fill-rule:nonzero;stroke:none"
         id="path52" />
      <path
         d="m 21332,15011.1 c -787,-455.8 -1998.3,-814 -3445.6,-1009.9 l -948.7,581.1 c 1573,131.4 2887.8,452.4 3662.1,877.3 l 732.2,-448.5"
         style="fill:#ffe755;fill-opacity:1;fill-rule:nonzero;stroke:none"
         id="path54" />
      <path
         d="m 15916.4,16287.2 c -70.4,-29.2 -187.8,-49.3 -352,-60.2 l 55.8,740.1 c 127.4,-13.2 221.7,-32.6 282.5,-58.5 71.6,-30.4 109.4,-74.9 112.2,-134.5 l 15.7,-335.1 c 3.2,-67.7 -34.6,-118.7 -114.2,-151.8 z m -835.7,1079.3 c -102.5,7.1 -177.6,20.1 -224.8,38.9 -54.1,21.6 -73.2,51.5 -57.9,89.2 l 50,123.9 c 12.7,31.4 48.5,54.1 107.2,68.6 50.1,12.5 124.5,20.8 223.1,25.2 z m 2187.8,-847.7 -128.9,329.2 c -59,150.5 -197.6,254.2 -412.3,318.9 -198.5,59.9 -561.1,110.4 -1080.5,152.3 l 29.8,395.3 c 93.1,-4.2 160.9,-12.7 203,-25.6 49.8,-15.2 75.5,-40.4 76.9,-76.2 l 4.7,-118.2 916.7,4.8 -39.5,101.4 c -47.3,121.7 -152.7,195.8 -315.3,230.2 -152.3,32.1 -429.7,48 -834,48.5 l 8.3,109.9 -42.5,-0.2 -354,-2.3 -45.1,-0.2 -31.2,-110.3 c -378.8,-7.8 -657.2,-31 -838.3,-70.6 -194.7,-42.5 -333.8,-117.1 -417.6,-229.9 l -99.8,-134.3 c -84,-113.3 -54.8,-202.5 98.4,-262 153.6,-59.8 490.5,-110.8 1017.7,-152 l -226.7,-802.9 c -159.7,9.5 -268.8,30.7 -327.2,63.1 -65.8,36.8 -81,97.6 -47.6,180 l 115.4,286 -1100,-3.9 2107.5,-1290.8 18.8,249 c 713.3,10.2 1215.6,87.9 1493.4,226.4 271.2,135.2 346.8,336.7 249.9,584.4"
         style="fill:#ffe755;fill-opacity:1;fill-rule:nonzero;stroke:none"
         id="path56" />
      <path
         d="m 11107.6,17639.2 c -805.5,-243.6 -1385.07,-556.3 -1634.61,-906.5 l -535.39,328 c 400.74,322.3 999.63,608.2 1743.8,839.6 l 426.2,-261.1"
         style="fill:#ffe755;fill-opacity:1;fill-rule:nonzero;stroke:none"
         id="path58" />
      <path
         d="m 17179.4,13920.3 c -585,-55 -1200.8,-84.5 -1836.4,-84.5 -408.6,0 -809,12.2 -1198.3,35.5 l -1331,815.3 c 768.7,-108.7 1625.7,-169.4 2529.3,-169.4 282.8,0 561.1,5.9 833.4,17.4 l 1003,-614.3"
         style="fill:#ffe755;fill-opacity:1;fill-rule:nonzero;stroke:none"
         id="path60" />
      <path
         d="m 14256.4,15710.6 c -591.3,17.5 -979.8,85.6 -1160.2,200.2 -181.8,115.5 -184.3,298.2 -31.4,529.7 l 1191.6,-729.9"
         style="fill:#ffe755;fill-opacity:1;fill-rule:nonzero;stroke:none"
         id="path62" />
      <path
         d="M 15188.8,15139.5 H 14452 l 108.6,384.8 z"
         style="fill:#ffe755;fill-opacity:1;fill-rule:nonzero;stroke:none"
         id="path64" />
      <path
         d="m 19436.7,16339.2 v -2055.1 c -462.4,-33.5 -941.7,-51 -1432.9,-51 -839.1,0 -1643.5,51.2 -2388.4,145.1 v 2055.2 c 744.9,-94 1549.3,-145.1 2388.4,-145.1 491.2,0 970.5,17.5 1432.9,50.9"
         style="fill:#ecaf12;fill-opacity:1;fill-rule:nonzero;stroke:none"
         id="path66" />
      <path
         d="m 24968.6,16637.9 c 0,-539 -513.7,-1036.6 -1381.1,-1437.7 v 2054.4 c 805.8,372 1306.7,827.1 1375.3,1321.4 v -1839.9 c 3.8,-32.5 5.8,-65.3 5.8,-98.2"
         style="fill:#ecaf12;fill-opacity:1;fill-rule:nonzero;stroke:none"
         id="path68" />
      <path
         d="m 15615.4,16433.4 v -2055.2 c -2670.2,336.5 -4576.5,1221.3 -4576.5,2259.7 v 1950.2 h 4.2 c 123.5,-992.8 1991.2,-1829.7 4572.3,-2154.7"
         style="fill:#f9be15;fill-opacity:1;fill-rule:nonzero;stroke:none"
         id="path70" />
      <path
         d="m 22006.2,16724.4 v -2054.8 c -758.9,-184.3 -1629.4,-317.7 -2569.5,-385.5 v 2055.1 c 940.1,67.8 1810.5,201 2569.5,385.2"
         style="fill:#f9be15;fill-opacity:1;fill-rule:nonzero;stroke:none"
         id="path72" />
      <path
         d="m 23587.5,17254.6 v -2054.4 c -442.2,-204.4 -976.3,-383.7 -1581.3,-530.6 v 2054.8 c 604.9,146.8 1139,325.9 1581.3,530.2"
         style="fill:#ffd800;fill-opacity:1;fill-rule:nonzero;stroke:none"
         id="path74" />
      <path
         d="m 23636.5,18160.8 731.4,-447.9 c -111.2,-85.9 -236.6,-169.1 -375.1,-249.3 l -732.3,448.4 c -774.3,-424.9 -2089.1,-745.9 -3662.1,-877.2 l 948.7,-581.2 c -229.9,-31.1 -465.8,-58.2 -706.9,-80.8 l -1003,614.3 c -272.4,-11.6 -550.6,-17.5 -833.4,-17.5 -903.7,0 -1760.7,60.7 -2529.4,169.4 l 1331.1,-815.2 c -3218.1,192.4 -5679.2,1146.9 -5766.6,2305.4 23.6,313.2 220.7,611.5 559.5,883.9 l 535.3,-328 c 249.6,350.2 829.1,662.9 1634.6,906.5 l -426.1,261.1 c 183.5,57.1 375.9,110.8 576.4,160.9 l 435,-266.4 c 1011.6,235.8 2277.1,376 3650.2,376 292.2,0 579.7,-6.4 860.7,-18.6 l -594.2,363.9 c 280.5,-3.6 556.7,-13 827.7,-27.9 l 645.4,-395.3 c 497.1,-45.6 967.1,-110.4 1400.7,-191.4 l -773.9,474 c 2628,-327.4 4522,-1184.9 4598.4,-2198.7 -12.9,-172.1 -78.3,-339.7 -190.7,-500.9 l -796.7,487.9 c -51,-158.6 -168.8,-311.3 -344.7,-455.4"
         style="fill:#ffc515;fill-opacity:1;fill-rule:nonzero;stroke:none"
         id="path76" />
      <path
         d="m 24010.1,18796.3 c 0,-49.9 -6.6,-99.4 -19.6,-148.4 -121.7,427.5 -804.3,810.3 -1839.9,1089.4 -465.6,125.6 -1002.5,230.3 -1591.9,308.6 -301.7,40.2 -617.1,73.4 -943.7,99 -512.8,40.3 -1053.1,61.8 -1611.2,61.8 -1162.8,0 -2248.4,-93.3 -3168,-254.9 -220.2,-38.7 -430.9,-81.3 -631,-127.5 -851.9,-196.7 -1509.1,-458.3 -1877.1,-757.9 -163.1,-132.8 -269.3,-273 -310.7,-418.5 -13,49 -19.6,98.5 -19.6,148.4 0,133.5 47,263.6 136.3,388.8 249.6,350.2 829.1,662.9 1634.6,906.5 183.8,55.6 379.2,107.6 585.3,155.6 1011.6,235.8 2277.1,376 3650.2,376 292.2,0 579.7,-6.4 860.7,-18.6 300.7,-13.2 594.3,-33.1 878.9,-59.3 497.1,-45.6 967.1,-110.4 1400.7,-191.4 1719.4,-321.4 2866,-898.7 2866,-1557.6"
         style="fill:#c9840a;fill-opacity:1;fill-rule:nonzero;stroke:none"
         id="path78" />
      <path
         d="m 23990.5,18647.9 c -2.8,-10.6 -5.9,-21.1 -9.3,-31.7 -51,-158.6 -168.8,-311.3 -344.7,-455.4 -105.2,-86.2 -231.1,-169.3 -376,-248.8 -774.3,-424.9 -2089.1,-745.9 -3662.1,-877.2 -247.7,-20.8 -501.8,-36.8 -761.2,-47.7 -272.4,-11.6 -550.6,-17.5 -833.4,-17.5 -903.7,0 -1760.7,60.7 -2529.4,169.4 -1913.6,270.6 -3280.2,838.7 -3457.4,1508.9 41.4,145.5 147.6,285.7 310.7,418.5 368,299.6 1025.2,561.2 1877.1,757.9 200.1,46.2 410.8,88.8 631,127.5 919.6,161.6 2005.2,254.9 3168,254.9 558.1,0 1098.4,-21.5 1611.2,-61.8 326.6,-25.6 641.9,-58.8 943.6,-99 h 0.1 c 589.3,-78.3 1126.3,-183 1591.8,-308.6 h 0.1 c 1035.6,-279.1 1718.2,-661.9 1839.9,-1089.4"
         style="fill:#efa90c;fill-opacity:1;fill-rule:nonzero;stroke:none"
         id="path80" />
      <path
         d="m 24971.1,18565.4 c 0,-1328.1 -3119.4,-2404.8 -6967.3,-2404.8 -3848,0 -6967.4,1076.7 -6967.4,2404.8 0,21.4 0.9,42.6 2.5,63.8 97.9,-1298.6 3178.8,-2340.9 6964.9,-2340.9 3786,0 6866.9,1042.3 6964.8,2340.9 1.6,-21.2 2.5,-42.4 2.5,-63.8"
         style="fill:#ffe755;fill-opacity:1;fill-rule:nonzero;stroke:none"
         id="path82" />
      <path
         d="m 21144.1,20353.9 c -433.6,81 -903.6,145.8 -1400.7,191.4 l -645.4,395.3 c 439.1,-23.8 864.4,-61.9 1272.2,-112.7 l 773.9,-474"
         style="fill:#ffe755;fill-opacity:1;fill-rule:nonzero;stroke:none"
         id="path84" />
      <path
         d="m 24777.9,18128.3 c -100.4,-144 -238.4,-282.8 -410,-415.4 l -731.4,447.9 c 175.9,144.1 293.7,296.8 344.7,455.4 l 796.7,-487.9"
         style="fill:#ffe755;fill-opacity:1;fill-rule:nonzero;stroke:none"
         id="path86" />
      <path
         d="m 16059.7,19202.2 -102.7,-0.3 -182,-239.4 c -18,-23.7 -34.5,-46.9 -49.5,-69.6 l 1191.6,-729.9 c 106.5,-3.1 219.6,-4.7 339.2,-4.5 h 16.4 l -51.3,-181.8 628.2,-384.7 h 293.4 l 24.1,319.4 -2107.4,1290.8"
         style="fill:#ffc515;fill-opacity:1;fill-rule:nonzero;stroke:none"
         id="path88" />
      <path
         d="m 18281,18939.5 c 127.4,-13.3 221.6,-32.7 282.5,-58.5 48.7,-20.8 81.8,-48 98.8,-82.1 21,26.2 30.7,57 29.1,92.5 l -15.7,335.2 c -2.8,59.5 -40.6,104 -112.2,134.5 -60.9,25.8 -155.1,45.2 -282.5,58.5 l -55.9,-740.2 c 12.4,0.8 24.5,1.7 36.4,2.6 l 19.5,257.5"
         style="fill:#c9840a;fill-opacity:1;fill-rule:nonzero;stroke:none"
         id="path90" />
      <path
         d="m 17615.9,20139.6 c -58.7,-14.6 -94.4,-37.3 -107.1,-68.6 l -50.1,-124 c -15.2,-37.7 3.8,-67.6 58,-89.2 47.2,-18.7 122.2,-31.7 224.8,-38.9 l 97.6,345.8 c -98.7,-4.3 -173,-12.7 -223.2,-25.1"
         style="fill:#c9840a;fill-opacity:1;fill-rule:nonzero;stroke:none"
         id="path92" />
      <path
         d="m 16628,19631.9 c -89.6,34.9 -136.7,79.9 -143.6,134 l -0.3,0.2 v -454.5 c -4,-40.5 12.4,-76.5 49.9,-107.7 l 625.6,2.3 -115.4,-286 c -33.3,-82.5 -18.1,-143.3 47.7,-180 16.8,-9.4 38,-17.8 63.3,-25.2 l 4.4,11.1 -14.1,-0.1 14.1,1.4 v 319.6 c 104.7,-12.8 222.5,-24.9 353.7,-36.3 l 132.4,469.2 c -527.1,41.3 -864,92.3 -1017.7,152"
         style="fill:#c9840a;fill-opacity:1;fill-rule:nonzero;stroke:none"
         id="path94" />
      <path
         d="m 18617.3,20065.1 c -1.4,35.8 -27.2,61 -76.9,76.2 -42.2,12.9 -109.9,21.4 -203,25.6 l -29.9,-395.3 c 519.5,-41.9 882.1,-92.4 1080.6,-152.2 55.3,-16.7 105.4,-36 150.5,-58 v 390.3 l -916.7,-4.7 -4.6,118.1"
         style="fill:#c9840a;fill-opacity:1;fill-rule:nonzero;stroke:none"
         id="path96" />
      <path
         d="m 17272.7,18158.5 h -16.4 c -783.8,-1 -1286.5,69.5 -1499.3,204.7 -85.4,54.2 -131.1,123.3 -139.9,205.3 l -1.7,0.9 v -459.6 h 0.2 c 2.7,-91.4 48.7,-167.8 141.4,-226.7 201.8,-128.2 664.5,-198.2 1380.3,-204.2 l 135.4,479.6"
         style="fill:#c9840a;fill-opacity:1;fill-rule:nonzero;stroke:none"
         id="path98" />
      <path
         d="m 19969.5,18776.7 c -0.2,-159.6 -94,-292.1 -290.2,-389.9 -277.7,-138.5 -780,-216.2 -1493.4,-226.3 l -42.9,-568.6 h -99.2 -832.2 -3.6 -95.2 v 0 -480.1 0 h 98.8 832.2 40.5 58.7 l 42.9,568.6 c 713.4,10.1 1215.7,87.8 1493.4,226.3 191.4,95.4 285.2,223.8 290,378.1 h 0.3 v 492 l -0.1,-0.1"
         style="fill:#c9840a;fill-opacity:1;fill-rule:nonzero;stroke:none"
         id="path100" />
      <path
         d="m 18864.5,20604.6 c -281,12.2 -568.5,18.6 -860.7,18.6 -1373.1,0 -2638.6,-140.2 -3650.2,-376 l -435,266.4 c 1147.8,287.3 2559.2,456.6 4085.2,456.6 89.2,0 178.1,-0.6 266.5,-1.7 l 594.2,-363.9"
         style="fill:#ffe755;fill-opacity:1;fill-rule:nonzero;stroke:none"
         id="path102" />
      <path
         d="m 23992.8,17463.6 c -787,-455.9 -1998.3,-814.1 -3445.7,-1010 l -948.7,581.2 c 1573,131.3 2887.8,452.3 3662.1,877.2 l 732.3,-448.4"
         style="fill:#ffe755;fill-opacity:1;fill-rule:nonzero;stroke:none"
         id="path104" />
      <path
         d="m 18577.1,18739.6 c -70.3,-29.2 -187.8,-49.2 -352,-60.2 l 55.9,740.1 c 127.4,-13.1 221.7,-32.6 282.4,-58.4 71.7,-30.5 109.5,-75 112.3,-134.5 l 15.6,-335.1 c 3.3,-67.7 -34.5,-118.8 -114.2,-151.9 z m -835.7,1079.4 c -102.5,7 -177.5,20.1 -224.7,38.8 -54.2,21.6 -73.2,51.5 -58,89.2 l 50.1,124 c 12.7,31.3 48.4,54.1 107.1,68.6 50.2,12.4 124.6,20.7 223.1,25.1 z m 2187.8,-847.7 -128.9,329.1 c -58.9,150.5 -197.5,254.2 -412.2,318.9 -198.5,59.9 -561.1,110.4 -1080.5,152.3 l 29.8,395.3 c 93,-4.2 160.8,-12.7 203,-25.6 49.7,-15.2 75.5,-40.4 76.9,-76.2 l 4.6,-118.2 916.7,4.8 -39.4,101.4 c -47.4,121.7 -152.7,195.8 -315.4,230.2 -152.2,32.1 -429.6,48 -834,48.6 l 8.3,109.8 -42.5,-0.2 -353.9,-2.2 -45.2,-0.3 -31.1,-110.3 c -378.8,-7.8 -657.2,-31 -838.3,-70.5 -194.8,-42.5 -333.9,-117.1 -417.6,-230 l -99.8,-134.3 c -84,-113.2 -54.8,-202.4 98.4,-262 153.6,-59.8 490.5,-110.7 1017.6,-152 l -226.6,-802.9 c -159.8,9.6 -268.9,30.7 -327.2,63.2 -65.8,36.7 -81,97.5 -47.7,179.9 l 115.5,286 -1100,-3.9 2107.4,-1290.8 18.8,249.1 c 713.4,10.1 1215.7,87.8 1493.5,226.3 271.2,135.2 346.8,336.7 249.8,584.5"
         style="fill:#ffe755;fill-opacity:1;fill-rule:nonzero;stroke:none"
         id="path106" />
      <path
         d="m 13768.3,20091.6 c -805.5,-243.6 -1385,-556.3 -1634.6,-906.5 l -535.3,328 c 400.7,322.3 999.6,608.3 1743.8,839.6 l 426.1,-261.1"
         style="fill:#ffe755;fill-opacity:1;fill-rule:nonzero;stroke:none"
         id="path108" />
      <path
         d="m 19840.2,16372.8 c -585.1,-55.1 -1200.8,-84.5 -1836.4,-84.5 -408.6,0 -809,12.1 -1198.3,35.5 l -1331.1,815.2 c 768.7,-108.7 1625.7,-169.4 2529.4,-169.4 282.8,0 561,5.9 833.4,17.5 l 1003,-614.3"
         style="fill:#ffe755;fill-opacity:1;fill-rule:nonzero;stroke:none"
         id="path110" />
      <path
         d="m 16917.1,18163 c -591.3,17.6 -979.7,85.6 -1160.1,200.2 -181.8,115.5 -184.3,298.2 -31.5,529.7 l 1191.6,-729.9"
         style="fill:#ffe755;fill-opacity:1;fill-rule:nonzero;stroke:none"
         id="path112" />
      <path
         d="m 17849.6,17592 h -736.9 l 108.7,384.7 z"
         style="fill:#ffe755;fill-opacity:1;fill-rule:nonzero;stroke:none"
         id="path114" />
      <path
         d="m 19436.7,18528.2 v -2055.1 c -462.4,-33.4 -941.7,-51 -1432.9,-51 -839.1,0 -1643.5,51.3 -2388.4,145.2 v 2055.1 c 744.9,-93.9 1549.3,-145.1 2388.4,-145.1 491.2,0 970.5,17.6 1432.9,50.9"
         style="fill:#ecaf12;fill-opacity:1;fill-rule:nonzero;stroke:none"
         id="path116" />
      <path
         d="m 24968.6,18826.9 c 0,-539 -513.7,-1036.6 -1381.1,-1437.6 v 2054.3 c 805.8,372 1306.7,827.2 1375.3,1321.5 v -1839.9 c 3.8,-32.5 5.8,-65.3 5.8,-98.3"
         style="fill:#ecaf12;fill-opacity:1;fill-rule:nonzero;stroke:none"
         id="path118" />
      <path
         d="m 15615.4,18622.4 v -2055.1 c -2670.2,336.5 -4576.5,1221.2 -4576.5,2259.6 v 1950.3 h 4.2 c 123.5,-992.9 1991.2,-1829.8 4572.3,-2154.8"
         style="fill:#f9be15;fill-opacity:1;fill-rule:nonzero;stroke:none"
         id="path120" />
      <path
         d="m 22006.2,18913.5 v -2054.9 c -758.9,-184.3 -1629.4,-317.6 -2569.5,-385.5 v 2055.1 c 940.1,67.9 1810.5,201.1 2569.5,385.3"
         style="fill:#f9be15;fill-opacity:1;fill-rule:nonzero;stroke:none"
         id="path122" />
      <path
         d="m 23587.5,19443.6 v -2054.3 c -442.2,-204.5 -976.3,-383.7 -1581.3,-530.7 v 2054.9 c 604.9,146.8 1139,325.9 1581.3,530.1"
         style="fill:#ffd800;fill-opacity:1;fill-rule:nonzero;stroke:none"
         id="path124" />
      <path
         d="m 23636.5,20349.9 731.4,-448 c -111.2,-85.9 -236.6,-169 -375.1,-249.3 l -732.3,448.5 c -774.3,-424.9 -2089.1,-745.9 -3662.1,-877.3 l 948.7,-581.1 c -229.9,-31.1 -465.8,-58.2 -706.9,-80.9 l -1003,614.3 c -272.4,-11.5 -550.6,-17.4 -833.4,-17.4 -903.7,0 -1760.7,60.7 -2529.4,169.4 l 1331.1,-815.3 c -3218.1,192.5 -5679.2,1147 -5766.6,2305.5 23.6,313.2 220.7,611.5 559.5,883.8 l 535.3,-327.9 c 249.6,350.2 829.1,662.9 1634.6,906.5 l -426.1,261.1 c 183.5,57 375.9,110.7 576.4,160.9 l 435,-266.4 c 1011.6,235.8 2277.1,375.9 3650.2,375.9 292.2,0 579.7,-6.3 860.7,-18.6 l -594.2,363.9 c 280.5,-3.6 556.7,-13 827.7,-27.8 l 645.4,-395.3 c 497.1,-45.6 967.1,-110.4 1400.7,-191.5 l -773.9,474.1 c 2628,-327.5 4522,-1185 4598.4,-2198.7 -12.9,-172.1 -78.3,-339.7 -190.7,-501 l -796.7,488 c -51,-158.6 -168.8,-311.3 -344.7,-455.4"
         style="fill:#ffc515;fill-opacity:1;fill-rule:nonzero;stroke:none"
         id="path126" />
      <path
         d="m 24010.1,20985.4 c 0,-50 -6.6,-99.5 -19.6,-148.4 -121.7,427.4 -804.3,810.2 -1839.9,1089.4 -465.6,125.6 -1002.5,230.3 -1591.9,308.6 -301.7,40.2 -617.1,73.4 -943.7,99 -512.8,40.3 -1053.1,61.8 -1611.2,61.8 -1162.8,0 -2248.4,-93.4 -3168,-254.9 -220.2,-38.7 -430.9,-81.3 -631,-127.5 -851.9,-196.8 -1509.1,-458.3 -1877.1,-757.9 -163.1,-132.8 -269.3,-273.1 -310.7,-418.5 -13,48.9 -19.6,98.4 -19.6,148.4 0,133.4 47,263.5 136.3,388.8 249.6,350.2 829.1,662.9 1634.6,906.5 183.8,55.6 379.2,107.6 585.3,155.6 1011.6,235.8 2277.1,375.9 3650.2,375.9 292.2,0 579.7,-6.3 860.7,-18.6 300.7,-13.2 594.3,-33 878.9,-59.2 497.1,-45.6 967.1,-110.4 1400.7,-191.5 1719.4,-321.3 2866,-898.6 2866,-1557.5"
         style="fill:#c9840a;fill-opacity:1;fill-rule:nonzero;stroke:none"
         id="path128" />
      <path
         d="m 23990.5,20837 c -2.8,-10.6 -5.9,-21.2 -9.3,-31.7 -51,-158.6 -168.8,-311.3 -344.7,-455.4 -105.2,-86.3 -231.1,-169.4 -376,-248.8 -774.3,-424.9 -2089.1,-745.9 -3662.1,-877.3 -247.7,-20.7 -501.8,-36.7 -761.2,-47.7 -272.4,-11.5 -550.6,-17.4 -833.4,-17.4 -903.7,0 -1760.7,60.7 -2529.4,169.4 -1913.6,270.6 -3280.2,838.7 -3457.4,1508.9 41.4,145.4 147.6,285.7 310.7,418.5 368,299.6 1025.2,561.1 1877.1,757.9 200.1,46.2 410.8,88.8 631,127.5 919.6,161.5 2005.2,254.9 3168,254.9 558.1,0 1098.4,-21.5 1611.2,-61.8 326.6,-25.6 641.9,-58.8 943.6,-99 h 0.1 c 589.3,-78.3 1126.3,-183 1591.8,-308.6 h 0.1 c 1035.6,-279.2 1718.2,-662 1839.9,-1089.4"
         style="fill:#efa90c;fill-opacity:1;fill-rule:nonzero;stroke:none"
         id="path130" />
      <path
         d="m 24971.1,20754.5 c 0,-1328.2 -3119.4,-2404.8 -6967.3,-2404.8 -3848,0 -6967.4,1076.6 -6967.4,2404.8 0,21.3 0.9,42.6 2.5,63.8 97.9,-1298.7 3178.8,-2341 6964.9,-2341 3786,0 6866.9,1042.3 6964.8,2341 1.6,-21.2 2.5,-42.5 2.5,-63.8"
         style="fill:#ffe755;fill-opacity:1;fill-rule:nonzero;stroke:none"
         id="path132" />
      <path
         d="m 21144.1,22542.9 c -433.6,81.1 -903.6,145.9 -1400.7,191.5 l -645.4,395.3 c 439.1,-23.9 864.4,-61.9 1272.2,-112.7 l 773.9,-474.1"
         style="fill:#ffe755;fill-opacity:1;fill-rule:nonzero;stroke:none"
         id="path134" />
      <path
         d="m 24777.9,20317.3 c -100.4,-143.9 -238.4,-282.8 -410,-415.4 l -731.4,448 c 175.9,144.1 293.7,296.8 344.7,455.4 l 796.7,-488"
         style="fill:#ffe755;fill-opacity:1;fill-rule:nonzero;stroke:none"
         id="path136" />
      <path
         d="m 16059.7,21391.3 -102.7,-0.4 -182,-239.4 c -18,-23.6 -34.5,-46.8 -49.5,-69.5 l 1191.6,-729.9 c 106.5,-3.1 219.6,-4.7 339.2,-4.5 h 16.4 l -51.3,-181.8 628.2,-384.8 h 293.4 l 24.1,319.5 -2107.4,1290.8"
         style="fill:#ffc515;fill-opacity:1;fill-rule:nonzero;stroke:none"
         id="path138" />
      <path
         d="m 18281,21128.5 c 127.4,-13.2 221.6,-32.6 282.5,-58.5 48.7,-20.7 81.8,-48 98.8,-82 21,26.1 30.7,57 29.1,92.5 l -15.7,335.1 c -2.8,59.6 -40.6,104.1 -112.2,134.5 -60.9,25.9 -155.1,45.3 -282.5,58.5 l -55.9,-740.2 c 12.4,0.9 24.5,1.8 36.4,2.7 l 19.5,257.4"
         style="fill:#c9840a;fill-opacity:1;fill-rule:nonzero;stroke:none"
         id="path140" />
      <path
         d="m 17615.9,22328.7 c -58.7,-14.6 -94.4,-37.3 -107.1,-68.7 l -50.1,-123.9 c -15.2,-37.8 3.8,-67.7 58,-89.2 47.2,-18.7 122.2,-31.8 224.8,-38.9 l 97.6,345.7 c -98.7,-4.3 -173,-12.6 -223.2,-25"
         style="fill:#c9840a;fill-opacity:1;fill-rule:nonzero;stroke:none"
         id="path142" />
      <path
         d="m 16628,21821 c -89.6,34.9 -136.7,79.9 -143.6,133.9 l -0.3,0.2 v -454.4 c -4,-40.6 12.4,-76.6 49.9,-107.7 l 625.6,2.2 -115.4,-286 c -33.3,-82.5 -18.1,-143.2 47.7,-179.9 16.8,-9.4 38,-17.8 63.3,-25.3 l 4.4,11.1 h -14.1 l 14.1,1.4 v 319.5 c 104.7,-12.7 222.5,-24.8 353.7,-36.2 l 132.4,469.1 c -527.1,41.3 -864,92.3 -1017.7,152.1"
         style="fill:#c9840a;fill-opacity:1;fill-rule:nonzero;stroke:none"
         id="path144" />
      <path
         d="m 18617.3,22254.2 c -1.4,35.8 -27.2,61 -76.9,76.2 -42.2,12.9 -109.9,21.4 -203,25.6 l -29.9,-395.3 c 519.5,-41.9 882.1,-92.4 1080.6,-152.3 55.3,-16.7 105.4,-36 150.5,-57.9 v 390.3 l -916.7,-4.8 -4.6,118.2"
         style="fill:#c9840a;fill-opacity:1;fill-rule:nonzero;stroke:none"
         id="path146" />
      <path
         d="m 17272.7,20347.6 -16.4,-0.1 c -783.8,-0.9 -1286.5,69.6 -1499.3,204.8 -85.4,54.2 -131.1,123.3 -139.9,205.2 l -1.7,0.9 v -459.6 h 0.2 c 2.7,-91.4 48.7,-167.7 141.4,-226.6 201.8,-128.2 664.5,-198.2 1380.3,-204.3 l 135.4,479.7"
         style="fill:#c9840a;fill-opacity:1;fill-rule:nonzero;stroke:none"
         id="path148" />
      <path
         d="m 19969.5,20965.8 c -0.2,-159.6 -94,-292.2 -290.2,-389.9 -277.7,-138.5 -780,-216.2 -1493.4,-226.4 L 18143,19781 h -99.2 -832.2 -3.6 -95.2 v 0 -480.1 0 h 98.8 832.2 40.5 58.7 l 42.9,568.5 c 713.4,10.2 1215.7,87.9 1493.4,226.4 191.4,95.3 285.2,223.8 290,378.1 h 0.3 v 492 l -0.1,-0.1"
         style="fill:#c9840a;fill-opacity:1;fill-rule:nonzero;stroke:none"
         id="path150" />
      <path
         d="m 18864.5,22793.6 c -281,12.3 -568.5,18.6 -860.7,18.6 -1373.1,0 -2638.6,-140.1 -3650.2,-375.9 l -435,266.4 c 1147.8,287.2 2559.2,456.6 4085.2,456.6 89.2,0 178.1,-0.6 266.5,-1.8 l 594.2,-363.9"
         style="fill:#ffe755;fill-opacity:1;fill-rule:nonzero;stroke:none"
         id="path152" />
      <path
         d="m 23992.8,19652.6 c -787,-455.8 -1998.3,-814 -3445.7,-1009.9 l -948.7,581.1 c 1573,131.4 2887.8,452.4 3662.1,877.3 l 732.3,-448.5"
         style="fill:#ffe755;fill-opacity:1;fill-rule:nonzero;stroke:none"
         id="path154" />
      <path
         d="m 18577.1,20928.7 c -70.3,-29.2 -187.8,-49.3 -352,-60.2 l 55.9,740.1 c 127.4,-13.2 221.7,-32.6 282.4,-58.5 71.7,-30.5 109.5,-74.9 112.3,-134.5 l 15.6,-335.1 c 3.3,-67.7 -34.5,-118.7 -114.2,-151.8 z m -835.7,1079.3 c -102.5,7.1 -177.5,20.1 -224.7,38.9 -54.2,21.6 -73.2,51.5 -58,89.2 l 50.1,123.9 c 12.7,31.4 48.4,54.1 107.1,68.6 50.2,12.5 124.6,20.8 223.1,25.1 z m 2187.8,-847.7 -128.9,329.2 c -58.9,150.5 -197.5,254.2 -412.2,318.9 -198.5,59.9 -561.1,110.3 -1080.5,152.3 l 29.8,395.3 c 93,-4.2 160.8,-12.7 203,-25.6 49.7,-15.2 75.5,-40.4 76.9,-76.2 l 4.6,-118.2 916.7,4.8 -39.4,101.4 c -47.4,121.7 -152.7,195.8 -315.4,230.1 -152.2,32.2 -429.6,48.1 -834,48.6 l 8.3,109.9 -42.5,-0.3 -353.9,-2.2 -45.2,-0.2 -31.1,-110.3 c -378.8,-7.8 -657.2,-31 -838.3,-70.6 -194.8,-42.5 -333.9,-117.1 -417.6,-229.9 l -99.8,-134.3 c -84,-113.3 -54.8,-202.5 98.4,-262 153.6,-59.8 490.5,-110.8 1017.6,-152 l -226.6,-802.9 c -159.8,9.5 -268.9,30.7 -327.2,63.1 -65.8,36.8 -81,97.5 -47.7,180 l 115.5,286 -1100,-3.9 2107.4,-1290.8 18.8,249 c 713.4,10.2 1215.7,87.9 1493.5,226.3 271.2,135.3 346.8,336.8 249.8,584.5"
         style="fill:#ffe755;fill-opacity:1;fill-rule:nonzero;stroke:none"
         id="path156" />
      <path
         d="m 13768.3,22280.7 c -805.5,-243.6 -1385,-556.3 -1634.6,-906.5 l -535.3,327.9 c 400.7,322.4 999.6,608.3 1743.8,839.7 l 426.1,-261.1"
         style="fill:#ffe755;fill-opacity:1;fill-rule:nonzero;stroke:none"
         id="path158" />
      <path
         d="m 19840.2,18561.8 c -585.1,-55.1 -1200.8,-84.5 -1836.4,-84.5 -408.6,0 -809,12.1 -1198.3,35.5 l -1331.1,815.3 c 768.7,-108.7 1625.7,-169.4 2529.4,-169.4 282.8,0 561,5.9 833.4,17.4 l 1003,-614.3"
         style="fill:#ffe755;fill-opacity:1;fill-rule:nonzero;stroke:none"
         id="path160" />
      <path
         d="m 16917.1,20352.1 c -591.3,17.5 -979.7,85.6 -1160.1,200.2 -181.8,115.5 -184.3,298.2 -31.5,529.7 l 1191.6,-729.9"
         style="fill:#ffe755;fill-opacity:1;fill-rule:nonzero;stroke:none"
         id="path162" />
      <path
         d="m 17849.6,19781 h -736.9 l 108.7,384.8 z"
         style="fill:#ffe755;fill-opacity:1;fill-rule:nonzero;stroke:none"
         id="path164" />
      <path
         d="m 16554.6,20929.7 v -2055.1 c -462.4,-33.5 -941.7,-51 -1433,-51 -839,0 -1643.4,51.2 -2388.3,145.1 v 2055.2 c 744.9,-94 1549.3,-145.1 2388.3,-145.1 491.3,0 970.6,17.5 1433,50.9"
         style="fill:#ecaf12;fill-opacity:1;fill-rule:nonzero;stroke:none"
         id="path166" />
      <path
         d="m 22086.5,21228.4 c 0,-539 -513.7,-1036.6 -1381.1,-1437.7 v 2054.4 c 805.7,372 1306.7,827.2 1375.3,1321.5 v -1840 c 3.8,-32.5 5.8,-65.3 5.8,-98.2"
         style="fill:#ecaf12;fill-opacity:1;fill-rule:nonzero;stroke:none"
         id="path168" />
      <path
         d="m 12733.3,21023.9 v -2055.2 c -2670.2,336.5 -4576.52,1221.3 -4576.52,2259.7 v 1950.3 h 4.2 c 123.45,-992.9 1991.22,-1829.8 4572.32,-2154.8"
         style="fill:#f9be15;fill-opacity:1;fill-rule:nonzero;stroke:none"
         id="path170" />
      <path
         d="m 19124.1,21315 v -2054.9 c -759,-184.3 -1629.4,-317.7 -2569.5,-385.5 v 2055.1 c 940,67.9 1810.4,201 2569.5,385.3"
         style="fill:#f9be15;fill-opacity:1;fill-rule:nonzero;stroke:none"
         id="path172" />
      <path
         d="m 20705.4,21845.1 v -2054.4 c -442.2,-204.4 -976.4,-383.7 -1581.3,-530.6 V 21315 c 604.8,146.7 1139,325.8 1581.3,530.1"
         style="fill:#ffd800;fill-opacity:1;fill-rule:nonzero;stroke:none"
         id="path174" />
      <path
         d="m 20754.4,22751.3 731.4,-447.9 c -111.2,-85.9 -236.6,-169.1 -375.2,-249.3 l -732.2,448.4 c -774.3,-424.8 -2089.1,-745.9 -3662.1,-877.2 l 948.7,-581.1 c -229.9,-31.2 -465.8,-58.3 -706.9,-80.9 l -1003,614.3 c -272.4,-11.5 -550.7,-17.5 -833.5,-17.5 -903.6,0 -1760.6,60.7 -2529.3,169.4 l 1331,-815.2 c -3218,192.5 -5679.14,1147 -5766.52,2305.5 23.64,313.2 220.71,611.5 559.44,883.8 l 535.4,-327.9 c 249.54,350.1 829.08,662.8 1634.58,906.5 l -426.2,261 c 183.6,57.1 376,110.8 576.4,160.9 l 435,-266.4 c 1011.7,235.8 2277.2,376 3650.2,376 292.3,0 579.7,-6.4 860.8,-18.6 l -594.2,363.9 c 280.4,-3.6 556.7,-13 827.7,-27.8 l 645.3,-395.3 c 497.2,-45.7 967.2,-110.5 1400.7,-191.5 l -773.9,474 c 2628.1,-327.4 4522,-1184.9 4598.5,-2198.6 -13,-172.2 -78.4,-339.8 -190.8,-501 l -796.6,488 c -51.1,-158.7 -168.8,-311.4 -344.7,-455.5"
         style="fill:#ffc515;fill-opacity:1;fill-rule:nonzero;stroke:none"
         id="path176" />
      <path
         d="m 21128,23386.9 c 0,-50 -6.6,-99.5 -19.6,-148.4 -121.7,427.4 -804.4,810.2 -1839.9,1089.4 -465.6,125.6 -1002.5,230.2 -1591.9,308.6 -301.7,40.1 -617.1,73.3 -943.8,98.9 -512.7,40.3 -1053.1,61.8 -1611.2,61.8 -1162.7,0 -2248.3,-93.3 -3167.9,-254.9 -220.2,-38.7 -430.9,-81.3 -631,-127.5 -852,-196.7 -1509.08,-458.3 -1877.13,-757.9 -163.07,-132.7 -269.3,-273 -310.73,-418.4 -13.01,48.9 -19.6,98.4 -19.6,148.4 0,133.4 47.02,263.5 136.38,388.8 249.54,350.1 829.08,662.8 1634.58,906.5 183.8,55.5 379.2,107.5 585.2,155.5 1011.7,235.8 2277.2,376 3650.2,376 292.3,0 579.7,-6.4 860.8,-18.6 300.7,-13.2 594.3,-33.1 878.8,-59.2 497.2,-45.7 967.2,-110.5 1400.7,-191.5 1719.5,-321.4 2866.1,-898.7 2866.1,-1557.5"
         style="fill:#c9840a;fill-opacity:1;fill-rule:nonzero;stroke:none"
         id="path178" />
      <path
         d="m 21108.4,23238.5 c -2.8,-10.7 -5.9,-21.2 -9.3,-31.7 -51.1,-158.7 -168.8,-311.4 -344.7,-455.5 -105.2,-86.2 -231.1,-169.3 -376,-248.8 -774.3,-424.8 -2089.1,-745.9 -3662.1,-877.2 -247.7,-20.8 -501.8,-36.8 -761.2,-47.7 -272.4,-11.5 -550.7,-17.5 -833.5,-17.5 -903.6,0 -1760.6,60.7 -2529.3,169.4 -1913.6,270.7 -3280.23,838.7 -3457.46,1509 41.43,145.4 147.66,285.7 310.73,418.4 368.05,299.6 1025.13,561.2 1877.13,757.9 200.1,46.2 410.8,88.8 631,127.5 919.6,161.6 2005.2,254.9 3167.9,254.9 558.1,0 1098.5,-21.5 1611.2,-61.8 326.7,-25.6 642,-58.8 943.7,-98.9 h 0.1 c 589.3,-78.4 1126.3,-183 1591.8,-308.6 h 0.1 c 1035.5,-279.2 1718.2,-662 1839.9,-1089.4"
         style="fill:#efa90c;fill-opacity:1;fill-rule:nonzero;stroke:none"
         id="path180" />
      <path
         d="m 22088.9,23155.9 c 0,-1328.1 -3119.4,-2404.8 -6967.3,-2404.8 -3847.9,0 -6967.29,1076.7 -6967.29,2404.8 0,21.4 0.82,42.6 2.47,63.9 97.92,-1298.7 3178.82,-2341 6964.82,-2341 3786.1,0 6866.9,1042.3 6964.9,2341 1.6,-21.3 2.4,-42.5 2.4,-63.9"
         style="fill:#ffe755;fill-opacity:1;fill-rule:nonzero;stroke:none"
         id="path182" />
      <path
         d="m 18261.9,24944.4 c -433.5,81 -903.5,145.8 -1400.7,191.5 l -645.3,395.3 c 439,-23.9 864.4,-62 1272.1,-112.8 l 773.9,-474"
         style="fill:#ffe755;fill-opacity:1;fill-rule:nonzero;stroke:none"
         id="path184" />
      <path
         d="m 21895.7,22718.8 c -100.4,-144 -238.3,-282.8 -409.9,-415.4 l -731.4,447.9 c 175.9,144.1 293.6,296.8 344.7,455.5 l 796.6,-488"
         style="fill:#ffe755;fill-opacity:1;fill-rule:nonzero;stroke:none"
         id="path186" />
      <path
         d="m 13177.5,23792.7 -102.7,-0.3 -182,-239.4 c -17.9,-23.7 -34.4,-46.9 -49.4,-69.5 l 1191.6,-730 c 106.5,-3.1 219.6,-4.6 339.2,-4.5 h 16.3 l -51.3,-181.7 628.3,-384.8 h 293.4 l 24.1,319.4 -2107.5,1290.8"
         style="fill:#ffc515;fill-opacity:1;fill-rule:nonzero;stroke:none"
         id="path188" />
      <path
         d="m 15398.8,23530 c 127.5,-13.2 221.7,-32.6 282.5,-58.5 48.8,-20.7 81.9,-48 98.9,-82.1 21,26.2 30.7,57.1 29,92.5 l -15.7,335.2 c -2.7,59.6 -40.5,104 -112.2,134.5 -60.8,25.9 -155,45.3 -282.5,58.5 l -55.8,-740.2 c 12.4,0.8 24.5,1.7 36.4,2.7 l 19.4,257.4"
         style="fill:#c9840a;fill-opacity:1;fill-rule:nonzero;stroke:none"
         id="path190" />
      <path
         d="m 14733.8,24730.1 c -58.7,-14.5 -94.5,-37.2 -107.1,-68.6 l -50.1,-124 c -15.2,-37.7 3.8,-67.6 58,-89.1 47.1,-18.8 122.1,-31.8 224.7,-39 l 97.6,345.8 c -98.6,-4.3 -172.9,-12.6 -223.1,-25.1"
         style="fill:#c9840a;fill-opacity:1;fill-rule:nonzero;stroke:none"
         id="path192" />
      <path
         d="m 13745.9,24222.5 c -89.6,34.8 -136.8,79.8 -143.6,133.9 l -0.3,0.2 v -454.4 c -4,-40.6 12.4,-76.6 49.9,-107.7 l 625.6,2.2 -115.4,-286 c -33.3,-82.5 -18.1,-143.3 47.7,-180 16.8,-9.4 38,-17.7 63.2,-25.2 l 4.5,11.1 -14.2,-0.1 14.2,1.4 v 319.6 c 104.6,-12.8 222.5,-24.9 353.7,-36.3 l 132.4,469.2 c -527.1,41.3 -864.1,92.3 -1017.7,152.1"
         style="fill:#c9840a;fill-opacity:1;fill-rule:nonzero;stroke:none"
         id="path194" />
      <path
         d="m 15735.1,24655.6 c -1.4,35.9 -27.1,61.1 -76.8,76.2 -42.2,12.9 -110,21.4 -203.1,25.6 l -29.8,-395.3 c 519.5,-41.9 882.1,-92.4 1080.6,-152.2 55.2,-16.7 105.4,-36 150.5,-58 v 390.3 l -916.7,-4.7 -4.7,118.1"
         style="fill:#c9840a;fill-opacity:1;fill-rule:nonzero;stroke:none"
         id="path196" />
      <path
         d="m 14390.6,22749 h -16.4 c -783.8,-1 -1286.5,69.5 -1499.3,204.7 -85.4,54.3 -131.1,123.3 -139.9,205.3 l -1.7,0.9 v -459.6 h 0.2 c 2.7,-91.4 48.7,-167.8 141.4,-226.7 201.8,-128.2 664.5,-198.2 1380.3,-204.2 l 135.4,479.6"
         style="fill:#c9840a;fill-opacity:1;fill-rule:nonzero;stroke:none"
         id="path198" />
      <path
         d="m 17087.4,23367.2 c -0.2,-159.6 -94,-292.1 -290.2,-389.9 -277.8,-138.5 -780.1,-216.1 -1493.4,-226.3 l -42.9,-568.5 h -99.3 -832.1 -3.6 -95.3 v 0 -480.1 0 h 98.9 832.1 40.5 58.8 l 42.9,568.5 c 713.3,10.2 1215.6,87.9 1493.4,226.4 191.3,95.3 285.2,223.7 289.9,378.1 h 0.4 v 492 l -0.1,-0.2"
         style="fill:#c9840a;fill-opacity:1;fill-rule:nonzero;stroke:none"
         id="path200" />
      <path
         d="m 15982.4,25195.1 c -281.1,12.2 -568.5,18.6 -860.8,18.6 -1373,0 -2638.5,-140.2 -3650.2,-376 l -435,266.4 c 1147.8,287.3 2559.2,456.6 4085.2,456.6 89.3,0 178.2,-0.5 266.6,-1.7 l 594.2,-363.9"
         style="fill:#ffe755;fill-opacity:1;fill-rule:nonzero;stroke:none"
         id="path202" />
      <path
         d="m 21110.6,22054.1 c -787,-455.8 -1998.3,-814.1 -3445.6,-1009.9 l -948.7,581.1 c 1573,131.3 2887.8,452.4 3662.1,877.2 l 732.2,-448.4"
         style="fill:#ffe755;fill-opacity:1;fill-rule:nonzero;stroke:none"
         id="path204" />
      <path
         d="m 15695,23330.1 c -70.3,-29.1 -187.8,-49.2 -352,-60.2 l 55.8,740.2 c 127.4,-13.2 221.7,-32.7 282.5,-58.5 71.7,-30.5 109.5,-75 112.3,-134.5 l 15.6,-335.1 c 3.2,-67.7 -34.6,-118.8 -114.2,-151.9 z m -835.7,1079.4 c -102.5,7.1 -177.5,20.1 -224.7,38.8 -54.2,21.6 -73.2,51.5 -58,89.2 l 50.1,124 c 12.6,31.4 48.4,54.1 107.1,68.6 50.2,12.4 124.5,20.7 223.1,25.1 z m 2187.8,-847.7 -128.9,329.2 c -59,150.4 -197.6,254.1 -412.3,318.8 -198.4,59.9 -561,110.4 -1080.5,152.3 l 29.8,395.3 c 93.1,-4.2 160.9,-12.7 203.1,-25.6 49.7,-15.1 75.5,-40.3 76.9,-76.2 l 4.6,-118.1 916.7,4.7 -39.5,101.4 c -47.3,121.7 -152.6,195.9 -315.3,230.2 -152.3,32.1 -429.7,48 -834,48.6 l 8.3,109.9 -42.5,-0.3 -354,-2.2 -45.1,-0.3 -31.1,-110.2 c -378.9,-7.9 -657.2,-31.1 -838.3,-70.6 -194.8,-42.5 -333.9,-117.1 -417.7,-230 l -99.8,-134.3 c -84,-113.2 -54.7,-202.4 98.4,-262 153.6,-59.7 490.6,-110.7 1017.7,-152 l -226.6,-802.9 c -159.8,9.6 -268.9,30.7 -327.2,63.2 -65.8,36.7 -81.1,97.5 -47.7,179.9 l 115.5,286.1 -1100.1,-4 2107.5,-1290.8 18.8,249.1 c 713.4,10.1 1215.6,87.9 1493.4,226.3 271.2,135.2 346.8,336.8 249.9,584.5"
         style="fill:#ffe755;fill-opacity:1;fill-rule:nonzero;stroke:none"
         id="path206" />
      <path
         d="m 10886.2,24682.2 c -805.5,-243.7 -1385.04,-556.4 -1634.58,-906.5 l -535.4,327.9 c 400.75,322.3 999.64,608.3 1743.78,839.6 l 426.2,-261"
         style="fill:#ffe755;fill-opacity:1;fill-rule:nonzero;stroke:none"
         id="path208" />
      <path
         d="m 16958.1,20963.3 c -585.1,-55.1 -1200.9,-84.5 -1836.5,-84.5 -408.5,0 -809,12.1 -1198.3,35.5 l -1331,815.2 c 768.7,-108.7 1625.7,-169.4 2529.3,-169.4 282.8,0 561.1,6 833.5,17.5 l 1003,-614.3"
         style="fill:#ffe755;fill-opacity:1;fill-rule:nonzero;stroke:none"
         id="path210" />
      <path
         d="m 14035,22753.5 c -591.3,17.6 -979.8,85.6 -1160.1,200.3 -181.9,115.4 -184.3,298.2 -31.5,529.7 l 1191.6,-730"
         style="fill:#ffe755;fill-opacity:1;fill-rule:nonzero;stroke:none"
         id="path212" />
      <path
         d="m 14967.5,22182.5 h -736.9 l 108.6,384.8 z"
         style="fill:#ffe755;fill-opacity:1;fill-rule:nonzero;stroke:none"
         id="path214" />
      <path
         d="m 16901,23588.3 v -2055.1 c -462.4,-33.4 -941.7,-51 -1432.9,-51 -839.1,0 -1643.5,51.2 -2388.4,145.1 v 2055.2 c 744.9,-93.9 1549.3,-145.1 2388.4,-145.1 491.2,0 970.5,17.6 1432.9,50.9"
         style="fill:#ecaf12;fill-opacity:1;fill-rule:nonzero;stroke:none"
         id="path216" />
      <path
         d="m 22432.9,23887 c 0,-539 -513.7,-1036.6 -1381.1,-1437.7 v 2054.4 c 805.8,372 1306.7,827.2 1375.3,1321.5 v -1839.9 c 3.8,-32.6 5.8,-65.3 5.8,-98.3"
         style="fill:#ecaf12;fill-opacity:1;fill-rule:nonzero;stroke:none"
         id="path218" />
      <path
         d="m 13079.7,23682.5 v -2055.2 c -2670.2,336.5 -4576.49,1221.3 -4576.49,2259.7 v 1950.3 h 4.2 c 123.45,-992.9 1991.19,-1829.8 4572.29,-2154.8"
         style="fill:#f9be15;fill-opacity:1;fill-rule:nonzero;stroke:none"
         id="path220" />
      <path
         d="m 19470.6,23973.6 v -2054.9 c -759,-184.3 -1629.5,-317.6 -2569.6,-385.5 v 2055.1 c 940.1,67.9 1810.5,201 2569.6,385.3"
         style="fill:#f9be15;fill-opacity:1;fill-rule:nonzero;stroke:none"
         id="path222" />
      <path
         d="m 21051.8,24503.7 v -2054.4 c -442.2,-204.4 -976.3,-383.7 -1581.2,-530.6 v 2054.9 c 604.8,146.7 1138.9,325.8 1581.2,530.1"
         style="fill:#ffd800;fill-opacity:1;fill-rule:nonzero;stroke:none"
         id="path224" />
      <path
         d="m 21100.8,25409.9 731.4,-447.9 c -111.2,-85.9 -236.6,-169.1 -375.1,-249.3 l -732.3,448.4 c -774.3,-424.8 -2089.1,-745.9 -3662.1,-877.2 l 948.8,-581.1 c -230,-31.2 -465.9,-58.2 -707,-80.9 l -1003,614.3 c -272.4,-11.5 -550.6,-17.5 -833.4,-17.5 -903.7,0 -1760.7,60.7 -2529.4,169.4 l 1331.1,-815.2 c -3218.1,192.5 -5679.21,1147 -5766.59,2305.5 23.64,313.2 220.71,611.5 559.44,883.8 l 535.4,-327.9 c 249.54,350.2 829.05,662.9 1634.65,906.5 l -426.2,261 c 183.5,57.1 375.9,110.8 576.4,161 l 435,-266.5 c 1011.6,235.8 2277.1,376 3650.2,376 292.2,0 579.7,-6.3 860.7,-18.6 l -594.2,363.9 c 280.5,-3.6 556.7,-13 827.7,-27.8 l 645.4,-395.3 c 497.1,-45.7 967.1,-110.5 1400.7,-191.5 l -773.9,474 c 2628,-327.4 4522,-1184.9 4598.4,-2198.6 -12.9,-172.1 -78.3,-339.7 -190.7,-501 l -796.7,488 c -51,-158.7 -168.8,-311.3 -344.7,-455.5"
         style="fill:#ffc515;fill-opacity:1;fill-rule:nonzero;stroke:none"
         id="path226" />
      <path
         d="m 21474.4,26045.5 c 0,-50 -6.6,-99.5 -19.6,-148.4 -121.7,427.4 -804.3,810.2 -1839.9,1089.4 -465.6,125.6 -1002.5,230.2 -1591.9,308.6 -301.7,40.2 -617.1,73.3 -943.7,99 -512.8,40.2 -1053.1,61.7 -1611.2,61.7 -1162.7,0 -2248.4,-93.3 -3168,-254.9 -220.2,-38.7 -430.9,-81.3 -631,-127.5 -851.9,-196.7 -1509.1,-458.3 -1877.1,-757.9 -163.07,-132.7 -269.3,-273 -310.73,-418.4 -13.01,48.9 -19.6,98.4 -19.6,148.4 0,133.4 47.02,263.5 136.38,388.8 249.54,350.2 829.05,662.9 1634.65,906.5 183.7,55.6 379.1,107.5 585.2,155.5 1011.6,235.8 2277.1,376 3650.2,376 292.2,0 579.7,-6.3 860.7,-18.6 300.7,-13.2 594.3,-33 878.9,-59.2 497.1,-45.7 967.1,-110.5 1400.7,-191.5 1719.4,-321.4 2866,-898.7 2866,-1557.5"
         style="fill:#c9840a;fill-opacity:1;fill-rule:nonzero;stroke:none"
         id="path228" />
      <path
         d="m 21454.8,25897.1 c -2.8,-10.7 -5.9,-21.2 -9.3,-31.7 -51,-158.7 -168.8,-311.3 -344.7,-455.5 -105.2,-86.2 -231.1,-169.3 -376,-248.8 -774.3,-424.8 -2089.1,-745.9 -3662.1,-877.2 -247.7,-20.8 -501.8,-36.7 -761.2,-47.7 -272.4,-11.5 -550.6,-17.5 -833.4,-17.5 -903.7,0 -1760.7,60.7 -2529.4,169.4 -1913.6,270.7 -3280.2,838.8 -3457.43,1509 41.43,145.4 147.66,285.7 310.73,418.4 368,299.6 1025.2,561.2 1877.1,757.9 200.1,46.2 410.8,88.8 631,127.5 919.6,161.6 2005.3,254.9 3168,254.9 558.1,0 1098.4,-21.5 1611.2,-61.7 326.6,-25.7 641.9,-58.8 943.6,-99 h 0.1 c 589.3,-78.4 1126.3,-183 1591.8,-308.6 h 0.1 c 1035.6,-279.2 1718.2,-662 1839.9,-1089.4"
         style="fill:#efa90c;fill-opacity:1;fill-rule:nonzero;stroke:none"
         id="path230" />
      <path
         d="m 22435.4,25814.6 c 0,-1328.2 -3119.4,-2404.8 -6967.3,-2404.8 -3848,0 -6967.36,1076.6 -6967.36,2404.8 0,21.3 0.82,42.5 2.47,63.8 97.92,-1298.7 3178.79,-2341 6964.89,-2341 3786,0 6866.9,1042.3 6964.8,2341 1.6,-21.3 2.5,-42.5 2.5,-63.8"
         style="fill:#ffe755;fill-opacity:1;fill-rule:nonzero;stroke:none"
         id="path232" />
      <path
         d="m 18608.4,27603 c -433.6,81 -903.6,145.8 -1400.7,191.5 l -645.4,395.3 c 439.1,-23.9 864.4,-62 1272.2,-112.8 l 773.9,-474"
         style="fill:#ffe755;fill-opacity:1;fill-rule:nonzero;stroke:none"
         id="path234" />
      <path
         d="m 22242.2,25377.4 c -100.4,-144 -238.4,-282.8 -410,-415.4 l -731.4,447.9 c 175.9,144.2 293.7,296.8 344.7,455.5 l 796.7,-488"
         style="fill:#ffe755;fill-opacity:1;fill-rule:nonzero;stroke:none"
         id="path236" />
      <path
         d="m 13524,26451.3 -102.7,-0.3 -182,-239.4 c -18,-23.6 -34.5,-46.9 -49.5,-69.5 l 1191.6,-729.9 c 106.5,-3.2 219.6,-4.7 339.2,-4.6 h 16.4 l -51.3,-181.7 628.2,-384.8 h 293.4 l 24.1,319.5 -2107.4,1290.7"
         style="fill:#ffc515;fill-opacity:1;fill-rule:nonzero;stroke:none"
         id="path238" />
      <path
         d="m 15745.3,26188.6 c 127.4,-13.2 221.7,-32.6 282.5,-58.5 48.7,-20.7 81.8,-48 98.8,-82.1 21,26.2 30.7,57.1 29.1,92.6 l -15.7,335.1 c -2.8,59.6 -40.6,104 -112.2,134.5 -60.8,25.9 -155.1,45.3 -282.5,58.5 l -55.9,-740.2 c 12.4,0.8 24.5,1.7 36.4,2.7 l 19.5,257.4"
         style="fill:#c9840a;fill-opacity:1;fill-rule:nonzero;stroke:none"
         id="path240" />
      <path
         d="m 15080.2,27388.7 c -58.7,-14.5 -94.4,-37.2 -107.1,-68.6 l -50.1,-124 c -15.2,-37.7 3.8,-67.6 58,-89.1 47.2,-18.8 122.2,-31.8 224.8,-38.9 l 97.6,345.7 c -98.7,-4.3 -173,-12.6 -223.2,-25.1"
         style="fill:#c9840a;fill-opacity:1;fill-rule:nonzero;stroke:none"
         id="path242" />
      <path
         d="m 14092.3,26881.1 c -89.6,34.8 -136.7,79.9 -143.6,133.9 l -0.3,0.2 v -454.4 c -4,-40.6 12.4,-76.6 49.9,-107.7 l 625.7,2.2 -115.5,-286 c -33.3,-82.5 -18.1,-143.3 47.7,-180 16.8,-9.3 38,-17.7 63.3,-25.2 l 4.5,11.1 h -14.2 l 14.2,1.4 v 319.5 c 104.6,-12.8 222.4,-24.8 353.6,-36.3 l 132.4,469.2 c -527.1,41.3 -864,92.3 -1017.7,152.1"
         style="fill:#c9840a;fill-opacity:1;fill-rule:nonzero;stroke:none"
         id="path244" />
      <path
         d="m 16081.6,27314.2 c -1.4,35.9 -27.2,61.1 -76.9,76.3 -42.2,12.8 -109.9,21.3 -203,25.6 l -29.9,-395.4 c 519.5,-41.9 882.1,-92.3 1080.6,-152.2 55.3,-16.7 105.4,-36 150.5,-57.9 v 390.2 l -916.7,-4.7 -4.6,118.1"
         style="fill:#c9840a;fill-opacity:1;fill-rule:nonzero;stroke:none"
         id="path246" />
      <path
         d="m 14737,25407.6 h -16.4 c -783.8,-1 -1286.5,69.5 -1499.3,204.8 -85.4,54.2 -131.1,123.3 -139.9,205.2 l -1.7,0.9 v -459.6 h 0.2 c 2.7,-91.4 48.7,-167.8 141.4,-226.6 201.8,-128.3 664.5,-198.3 1380.3,-204.3 l 135.4,479.6"
         style="fill:#c9840a;fill-opacity:1;fill-rule:nonzero;stroke:none"
         id="path248" />
      <path
         d="m 17433.8,26025.8 c -0.2,-159.5 -94,-292.1 -290.2,-389.8 -277.7,-138.5 -780,-216.2 -1493.4,-226.4 l -42.9,-568.5 h -99.2 -832.2 -3.6 -95.2 v 0 -480.1 0 h 98.8 832.2 40.5 58.7 l 42.9,568.5 c 713.4,10.2 1215.7,87.9 1493.4,226.4 191.4,95.3 285.2,223.8 290,378.1 h 0.3 v 492 l -0.1,-0.2"
         style="fill:#c9840a;fill-opacity:1;fill-rule:nonzero;stroke:none"
         id="path250" />
      <path
         d="m 16328.8,27853.7 c -281,12.3 -568.5,18.6 -860.7,18.6 -1373.1,0 -2638.6,-140.2 -3650.2,-376 l -435,266.5 c 1147.8,287.2 2559.2,456.5 4085.2,456.5 89.2,0 178.1,-0.5 266.5,-1.7 l 594.2,-363.9"
         style="fill:#ffe755;fill-opacity:1;fill-rule:nonzero;stroke:none"
         id="path252" />
      <path
         d="m 21457.1,24712.7 c -787,-455.8 -1998.3,-814.1 -3445.6,-1009.9 l -948.8,581.1 c 1573,131.3 2887.8,452.4 3662.1,877.2 l 732.3,-448.4"
         style="fill:#ffe755;fill-opacity:1;fill-rule:nonzero;stroke:none"
         id="path254" />
      <path
         d="m 16041.4,25988.7 c -70.3,-29.1 -187.8,-49.2 -352,-60.2 l 55.9,740.2 c 127.4,-13.2 221.7,-32.6 282.4,-58.5 71.7,-30.5 109.5,-75 112.3,-134.5 l 15.6,-335.1 c 3.3,-67.7 -34.5,-118.8 -114.2,-151.9 z m -835.7,1079.4 c -102.5,7.1 -177.5,20.1 -224.7,38.9 -54.2,21.5 -73.2,51.4 -58,89.2 l 50.1,123.9 c 12.7,31.4 48.4,54.1 107.1,68.6 50.2,12.4 124.6,20.8 223.1,25.1 z m 2187.8,-847.7 -128.9,329.2 c -58.9,150.4 -197.5,254.1 -412.2,318.9 -198.5,59.8 -561.1,110.3 -1080.5,152.2 l 29.8,395.3 c 93,-4.2 160.8,-12.6 203,-25.6 49.7,-15.1 75.5,-40.3 76.9,-76.1 l 4.6,-118.2 916.7,4.7 -39.4,101.4 c -47.4,121.8 -152.7,195.9 -315.4,230.2 -152.2,32.1 -429.6,48 -834,48.6 l 8.3,109.9 -42.5,-0.3 -353.9,-2.2 -45.2,-0.3 -31.1,-110.2 c -378.8,-7.8 -657.2,-31.1 -838.3,-70.6 -194.8,-42.5 -333.9,-117.1 -417.6,-229.9 L 13994,27143 c -84,-113.2 -54.8,-202.4 98.4,-261.9 153.6,-59.8 490.5,-110.8 1017.7,-152.1 l -226.7,-802.9 c -159.8,9.6 -268.9,30.8 -327.2,63.2 -65.8,36.7 -81,97.5 -47.7,180 l 115.5,286 -1100,-4 2107.4,-1290.7 18.8,249 c 713.4,10.1 1215.7,87.9 1493.5,226.3 271.2,135.2 346.8,336.8 249.8,584.5"
         style="fill:#ffe755;fill-opacity:1;fill-rule:nonzero;stroke:none"
         id="path256" />
      <path
         d="m 11232.7,27340.8 c -805.6,-243.6 -1385.11,-556.3 -1634.65,-906.5 l -535.4,327.9 c 400.75,322.4 999.65,608.3 1743.85,839.6 l 426.2,-261"
         style="fill:#ffe755;fill-opacity:1;fill-rule:nonzero;stroke:none"
         id="path258" />
      <path
         d="m 17304.5,23621.9 c -585.1,-55.1 -1200.8,-84.5 -1836.4,-84.5 -408.6,0 -809,12.1 -1198.3,35.5 l -1331.1,815.2 c 768.7,-108.7 1625.7,-169.4 2529.4,-169.4 282.8,0 561,6 833.4,17.5 l 1003,-614.3"
         style="fill:#ffe755;fill-opacity:1;fill-rule:nonzero;stroke:none"
         id="path260" />
      <path
         d="m 14381.4,25412.2 c -591.3,17.5 -979.7,85.5 -1160.1,200.2 -181.8,115.4 -184.3,298.2 -31.5,529.7 l 1191.6,-729.9"
         style="fill:#ffe755;fill-opacity:1;fill-rule:nonzero;stroke:none"
         id="path262" />
      <path
         d="M 15313.9,24841.1 H 14577 l 108.7,384.8 z"
         style="fill:#ffe755;fill-opacity:1;fill-rule:nonzero;stroke:none"
         id="path264" />
      <path
         d="m 27932.5,16568.2 -1595.7,-1295.1 c -317.3,337.9 -633,699 -942.6,1080.5 -528.8,651.4 -995.9,1308.3 -1392.4,1945.8 l 1595.7,1295.2 c 396.5,-637.6 863.7,-1294.4 1392.4,-1945.9 309.6,-381.4 625.3,-742.5 942.6,-1080.5"
         style="fill:#ecaf12;fill-opacity:1;fill-rule:nonzero;stroke:none"
         id="path266" />
      <path
         d="m 31650.6,12461.3 c -418.6,-339.7 -1128.6,-254.5 -1986.7,166.3 l 1595.1,1294.7 c 796.6,-391.2 1465.8,-493.4 1892.8,-235.1 l -1428.6,-1159.5 c -22.9,-23.5 -47.1,-45.6 -72.6,-66.4"
         style="fill:#ecaf12;fill-opacity:1;fill-rule:nonzero;stroke:none"
         id="path268" />
      <path
         d="m 25597.5,19594.6 -1595.7,-1295.2 c -1421.5,2285.3 -1935.9,4323 -1129.6,4977.4 l 1514.2,1229.1 2.7,-3.3 c -693.1,-721.5 -165.9,-2699.1 1208.4,-4908"
         style="fill:#f9be15;fill-opacity:1;fill-rule:nonzero;stroke:none"
         id="path270" />
      <path
         d="M 29850.9,14815.9 28255.4,13521 c -621.4,473.1 -1273.4,1064.9 -1918.6,1752.1 l 1595.7,1295.1 c 645.1,-687.1 1297,-1279 1918.4,-1752.3"
         style="fill:#f9be15;fill-opacity:1;fill-rule:nonzero;stroke:none"
         id="path272" />
      <path
         d="m 31259,13922.3 -1595.1,-1294.7 c -437.3,214.5 -913.2,516.3 -1408.5,893.4 l 1595.5,1294.9 c 495.1,-377.1 970.8,-679 1408.1,-893.6"
         style="fill:#ffd800;fill-opacity:1;fill-rule:nonzero;stroke:none"
         id="path274" />
      <path
         d="m 31993.5,14455.3 113.2,-850.1 c -136.8,32.1 -280.4,77.1 -430,134.1 l -113.3,851.1 c -817.8,333.5 -1895.7,1152.1 -2988.9,2290.6 l 146.7,-1102.8 c -169.1,158.9 -338.8,324.9 -508.4,497.9 l -155.1,1165.9 c -180.6,204.2 -360.5,416.5 -538.8,636.1 -569.4,701.6 -1062.4,1405.3 -1462.4,2070.6 l 205.8,-1547.2 c -1878.5,2619.9 -2688.4,5132.4 -1844,5930.3 258.1,179 613.9,214 1038.9,122.6 l 82.7,-622.4 c 429.2,27 1037.2,-226 1734,-697.9 l -65.9,495.5 c 160,-106.6 322.9,-222.1 488.2,-346.2 l 67.3,-505.6 c 820.6,-636.9 1726.9,-1531.2 2592.2,-2597.2 184.2,-227 360.4,-454.1 528,-680.1 l -91.9,690.7 c 173.9,-220 340.7,-440.4 500,-660.2 l 99.8,-750.2 c 277.8,-414.8 523.7,-820.5 734,-1208.2 l -119.6,899.6 c 1401.9,-2246.9 1929.7,-4257.8 1190.7,-4956 -141.8,-98.4 -313.1,-153.2 -509.1,-167.6 l -123.2,926.1 c -155.3,-60.3 -348.1,-65.1 -570.9,-19.4"
         style="fill:#ffc515;fill-opacity:1;fill-rule:nonzero;stroke:none"
         id="path276" />
      <path
         d="m 32722.5,14565.7 c -38.9,-31.5 -81.4,-57.6 -127.6,-78.3 255.1,363.9 122.2,1135.2 -313.7,2115.1 -195.9,440.7 -453,923.5 -763.6,1430.5 -158.9,259.6 -331.9,525.4 -517.9,795.2 -291.8,423.5 -615.6,856.5 -967.4,1289.9 -732.7,902.8 -1489.3,1686.9 -2194.3,2299.1 -168.8,146.5 -334.7,283.3 -496.6,409.6 -689.7,537.5 -1306.9,882.8 -1771.5,979.8 -205.8,42.9 -381.6,37 -520.7,-22.4 29.8,40.9 64.1,77.2 102.9,108.7 103.6,84.1 234.3,129.6 387.8,139.1 429.2,27 1037.2,-226 1734,-697.9 158.9,-107.6 322.4,-226.6 489.6,-356.3 820.6,-636.9 1726.9,-1531.2 2592.2,-2597.2 184.2,-227 360.4,-454.1 528,-680.1 179.3,-241.8 348.9,-482.2 507.9,-719.7 277.8,-414.8 523.7,-820.5 734,-1208.2 834.1,-1537.6 1108.4,-2791.7 596.9,-3206.9"
         style="fill:#c9840a;fill-opacity:1;fill-rule:nonzero;stroke:none"
         id="path278" />
      <path
         d="m 32594.9,14487.4 c -10,-4.5 -20.2,-8.7 -30.5,-12.7 -155.3,-60.3 -348.1,-65.1 -570.9,-19.4 -133.2,27.3 -277.1,72.7 -430.1,135.1 -817.8,333.5 -1895.7,1152.1 -2988.9,2290.6 -172.3,179.3 -344.8,366.5 -516.8,561 -180.6,204.2 -360.5,416.5 -538.8,636.1 -569.4,701.6 -1062.4,1405.3 -1462.4,2070.6 -995.8,1656.4 -1416,3075.5 -1007.3,3635.5 139.1,59.4 314.9,65.3 520.7,22.4 464.6,-97 1081.8,-442.3 1771.5,-979.8 161.9,-126.3 327.8,-263.1 496.6,-409.6 705,-612.2 1461.6,-1396.3 2194.3,-2299.1 351.8,-433.4 675.6,-866.4 967.4,-1289.9 186,-269.8 358.9,-535.5 517.9,-795.1 v -0.1 c 310.6,-506.9 567.7,-989.8 763.6,-1430.4 v -0.1 c 435.9,-979.9 568.8,-1751.2 313.7,-2115.1"
         style="fill:#efa90c;fill-opacity:1;fill-rule:nonzero;stroke:none"
         id="path280" />
      <path
         d="m 33148.7,13674.1 c -1031.2,-837 -3833,906.5 -6257.9,3894.2 -2424.9,2987.7 -3554.8,6088.2 -2523.6,6925.2 16.6,13.4 33.6,26.2 51.1,38.3 -946.6,-894.5 185.7,-3943.4 2571.6,-6883.1 2386,-2939.6 5136.8,-4674.8 6206.8,-3932.5 -15.4,-14.6 -31.4,-28.7 -48,-42.1"
         style="fill:#ffe755;fill-opacity:1;fill-rule:nonzero;stroke:none"
         id="path282" />
      <path
         d="m 32125.6,17772.6 c -210.3,387.7 -456.2,793.4 -734,1208.2 l -99.8,750.2 c 258.1,-355.9 496.7,-710.2 714.2,-1058.8 l 119.6,-899.6"
         style="fill:#ffe755;fill-opacity:1;fill-rule:nonzero;stroke:none"
         id="path284" />
      <path
         d="m 32687.6,13548.6 c -175.1,-12.8 -369.8,6.9 -580.9,56.6 l -113.2,850.1 c 222.8,-45.7 415.6,-40.9 570.9,19.4 l 123.2,-926.1"
         style="fill:#ffe755;fill-opacity:1;fill-rule:nonzero;stroke:none"
         id="path286" />
      <path
         d="m 28027.2,20994.5 -64.9,79.6 -300.6,-9.6 c -29.7,-0.9 -58.1,-2.8 -85.1,-5.4 l 184.2,-1385.2 c 64.7,-84.7 134.7,-173.5 210.2,-266.2 l 10.3,-12.7 -173.4,-74.7 97.1,-730.3 184.9,-227.8 263.3,182.6 -326,2449.7"
         style="fill:#ffc515;fill-opacity:1;fill-rule:nonzero;stroke:none"
         id="path288" />
      <path
         d="m 29223.1,19104.3 c 70,-107.3 114.4,-192.7 132.6,-256.2 14.7,-51 14.3,-93.8 -1.4,-128.5 33.5,0.2 63.6,12.1 90.1,35.7 l 250.4,223.4 c 44.5,39.7 55.2,97.1 33.7,171.9 -18.3,63.5 -62.6,149 -132.6,256.2 l -610,-423.1 c 8.5,-9.1 16.8,-17.9 25.1,-26.6 l 212.1,147.2"
         style="fill:#c9840a;fill-opacity:1;fill-rule:nonzero;stroke:none"
         id="path290" />
      <path
         d="m 29735.8,20376.9 c -48.3,36.4 -88.4,49.9 -120.7,40 l -127.9,-39.3 c -38.8,-11.9 -50.1,-45.5 -32.7,-101.2 15.2,-48.4 52.4,-114.9 111.5,-199 l 329.9,142.1 c -65.5,73.8 -118.8,126.3 -160.1,157.4"
         style="fill:#c9840a;fill-opacity:1;fill-rule:nonzero;stroke:none"
         id="path292" />
      <path
         d="m 28719.1,20824.1 c -29.4,91.5 -24.2,156.5 13.5,195.9 v 0.3 l -352.9,-286.4 c -34,-22.4 -51.6,-57.8 -52.2,-106.5 l 396,-484.4 -294.8,-90.6 c -85,-26.1 -122.6,-76.3 -109.6,-150.5 3.3,-19 10.1,-40.7 20.2,-65 l 11.5,3.5 -9,11 10,-10.1 248.1,201.3 c 56.1,-89.2 120.9,-188.3 194.7,-297.4 l 447.8,192.8 c -300.1,435.4 -472.9,729.1 -523.3,886.1"
         style="fill:#c9840a;fill-opacity:1;fill-rule:nonzero;stroke:none"
         id="path294" />
      <path
         d="m 30309,19552.5 c 27,23.7 30.3,59.6 10.8,107.7 -16.6,40.9 -52.7,98.9 -108.1,173.8 l -325.8,-225.9 c 294.9,-429.8 484.2,-743.2 562.8,-935 21.9,-53.4 38.5,-104.5 49.9,-153.4 l 303,246 -581.4,708.8 88.8,78"
         style="fill:#c9840a;fill-opacity:1;fill-rule:nonzero;stroke:none"
         id="path296" />
      <path
         d="m 27981.3,19395 -10.3,12.7 c -494.7,607.9 -756.8,1042.7 -785.9,1293.1 -11.7,100.5 13.1,179.5 71.2,238 l -0.3,1.9 -356.9,-289.7 0.1,-0.1 c -69.3,-59.7 -99.6,-143.5 -86.9,-252.6 27.7,-237.6 264.9,-640.9 711.3,-1200.5 l 457.7,197.2"
         style="fill:#c9840a;fill-opacity:1;fill-rule:nonzero;stroke:none"
         id="path298" />
      <path
         d="m 30160.9,17690.6 c -124.1,-100.4 -286.1,-111.1 -485.6,-20.3 -282.6,128.3 -659.5,469.4 -1116.9,1016.8 l -468.5,-324.9 -62.6,77 -524.4,646.1 -2.2,2.9 -60.1,73.9 v 0 l -372.7,-302.6 v 0 l 62.3,-76.7 524.4,-646.1 25.5,-31.5 37,-45.6 468.5,325 c 457.4,-547.5 834.3,-888.5 1116.9,-1016.9 194.6,-88.5 353.5,-80.4 476.3,13.2 l 0.2,-0.3 382,310.1 -0.1,-0.1"
         style="fill:#c9840a;fill-opacity:1;fill-rule:nonzero;stroke:none"
         id="path300" />
      <path
         d="m 30883.7,19700.5 c -167.6,226 -343.8,453.1 -528,680.1 -865.3,1066 -1771.6,1960.3 -2592.2,2597.2 l -67.3,505.6 c 946.4,-710.1 1967.3,-1699.3 2929,-2884.1 56.2,-69.4 111.8,-138.7 166.6,-208.1 l 91.9,-690.7"
         style="fill:#ffe755;fill-opacity:1;fill-rule:nonzero;stroke:none"
         id="path302" />
      <path
         d="m 31676.7,13739.3 c -849.9,323.8 -1891.4,1038.5 -2955.5,2038.9 l -146.7,1102.8 c 1093.2,-1138.5 2171.1,-1957.1 2988.9,-2290.6 l 113.3,-851.1"
         style="fill:#ffe755;fill-opacity:1;fill-rule:nonzero;stroke:none"
         id="path304" />
      <path
         d="m 29254.6,18748.4 c -67,36.2 -156.6,114.7 -268.6,235.3 l 609.8,423.1 c 70.1,-107.2 114.4,-192.7 132.7,-256.2 21.5,-74.8 10.7,-132.2 -33.7,-171.9 l -250.3,-223.3 c -50.6,-45.2 -114.1,-48 -189.9,-7 z m 311.4,1329 c -59.1,84.1 -96.3,150.5 -111.5,199 -17.4,55.7 -6.2,89.3 32.7,101.2 l 127.8,39.3 c 32.4,9.9 72.6,-3.5 120.8,-40 41.3,-31.1 94.6,-83.6 160.1,-157.4 z m 720.5,-2232.9 174.4,307.5 c 79.7,140.7 72.8,313.6 -12.2,521.1 -78.6,191.8 -267.9,505.2 -562.7,934.9 l 325.7,226 c 55.4,-74.9 91.5,-132.9 108,-173.8 19.6,-48.1 16.3,-84 -10.6,-107.7 l -88.9,-78.1 581.4,-708.7 53.9,94.5 c 64.6,113.5 55.8,242 -20,389.9 -71.1,138.5 -233.5,363.9 -487.9,678.2 l 90.6,62.8 -27,32.8 -224.8,273.4 -28.6,34.9 -105.3,-45.3 c -244.8,289.2 -438.3,490.7 -583.1,606.4 -155.7,124.5 -301.3,185.4 -441.7,179.4 l -167.2,-7.2 c -140.9,-6.1 -191.7,-85 -141.4,-241.5 50.4,-156.9 223.1,-450.6 523.3,-886 l -766.2,-330 c -93.3,130.1 -145.6,228.2 -157.2,293.9 -12.9,74.2 24.7,124.4 109.7,150.4 l 294.8,90.6 -696.3,851.6 326,-2449.7 205.2,142.3 c 457.4,-547.5 834.3,-888.5 1116.8,-1016.9 275.9,-125.3 480.1,-57.1 611.3,174.3"
         style="fill:#ffe755;fill-opacity:1;fill-rule:nonzero;stroke:none"
         id="path306" />
      <path
         d="m 27273.9,23334.1 c -696.8,471.9 -1304.8,724.9 -1734,697.9 l -82.7,622.4 c 502.8,-108 1102.2,-392.8 1750.8,-824.8 l 65.9,-495.5"
         style="fill:#ffe755;fill-opacity:1;fill-rule:nonzero;stroke:none"
         id="path308" />
      <path
         d="m 28212.8,16276.1 c -411.4,419.5 -822.3,879.1 -1222.9,1372.6 -257.5,317.3 -500.4,635.8 -727.6,952.8 l -205.8,1547.2 c 400,-665.3 893,-1369 1462.4,-2070.6 178.3,-219.6 358.2,-431.9 538.8,-636.1 l 155.1,-1165.9"
         style="fill:#ffe755;fill-opacity:1;fill-rule:nonzero;stroke:none"
         id="path310" />
      <path
         d="m 27760.8,19673.9 c -359,470.2 -551,814.6 -575.7,1026.9 -24.9,214 115.4,331.1 391.5,358.3 l 184.2,-1385.2"
         style="fill:#ffe755;fill-opacity:1;fill-rule:nonzero;stroke:none"
         id="path312" />
      <path
         d="m 27905,18590 -464.3,572.1 367.2,158.2 z"
         style="fill:#ffe755;fill-opacity:1;fill-rule:nonzero;stroke:none"
         id="path314" />
      <path
         d="m 10078.9,25848.4 c 0,-675.8 -394.02,-1223.5 -880.08,-1223.5 486.06,0 880.08,-547.8 880.08,-1223.5 0,675.7 394,1223.5 880.1,1223.5 -486.1,0 -880.1,547.7 -880.1,1223.5"
         style="fill:#ffffff;fill-opacity:1;fill-rule:nonzero;stroke:none"
         id="path316" />
      <path
         d="m 9273.82,26395.1 c 0,-376.3 -219.45,-681.4 -490.16,-681.4 270.71,0 490.16,-305.1 490.16,-681.4 0,376.3 219.46,681.4 490.17,681.4 -270.71,0 -490.17,305.1 -490.17,681.4"
         style="fill:#ffffff;fill-opacity:1;fill-rule:nonzero;stroke:none"
         id="path318" />
      <path
         d="m 25517,19933.5 c 0,632.4 -368.8,1145.2 -823.8,1145.2 455,0 823.8,512.7 823.8,1145.2 0,-632.5 368.8,-1145.2 823.8,-1145.2 -455,0 -823.8,-512.8 -823.8,-1145.2"
         style="fill:#ffffff;fill-opacity:1;fill-rule:nonzero;stroke:none"
         id="path320" />
      <path
         d="m 24722.6,19386.7 c 0,341.3 -199.1,618 -444.6,618 245.5,0 444.6,276.7 444.6,618 0,-341.3 199,-618 444.5,-618 -245.5,0 -444.5,-276.7 -444.5,-618"
         style="fill:#ffffff;fill-opacity:1;fill-rule:nonzero;stroke:none"
         id="path322" />
      <path
         d="m 13327.2,18003.8 c 0,-632.4 -368.9,-1145.2 -823.8,-1145.2 454.9,0 823.8,-512.7 823.8,-1145.2 0,632.5 368.8,1145.2 823.7,1145.2 -454.9,0 -823.7,512.8 -823.7,1145.2"
         style="fill:#ffffff;fill-opacity:1;fill-rule:nonzero;stroke:none"
         id="path324" />
    </g>
  </g>
</svg>
