<svg
xmlns="http://www.w3.org/2000/svg"
width="333.333"
height="333.333"
version="1.1"
viewBox="0 0 333.333 333.333"
>
<g transform="matrix(1.33333 0 0 -1.33333 0 5333.333)">
  <g
    fillOpacity="1"
    fillRule="nonzero"
    stroke="none"
    transform="scale(.1)"
  >
    <path fill="#fff" d="M40000 0H0v40000h40000V0"></path>
    <path
      fill="#e5e5e5"
      d="M36941.3 14123.2c0-1864.7-6332.7-3417.8-14144.4-3468.8-7811.8-51-14144.52 1419.2-14144.52 3283.9S14985.1 17356 22796.9 17407.1c7811.7 51 14144.4-1419.2 14144.4-3283.9"
    ></path>
    <path
      fill="#ecaf12"
      d="M16776 13886.7v-2055.1c-462.4-33.4-941.8-50.9-1433-50.9-839 0-1643.4 51.2-2388.3 145.1V13981c744.9-94 1549.3-145.2 2388.3-145.2 491.2 0 970.6 17.6 1433 50.9"
    ></path>
    <path
      fill="#ecaf12"
      d="M22307.8 14185.4c0-539-513.6-1036.6-1381.1-1437.6v2054.3c805.8 372 1306.8 827.2 1375.4 1321.5v-1839.9c3.8-32.5 5.7-65.3 5.7-98.3"
    ></path>
    <path
      fill="#f9be15"
      d="M12954.7 13981v-2055.2c-2670.3 336.5-4576.55 1221.2-4576.55 2259.6v1950.3h4.2c123.46-992.9 1991.25-1829.8 4572.35-2154.7"
    ></path>
    <path
      fill="#f9be15"
      d="M19345.5 14272v-2054.9c-759-184.3-1629.4-317.6-2569.5-385.5v2055.1c940 67.9 1810.4 201.1 2569.5 385.3"
    ></path>
    <path
      fill="#ffd800"
      d="M20926.7 14802.1v-2054.3c-442.1-204.4-976.3-383.7-1581.2-530.7V14272c604.8 146.8 1139 325.9 1581.2 530.1"
    ></path>
    <path
      fill="#ffc515"
      d="M20975.7 15708.4l731.4-448c-111.2-85.9-236.6-169-375.1-249.3l-732.2 448.5c-774.3-424.9-2089.1-745.9-3662.1-877.3l948.7-581.1c-229.9-31.1-465.8-58.2-707-80.9l-1003 614.3c-272.3-11.5-550.6-17.4-833.4-17.4-903.6 0-1760.6 60.7-2529.3 169.4l1331-815.3c-3218 192.5-5679.17 1147-5766.55 2305.5 23.64 313.2 220.72 611.5 559.45 883.9l535.39-328c249.54 350.2 829.11 662.9 1634.61 906.5l-426.2 261.1c183.6 57.1 376 110.7 576.4 160.9l435-266.4c1011.7 235.8 2277.2 375.9 3650.2 375.9 292.3 0 579.7-6.3 860.8-18.6l-594.2 364c280.4-3.7 556.6-13.1 827.7-27.9l645.3-395.3c497.2-45.6 967.2-110.4 1400.7-191.5l-773.9 474.1c2628.1-327.5 4522-1185 4598.4-2198.7-12.9-172.1-78.3-339.7-190.7-501l-796.6 488c-51.1-158.6-168.9-311.3-344.8-455.4"
    ></path>
    <path
      fill="#c9840a"
      d="M21349.4 16343.9c0-50-6.6-99.5-19.6-148.4-121.7 427.4-804.4 810.2-1839.9 1089.4-465.7 125.6-1002.6 230.3-1592 308.6-301.6 40.2-617.1 73.4-943.7 99-512.7 40.3-1053.1 61.8-1611.2 61.8-1162.7 0-2248.3-93.3-3167.9-254.9-220.2-38.7-431-81.3-631-127.5-852-196.8-1509.1-458.3-1877.16-757.9-163.06-132.8-269.3-273-310.73-418.5-13.01 48.9-19.6 98.4-19.6 148.4 0 133.4 47.03 263.6 136.38 388.8 249.54 350.2 829.11 662.9 1634.61 906.5 183.7 55.6 379.2 107.6 585.2 155.6 1011.7 235.8 2277.2 375.9 3650.2 375.9 292.3 0 579.7-6.3 860.8-18.6 300.7-13.2 594.3-33 878.8-59.2 497.2-45.6 967.2-110.4 1400.7-191.5 1719.4-321.3 2866.1-898.6 2866.1-1557.5"
    ></path>
    <path
      fill="#efa90c"
      d="M21329.8 16195.5c-2.8-10.6-6-21.2-9.3-31.7-51.1-158.6-168.9-311.3-344.8-455.4-105.1-86.2-231.1-169.3-375.9-248.8-774.3-424.9-2089.1-745.9-3662.1-877.3-247.8-20.7-501.8-36.7-761.3-47.7-272.3-11.5-550.6-17.4-833.4-17.4-903.6 0-1760.6 60.7-2529.3 169.4-1913.6 270.6-3280.26 838.7-3457.49 1508.9 41.43 145.5 147.67 285.7 310.73 418.5 368.06 299.6 1025.16 561.1 1877.16 757.9 200 46.2 410.8 88.8 631 127.5 919.6 161.6 2005.2 254.9 3167.9 254.9 558.1 0 1098.5-21.5 1611.2-61.8 326.6-25.6 642-58.8 943.6-99h.1c589.4-78.3 1126.3-183 1591.9-308.6h.1c1035.5-279.2 1718.2-662 1839.9-1089.4"
    ></path>
    <path
      fill="#ffe755"
      d="M22310.3 16113c0-1328.2-3119.4-2404.8-6967.3-2404.8S8375.68 14784.8 8375.68 16113c0 21.3.83 42.6 2.47 63.8 97.92-1298.7 3178.75-2341 6964.85-2341 3786.1 0 6866.9 1042.3 6964.8 2341 1.7-21.2 2.5-42.5 2.5-63.8"
    ></path>
    <path
      fill="#ffe755"
      d="M18483.3 17901.4c-433.5 81.1-903.5 145.9-1400.7 191.5l-645.3 395.3c439-23.9 864.4-61.9 1272.1-112.7l773.9-474.1"
    ></path>
    <path
      fill="#ffe755"
      d="M22117.1 15675.8c-100.4-143.9-238.3-282.8-410-415.4l-731.4 448c175.9 144.1 293.7 296.8 344.8 455.4l796.6-488"
    ></path>
    <path
      fill="#ffc515"
      d="M13398.9 16749.8l-102.7-.4-182-239.4c-18-23.6-34.4-46.8-49.4-69.5l1191.6-729.9c106.5-3.1 219.6-4.7 339.1-4.5h16.4l-51.3-181.8 628.2-384.8h293.5l24.1 319.5-2107.5 1290.8"
    ></path>
    <path
      fill="#c9840a"
      d="M15620.2 16487c127.4-13.2 221.7-32.6 282.5-58.4 48.8-20.8 81.8-48 98.9-82.1 21 26.1 30.7 57 29 92.5l-15.7 335.1c-2.8 59.6-40.5 104.1-112.2 134.5-60.8 25.9-155.1 45.3-282.5 58.5l-55.9-740.2c12.5.9 24.6 1.8 36.5 2.7l19.4 257.4"
    ></path>
    <path
      fill="#c9840a"
      d="M14955.2 17687.2c-58.7-14.6-94.5-37.3-107.2-68.6l-50-124c-15.2-37.7 3.8-67.6 58-89.2 47.1-18.7 122.1-31.8 224.7-38.9l97.6 345.7c-98.6-4.3-172.9-12.6-223.1-25"
    ></path>
    <path
      fill="#c9840a"
      d="M13967.3 17179.5c-89.7 34.9-136.8 79.9-143.7 133.9l-.2.2v-454.4c-4-40.5 12.4-76.6 49.8-107.7l625.7 2.2-115.5-286c-33.3-82.5-18.1-143.2 47.8-179.9 16.8-9.4 37.9-17.8 63.2-25.3l4.5 11.1h-14.2l14.2 1.4v319.5c104.6-12.7 222.4-24.8 353.6-36.2l132.5 469.1c-527.2 41.3-864.1 92.3-1017.7 152.1"
    ></path>
    <path
      fill="#c9840a"
      d="M15956.5 17612.7c-1.4 35.8-27.2 61-76.9 76.2-42.2 12.9-109.9 21.4-203 25.6l-29.8-395.3c519.4-41.9 882.1-92.4 1080.5-152.3 55.3-16.6 105.4-35.9 150.5-57.9v390.3l-916.7-4.8-4.6 118.2"
    ></path>
    <path
      fill="#c9840a"
      d="M14612 15706.1l-16.5-.1c-783.8-.9-1286.4 69.6-1499.3 204.8-85.3 54.2-131 123.3-139.8 205.2l-1.7 1v-459.7h.2c2.6-91.3 48.6-167.7 141.3-226.6 201.9-128.2 664.6-198.2 1380.3-204.3l135.5 479.7"
    ></path>
    <path
      fill="#c9840a"
      d="M17308.8 16324.3c-.2-159.6-94-292.1-290.2-389.9-277.8-138.5-780.1-216.2-1493.4-226.4l-42.9-568.5H14452v-480.1h1030.3l42.9 568.5c713.3 10.2 1215.6 87.9 1493.4 226.4 191.3 95.4 285.2 223.8 289.9 378.1h.3v492-.1"
    ></path>
    <path
      fill="#ffe755"
      d="M16203.8 18152.1c-281.1 12.3-568.5 18.6-860.8 18.6-1373 0-2638.5-140.1-3650.2-375.9l-435 266.4c1147.8 287.3 2559.2 456.6 4085.2 456.6 89.3 0 178.1-.6 266.6-1.7l594.2-364"
    ></path>
    <path
      fill="#ffe755"
      d="M21332 15011.1c-787-455.8-1998.3-814-3445.6-1009.9l-948.7 581.1c1573 131.4 2887.8 452.4 3662.1 877.3l732.2-448.5"
    ></path>
    <path
      fill="#ffe755"
      d="M15916.4 16287.2c-70.4-29.2-187.8-49.3-352-60.2l55.8 740.1c127.4-13.2 221.7-32.6 282.5-58.5 71.6-30.4 109.4-74.9 112.2-134.5l15.7-335.1c3.2-67.7-34.6-118.7-114.2-151.8zm-835.7 1079.3c-102.5 7.1-177.6 20.1-224.8 38.9-54.1 21.6-73.2 51.5-57.9 89.2l50 123.9c12.7 31.4 48.5 54.1 107.2 68.6 50.1 12.5 124.5 20.8 223.1 25.2zm2187.8-847.7l-128.9 329.2c-59 150.5-197.6 254.2-412.3 318.9-198.5 59.9-561.1 110.4-1080.5 152.3l29.8 395.3c93.1-4.2 160.9-12.7 203-25.6 49.8-15.2 75.5-40.4 76.9-76.2l4.7-118.2 916.7 4.8-39.5 101.4c-47.3 121.7-152.7 195.8-315.3 230.2-152.3 32.1-429.7 48-834 48.5l8.3 109.9-42.5-.2-354-2.3-45.1-.2-31.2-110.3c-378.8-7.8-657.2-31-838.3-70.6-194.7-42.5-333.8-117.1-417.6-229.9l-99.8-134.3c-84-113.3-54.8-202.5 98.4-262 153.6-59.8 490.5-110.8 1017.7-152l-226.7-802.9c-159.7 9.5-268.8 30.7-327.2 63.1-65.8 36.8-81 97.6-47.6 180l115.4 286-1100-3.9 2107.5-1290.8 18.8 249c713.3 10.2 1215.6 87.9 1493.4 226.4 271.2 135.2 346.8 336.7 249.9 584.4"
    ></path>
    <path
      fill="#ffe755"
      d="M11107.6 17639.2c-805.5-243.6-1385.07-556.3-1634.61-906.5l-535.39 328c400.74 322.3 999.63 608.2 1743.8 839.6l426.2-261.1"
    ></path>
    <path
      fill="#ffe755"
      d="M17179.4 13920.3c-585-55-1200.8-84.5-1836.4-84.5-408.6 0-809 12.2-1198.3 35.5l-1331 815.3c768.7-108.7 1625.7-169.4 2529.3-169.4 282.8 0 561.1 5.9 833.4 17.4l1003-614.3"
    ></path>
    <path
      fill="#ffe755"
      d="M14256.4 15710.6c-591.3 17.5-979.8 85.6-1160.2 200.2-181.8 115.5-184.3 298.2-31.4 529.7l1191.6-729.9"
    ></path>
    <path fill="#ffe755" d="M15188.8 15139.5H14452l108.6 384.8z"></path>
    <path
      fill="#ecaf12"
      d="M19436.7 16339.2v-2055.1c-462.4-33.5-941.7-51-1432.9-51-839.1 0-1643.5 51.2-2388.4 145.1v2055.2c744.9-94 1549.3-145.1 2388.4-145.1 491.2 0 970.5 17.5 1432.9 50.9"
    ></path>
    <path
      fill="#ecaf12"
      d="M24968.6 16637.9c0-539-513.7-1036.6-1381.1-1437.7v2054.4c805.8 372 1306.7 827.1 1375.3 1321.4v-1839.9c3.8-32.5 5.8-65.3 5.8-98.2"
    ></path>
    <path
      fill="#f9be15"
      d="M15615.4 16433.4v-2055.2c-2670.2 336.5-4576.5 1221.3-4576.5 2259.7v1950.2h4.2c123.5-992.8 1991.2-1829.7 4572.3-2154.7"
    ></path>
    <path
      fill="#f9be15"
      d="M22006.2 16724.4v-2054.8c-758.9-184.3-1629.4-317.7-2569.5-385.5v2055.1c940.1 67.8 1810.5 201 2569.5 385.2"
    ></path>
    <path
      fill="#ffd800"
      d="M23587.5 17254.6v-2054.4c-442.2-204.4-976.3-383.7-1581.3-530.6v2054.8c604.9 146.8 1139 325.9 1581.3 530.2"
    ></path>
    <path
      fill="#ffc515"
      d="M23636.5 18160.8l731.4-447.9c-111.2-85.9-236.6-169.1-375.1-249.3l-732.3 448.4c-774.3-424.9-2089.1-745.9-3662.1-877.2l948.7-581.2c-229.9-31.1-465.8-58.2-706.9-80.8l-1003 614.3c-272.4-11.6-550.6-17.5-833.4-17.5-903.7 0-1760.7 60.7-2529.4 169.4l1331.1-815.2c-3218.1 192.4-5679.2 1146.9-5766.6 2305.4 23.6 313.2 220.7 611.5 559.5 883.9l535.3-328c249.6 350.2 829.1 662.9 1634.6 906.5l-426.1 261.1c183.5 57.1 375.9 110.8 576.4 160.9l435-266.4c1011.6 235.8 2277.1 376 3650.2 376 292.2 0 579.7-6.4 860.7-18.6l-594.2 363.9c280.5-3.6 556.7-13 827.7-27.9l645.4-395.3c497.1-45.6 967.1-110.4 1400.7-191.4l-773.9 474c2628-327.4 4522-1184.9 4598.4-2198.7-12.9-172.1-78.3-339.7-190.7-500.9l-796.7 487.9c-51-158.6-168.8-311.3-344.7-455.4"
    ></path>
    <path
      fill="#c9840a"
      d="M24010.1 18796.3c0-49.9-6.6-99.4-19.6-148.4-121.7 427.5-804.3 810.3-1839.9 1089.4-465.6 125.6-1002.5 230.3-1591.9 308.6-301.7 40.2-617.1 73.4-943.7 99-512.8 40.3-1053.1 61.8-1611.2 61.8-1162.8 0-2248.4-93.3-3168-254.9-220.2-38.7-430.9-81.3-631-127.5-851.9-196.7-1509.1-458.3-1877.1-757.9-163.1-132.8-269.3-273-310.7-418.5-13 49-19.6 98.5-19.6 148.4 0 133.5 47 263.6 136.3 388.8 249.6 350.2 829.1 662.9 1634.6 906.5 183.8 55.6 379.2 107.6 585.3 155.6 1011.6 235.8 2277.1 376 3650.2 376 292.2 0 579.7-6.4 860.7-18.6 300.7-13.2 594.3-33.1 878.9-59.3 497.1-45.6 967.1-110.4 1400.7-191.4 1719.4-321.4 2866-898.7 2866-1557.6"
    ></path>
    <path
      fill="#efa90c"
      d="M23990.5 18647.9c-2.8-10.6-5.9-21.1-9.3-31.7-51-158.6-168.8-311.3-344.7-455.4-105.2-86.2-231.1-169.3-376-248.8-774.3-424.9-2089.1-745.9-3662.1-877.2-247.7-20.8-501.8-36.8-761.2-47.7-272.4-11.6-550.6-17.5-833.4-17.5-903.7 0-1760.7 60.7-2529.4 169.4-1913.6 270.6-3280.2 838.7-3457.4 1508.9 41.4 145.5 147.6 285.7 310.7 418.5 368 299.6 1025.2 561.2 1877.1 757.9 200.1 46.2 410.8 88.8 631 127.5 919.6 161.6 2005.2 254.9 3168 254.9 558.1 0 1098.4-21.5 1611.2-61.8 326.6-25.6 641.9-58.8 943.6-99h.1c589.3-78.3 1126.3-183 1591.8-308.6h.1c1035.6-279.1 1718.2-661.9 1839.9-1089.4"
    ></path>
    <path
      fill="#ffe755"
      d="M24971.1 18565.4c0-1328.1-3119.4-2404.8-6967.3-2404.8-3848 0-6967.4 1076.7-6967.4 2404.8 0 21.4.9 42.6 2.5 63.8 97.9-1298.6 3178.8-2340.9 6964.9-2340.9 3786 0 6866.9 1042.3 6964.8 2340.9 1.6-21.2 2.5-42.4 2.5-63.8"
    ></path>
    <path
      fill="#ffe755"
      d="M21144.1 20353.9c-433.6 81-903.6 145.8-1400.7 191.4l-645.4 395.3c439.1-23.8 864.4-61.9 1272.2-112.7l773.9-474"
    ></path>
    <path
      fill="#ffe755"
      d="M24777.9 18128.3c-100.4-144-238.4-282.8-410-415.4l-731.4 447.9c175.9 144.1 293.7 296.8 344.7 455.4l796.7-487.9"
    ></path>
    <path
      fill="#ffc515"
      d="M16059.7 19202.2l-102.7-.3-182-239.4c-18-23.7-34.5-46.9-49.5-69.6l1191.6-729.9c106.5-3.1 219.6-4.7 339.2-4.5h16.4l-51.3-181.8 628.2-384.7h293.4l24.1 319.4-2107.4 1290.8"
    ></path>
    <path
      fill="#c9840a"
      d="M18281 18939.5c127.4-13.3 221.6-32.7 282.5-58.5 48.7-20.8 81.8-48 98.8-82.1 21 26.2 30.7 57 29.1 92.5l-15.7 335.2c-2.8 59.5-40.6 104-112.2 134.5-60.9 25.8-155.1 45.2-282.5 58.5l-55.9-740.2c12.4.8 24.5 1.7 36.4 2.6l19.5 257.5"
    ></path>
    <path
      fill="#c9840a"
      d="M17615.9 20139.6c-58.7-14.6-94.4-37.3-107.1-68.6l-50.1-124c-15.2-37.7 3.8-67.6 58-89.2 47.2-18.7 122.2-31.7 224.8-38.9l97.6 345.8c-98.7-4.3-173-12.7-223.2-25.1"
    ></path>
    <path
      fill="#c9840a"
      d="M16628 19631.9c-89.6 34.9-136.7 79.9-143.6 134l-.3.2v-454.5c-4-40.5 12.4-76.5 49.9-107.7l625.6 2.3-115.4-286c-33.3-82.5-18.1-143.3 47.7-180 16.8-9.4 38-17.8 63.3-25.2l4.4 11.1-14.1-.1 14.1 1.4v319.6c104.7-12.8 222.5-24.9 353.7-36.3l132.4 469.2c-527.1 41.3-864 92.3-1017.7 152"
    ></path>
    <path
      fill="#c9840a"
      d="M18617.3 20065.1c-1.4 35.8-27.2 61-76.9 76.2-42.2 12.9-109.9 21.4-203 25.6l-29.9-395.3c519.5-41.9 882.1-92.4 1080.6-152.2 55.3-16.7 105.4-36 150.5-58v390.3l-916.7-4.7-4.6 118.1"
    ></path>
    <path
      fill="#c9840a"
      d="M17272.7 18158.5h-16.4c-783.8-1-1286.5 69.5-1499.3 204.7-85.4 54.2-131.1 123.3-139.9 205.3l-1.7.9v-459.6h.2c2.7-91.4 48.7-167.8 141.4-226.7 201.8-128.2 664.5-198.2 1380.3-204.2l135.4 479.6"
    ></path>
    <path
      fill="#c9840a"
      d="M19969.5 18776.7c-.2-159.6-94-292.1-290.2-389.9-277.7-138.5-780-216.2-1493.4-226.3l-42.9-568.6h-1030.2v-480.1H18143l42.9 568.6c713.4 10.1 1215.7 87.8 1493.4 226.3 191.4 95.4 285.2 223.8 290 378.1h.3v492l-.1-.1"
    ></path>
    <path
      fill="#ffe755"
      d="M18864.5 20604.6c-281 12.2-568.5 18.6-860.7 18.6-1373.1 0-2638.6-140.2-3650.2-376l-435 266.4c1147.8 287.3 2559.2 456.6 4085.2 456.6 89.2 0 178.1-.6 266.5-1.7l594.2-363.9"
    ></path>
    <path
      fill="#ffe755"
      d="M23992.8 17463.6c-787-455.9-1998.3-814.1-3445.7-1010l-948.7 581.2c1573 131.3 2887.8 452.3 3662.1 877.2l732.3-448.4"
    ></path>
    <path
      fill="#ffe755"
      d="M18577.1 18739.6c-70.3-29.2-187.8-49.2-352-60.2l55.9 740.1c127.4-13.1 221.7-32.6 282.4-58.4 71.7-30.5 109.5-75 112.3-134.5l15.6-335.1c3.3-67.7-34.5-118.8-114.2-151.9zm-835.7 1079.4c-102.5 7-177.5 20.1-224.7 38.8-54.2 21.6-73.2 51.5-58 89.2l50.1 124c12.7 31.3 48.4 54.1 107.1 68.6 50.2 12.4 124.6 20.7 223.1 25.1zm2187.8-847.7l-128.9 329.1c-58.9 150.5-197.5 254.2-412.2 318.9-198.5 59.9-561.1 110.4-1080.5 152.3l29.8 395.3c93-4.2 160.8-12.7 203-25.6 49.7-15.2 75.5-40.4 76.9-76.2l4.6-118.2 916.7 4.8-39.4 101.4c-47.4 121.7-152.7 195.8-315.4 230.2-152.2 32.1-429.6 48-834 48.6l8.3 109.8-42.5-.2-353.9-2.2-45.2-.3-31.1-110.3c-378.8-7.8-657.2-31-838.3-70.5-194.8-42.5-333.9-117.1-417.6-230l-99.8-134.3c-84-113.2-54.8-202.4 98.4-262 153.6-59.8 490.5-110.7 1017.6-152l-226.6-802.9c-159.8 9.6-268.9 30.7-327.2 63.2-65.8 36.7-81 97.5-47.7 179.9l115.5 286-1100-3.9 2107.4-1290.8 18.8 249.1c713.4 10.1 1215.7 87.8 1493.5 226.3 271.2 135.2 346.8 336.7 249.8 584.5"
    ></path>
    <path
      fill="#ffe755"
      d="M13768.3 20091.6c-805.5-243.6-1385-556.3-1634.6-906.5l-535.3 328c400.7 322.3 999.6 608.3 1743.8 839.6l426.1-261.1"
    ></path>
    <path
      fill="#ffe755"
      d="M19840.2 16372.8c-585.1-55.1-1200.8-84.5-1836.4-84.5-408.6 0-809 12.1-1198.3 35.5l-1331.1 815.2c768.7-108.7 1625.7-169.4 2529.4-169.4 282.8 0 561 5.9 833.4 17.5l1003-614.3"
    ></path>
    <path
      fill="#ffe755"
      d="M16917.1 18163c-591.3 17.6-979.7 85.6-1160.1 200.2-181.8 115.5-184.3 298.2-31.5 529.7l1191.6-729.9"
    ></path>
    <path fill="#ffe755" d="M17849.6 17592h-736.9l108.7 384.7z"></path>
    <path
      fill="#ecaf12"
      d="M19436.7 18528.2v-2055.1c-462.4-33.4-941.7-51-1432.9-51-839.1 0-1643.5 51.3-2388.4 145.2v2055.1c744.9-93.9 1549.3-145.1 2388.4-145.1 491.2 0 970.5 17.6 1432.9 50.9"
    ></path>
    <path
      fill="#ecaf12"
      d="M24968.6 18826.9c0-539-513.7-1036.6-1381.1-1437.6v2054.3c805.8 372 1306.7 827.2 1375.3 1321.5v-1839.9c3.8-32.5 5.8-65.3 5.8-98.3"
    ></path>
    <path
      fill="#f9be15"
      d="M15615.4 18622.4v-2055.1c-2670.2 336.5-4576.5 1221.2-4576.5 2259.6v1950.3h4.2c123.5-992.9 1991.2-1829.8 4572.3-2154.8"
    ></path>
    <path
      fill="#f9be15"
      d="M22006.2 18913.5v-2054.9c-758.9-184.3-1629.4-317.6-2569.5-385.5v2055.1c940.1 67.9 1810.5 201.1 2569.5 385.3"
    ></path>
    <path
      fill="#ffd800"
      d="M23587.5 19443.6v-2054.3c-442.2-204.5-976.3-383.7-1581.3-530.7v2054.9c604.9 146.8 1139 325.9 1581.3 530.1"
    ></path>
    <path
      fill="#ffc515"
      d="M23636.5 20349.9l731.4-448c-111.2-85.9-236.6-169-375.1-249.3l-732.3 448.5c-774.3-424.9-2089.1-745.9-3662.1-877.3l948.7-581.1c-229.9-31.1-465.8-58.2-706.9-80.9l-1003 614.3c-272.4-11.5-550.6-17.4-833.4-17.4-903.7 0-1760.7 60.7-2529.4 169.4l1331.1-815.3c-3218.1 192.5-5679.2 1147-5766.6 2305.5 23.6 313.2 220.7 611.5 559.5 883.8l535.3-327.9c249.6 350.2 829.1 662.9 1634.6 906.5l-426.1 261.1c183.5 57 375.9 110.7 576.4 160.9l435-266.4c1011.6 235.8 2277.1 375.9 3650.2 375.9 292.2 0 579.7-6.3 860.7-18.6l-594.2 363.9c280.5-3.6 556.7-13 827.7-27.8l645.4-395.3c497.1-45.6 967.1-110.4 1400.7-191.5l-773.9 474.1c2628-327.5 4522-1185 4598.4-2198.7-12.9-172.1-78.3-339.7-190.7-501l-796.7 488c-51-158.6-168.8-311.3-344.7-455.4"
    ></path>
    <path
      fill="#c9840a"
      d="M24010.1 20985.4c0-50-6.6-99.5-19.6-148.4-121.7 427.4-804.3 810.2-1839.9 1089.4-465.6 125.6-1002.5 230.3-1591.9 308.6-301.7 40.2-617.1 73.4-943.7 99-512.8 40.3-1053.1 61.8-1611.2 61.8-1162.8 0-2248.4-93.4-3168-254.9-220.2-38.7-430.9-81.3-631-127.5-851.9-196.8-1509.1-458.3-1877.1-757.9-163.1-132.8-269.3-273.1-310.7-418.5-13 48.9-19.6 98.4-19.6 148.4 0 133.4 47 263.5 136.3 388.8 249.6 350.2 829.1 662.9 1634.6 906.5 183.8 55.6 379.2 107.6 585.3 155.6 1011.6 235.8 2277.1 375.9 3650.2 375.9 292.2 0 579.7-6.3 860.7-18.6 300.7-13.2 594.3-33 878.9-59.2 497.1-45.6 967.1-110.4 1400.7-191.5 1719.4-321.3 2866-898.6 2866-1557.5"
    ></path>
    <path
      fill="#efa90c"
      d="M23990.5 20837c-2.8-10.6-5.9-21.2-9.3-31.7-51-158.6-168.8-311.3-344.7-455.4-105.2-86.3-231.1-169.4-376-248.8-774.3-424.9-2089.1-745.9-3662.1-877.3-247.7-20.7-501.8-36.7-761.2-47.7-272.4-11.5-550.6-17.4-833.4-17.4-903.7 0-1760.7 60.7-2529.4 169.4-1913.6 270.6-3280.2 838.7-3457.4 1508.9 41.4 145.4 147.6 285.7 310.7 418.5 368 299.6 1025.2 561.1 1877.1 757.9 200.1 46.2 410.8 88.8 631 127.5 919.6 161.5 2005.2 254.9 3168 254.9 558.1 0 1098.4-21.5 1611.2-61.8 326.6-25.6 641.9-58.8 943.6-99h.1c589.3-78.3 1126.3-183 1591.8-308.6h.1c1035.6-279.2 1718.2-662 1839.9-1089.4"
    ></path>
    <path
      fill="#ffe755"
      d="M24971.1 20754.5c0-1328.2-3119.4-2404.8-6967.3-2404.8-3848 0-6967.4 1076.6-6967.4 2404.8 0 21.3.9 42.6 2.5 63.8 97.9-1298.7 3178.8-2341 6964.9-2341 3786 0 6866.9 1042.3 6964.8 2341 1.6-21.2 2.5-42.5 2.5-63.8"
    ></path>
    <path
      fill="#ffe755"
      d="M21144.1 22542.9c-433.6 81.1-903.6 145.9-1400.7 191.5l-645.4 395.3c439.1-23.9 864.4-61.9 1272.2-112.7l773.9-474.1"
    ></path>
    <path
      fill="#ffe755"
      d="M24777.9 20317.3c-100.4-143.9-238.4-282.8-410-415.4l-731.4 448c175.9 144.1 293.7 296.8 344.7 455.4l796.7-488"
    ></path>
    <path
      fill="#ffc515"
      d="M16059.7 21391.3l-102.7-.4-182-239.4c-18-23.6-34.5-46.8-49.5-69.5l1191.6-729.9c106.5-3.1 219.6-4.7 339.2-4.5h16.4l-51.3-181.8 628.2-384.8h293.4l24.1 319.5-2107.4 1290.8"
    ></path>
    <path
      fill="#c9840a"
      d="M18281 21128.5c127.4-13.2 221.6-32.6 282.5-58.5 48.7-20.7 81.8-48 98.8-82 21 26.1 30.7 57 29.1 92.5l-15.7 335.1c-2.8 59.6-40.6 104.1-112.2 134.5-60.9 25.9-155.1 45.3-282.5 58.5l-55.9-740.2c12.4.9 24.5 1.8 36.4 2.7l19.5 257.4"
    ></path>
    <path
      fill="#c9840a"
      d="M17615.9 22328.7c-58.7-14.6-94.4-37.3-107.1-68.7l-50.1-123.9c-15.2-37.8 3.8-67.7 58-89.2 47.2-18.7 122.2-31.8 224.8-38.9l97.6 345.7c-98.7-4.3-173-12.6-223.2-25"
    ></path>
    <path
      fill="#c9840a"
      d="M16628 21821c-89.6 34.9-136.7 79.9-143.6 133.9l-.3.2v-454.4c-4-40.6 12.4-76.6 49.9-107.7l625.6 2.2-115.4-286c-33.3-82.5-18.1-143.2 47.7-179.9 16.8-9.4 38-17.8 63.3-25.3l4.4 11.1h-14.1l14.1 1.4v319.5c104.7-12.7 222.5-24.8 353.7-36.2l132.4 469.1c-527.1 41.3-864 92.3-1017.7 152.1"
    ></path>
    <path
      fill="#c9840a"
      d="M18617.3 22254.2c-1.4 35.8-27.2 61-76.9 76.2-42.2 12.9-109.9 21.4-203 25.6l-29.9-395.3c519.5-41.9 882.1-92.4 1080.6-152.3 55.3-16.7 105.4-36 150.5-57.9v390.3l-916.7-4.8-4.6 118.2"
    ></path>
    <path
      fill="#c9840a"
      d="M17272.7 20347.6l-16.4-.1c-783.8-.9-1286.5 69.6-1499.3 204.8-85.4 54.2-131.1 123.3-139.9 205.2l-1.7.9v-459.6h.2c2.7-91.4 48.7-167.7 141.4-226.6 201.8-128.2 664.5-198.2 1380.3-204.3l135.4 479.7"
    ></path>
    <path
      fill="#c9840a"
      d="M19969.5 20965.8c-.2-159.6-94-292.2-290.2-389.9-277.7-138.5-780-216.2-1493.4-226.4l-42.9-568.5h-1030.2v-480.1H18143l42.9 568.5c713.4 10.2 1215.7 87.9 1493.4 226.4 191.4 95.3 285.2 223.8 290 378.1h.3v492l-.1-.1"
    ></path>
    <path
      fill="#ffe755"
      d="M18864.5 22793.6c-281 12.3-568.5 18.6-860.7 18.6-1373.1 0-2638.6-140.1-3650.2-375.9l-435 266.4c1147.8 287.2 2559.2 456.6 4085.2 456.6 89.2 0 178.1-.6 266.5-1.8l594.2-363.9"
    ></path>
    <path
      fill="#ffe755"
      d="M23992.8 19652.6c-787-455.8-1998.3-814-3445.7-1009.9l-948.7 581.1c1573 131.4 2887.8 452.4 3662.1 877.3l732.3-448.5"
    ></path>
    <path
      fill="#ffe755"
      d="M18577.1 20928.7c-70.3-29.2-187.8-49.3-352-60.2l55.9 740.1c127.4-13.2 221.7-32.6 282.4-58.5 71.7-30.5 109.5-74.9 112.3-134.5l15.6-335.1c3.3-67.7-34.5-118.7-114.2-151.8zm-835.7 1079.3c-102.5 7.1-177.5 20.1-224.7 38.9-54.2 21.6-73.2 51.5-58 89.2l50.1 123.9c12.7 31.4 48.4 54.1 107.1 68.6 50.2 12.5 124.6 20.8 223.1 25.1zm2187.8-847.7l-128.9 329.2c-58.9 150.5-197.5 254.2-412.2 318.9-198.5 59.9-561.1 110.3-1080.5 152.3l29.8 395.3c93-4.2 160.8-12.7 203-25.6 49.7-15.2 75.5-40.4 76.9-76.2l4.6-118.2 916.7 4.8-39.4 101.4c-47.4 121.7-152.7 195.8-315.4 230.1-152.2 32.2-429.6 48.1-834 48.6l8.3 109.9-42.5-.3-353.9-2.2-45.2-.2-31.1-110.3c-378.8-7.8-657.2-31-838.3-70.6-194.8-42.5-333.9-117.1-417.6-229.9l-99.8-134.3c-84-113.3-54.8-202.5 98.4-262 153.6-59.8 490.5-110.8 1017.6-152l-226.6-802.9c-159.8 9.5-268.9 30.7-327.2 63.1-65.8 36.8-81 97.5-47.7 180l115.5 286-1100-3.9 2107.4-1290.8 18.8 249c713.4 10.2 1215.7 87.9 1493.5 226.3 271.2 135.3 346.8 336.8 249.8 584.5"
    ></path>
    <path
      fill="#ffe755"
      d="M13768.3 22280.7c-805.5-243.6-1385-556.3-1634.6-906.5l-535.3 327.9c400.7 322.4 999.6 608.3 1743.8 839.7l426.1-261.1"
    ></path>
    <path
      fill="#ffe755"
      d="M19840.2 18561.8c-585.1-55.1-1200.8-84.5-1836.4-84.5-408.6 0-809 12.1-1198.3 35.5l-1331.1 815.3c768.7-108.7 1625.7-169.4 2529.4-169.4 282.8 0 561 5.9 833.4 17.4l1003-614.3"
    ></path>
    <path
      fill="#ffe755"
      d="M16917.1 20352.1c-591.3 17.5-979.7 85.6-1160.1 200.2-181.8 115.5-184.3 298.2-31.5 529.7l1191.6-729.9"
    ></path>
    <path fill="#ffe755" d="M17849.6 19781h-736.9l108.7 384.8z"></path>
    <path
      fill="#ecaf12"
      d="M16554.6 20929.7v-2055.1c-462.4-33.5-941.7-51-1433-51-839 0-1643.4 51.2-2388.3 145.1v2055.2c744.9-94 1549.3-145.1 2388.3-145.1 491.3 0 970.6 17.5 1433 50.9"
    ></path>
    <path
      fill="#ecaf12"
      d="M22086.5 21228.4c0-539-513.7-1036.6-1381.1-1437.7v2054.4c805.7 372 1306.7 827.2 1375.3 1321.5v-1840c3.8-32.5 5.8-65.3 5.8-98.2"
    ></path>
    <path
      fill="#f9be15"
      d="M12733.3 21023.9v-2055.2c-2670.2 336.5-4576.52 1221.3-4576.52 2259.7v1950.3h4.2c123.45-992.9 1991.22-1829.8 4572.32-2154.8"
    ></path>
    <path
      fill="#f9be15"
      d="M19124.1 21315v-2054.9c-759-184.3-1629.4-317.7-2569.5-385.5v2055.1c940 67.9 1810.4 201 2569.5 385.3"
    ></path>
    <path
      fill="#ffd800"
      d="M20705.4 21845.1v-2054.4c-442.2-204.4-976.4-383.7-1581.3-530.6V21315c604.8 146.7 1139 325.8 1581.3 530.1"
    ></path>
    <path
      fill="#ffc515"
      d="M20754.4 22751.3l731.4-447.9c-111.2-85.9-236.6-169.1-375.2-249.3l-732.2 448.4c-774.3-424.8-2089.1-745.9-3662.1-877.2l948.7-581.1c-229.9-31.2-465.8-58.3-706.9-80.9l-1003 614.3c-272.4-11.5-550.7-17.5-833.5-17.5-903.6 0-1760.6 60.7-2529.3 169.4l1331-815.2c-3218 192.5-5679.14 1147-5766.52 2305.5 23.64 313.2 220.71 611.5 559.44 883.8l535.4-327.9c249.54 350.1 829.08 662.8 1634.58 906.5l-426.2 261c183.6 57.1 376 110.8 576.4 160.9l435-266.4c1011.7 235.8 2277.2 376 3650.2 376 292.3 0 579.7-6.4 860.8-18.6l-594.2 363.9c280.4-3.6 556.7-13 827.7-27.8l645.3-395.3c497.2-45.7 967.2-110.5 1400.7-191.5l-773.9 474c2628.1-327.4 4522-1184.9 4598.5-2198.6-13-172.2-78.4-339.8-190.8-501l-796.6 488c-51.1-158.7-168.8-311.4-344.7-455.5"
    ></path>
    <path
      fill="#c9840a"
      d="M21128 23386.9c0-50-6.6-99.5-19.6-148.4-121.7 427.4-804.4 810.2-1839.9 1089.4-465.6 125.6-1002.5 230.2-1591.9 308.6-301.7 40.1-617.1 73.3-943.8 98.9-512.7 40.3-1053.1 61.8-1611.2 61.8-1162.7 0-2248.3-93.3-3167.9-254.9-220.2-38.7-430.9-81.3-631-127.5-852-196.7-1509.08-458.3-1877.13-757.9-163.07-132.7-269.3-273-310.73-418.4-13.01 48.9-19.6 98.4-19.6 148.4 0 133.4 47.02 263.5 136.38 388.8 249.54 350.1 829.08 662.8 1634.58 906.5 183.8 55.5 379.2 107.5 585.2 155.5 1011.7 235.8 2277.2 376 3650.2 376 292.3 0 579.7-6.4 860.8-18.6 300.7-13.2 594.3-33.1 878.8-59.2 497.2-45.7 967.2-110.5 1400.7-191.5 1719.5-321.4 2866.1-898.7 2866.1-1557.5"
    ></path>
    <path
      fill="#efa90c"
      d="M21108.4 23238.5c-2.8-10.7-5.9-21.2-9.3-31.7-51.1-158.7-168.8-311.4-344.7-455.5-105.2-86.2-231.1-169.3-376-248.8-774.3-424.8-2089.1-745.9-3662.1-877.2-247.7-20.8-501.8-36.8-761.2-47.7-272.4-11.5-550.7-17.5-833.5-17.5-903.6 0-1760.6 60.7-2529.3 169.4-1913.6 270.7-3280.23 838.7-3457.46 1509 41.43 145.4 147.66 285.7 310.73 418.4 368.05 299.6 1025.13 561.2 1877.13 757.9 200.1 46.2 410.8 88.8 631 127.5 919.6 161.6 2005.2 254.9 3167.9 254.9 558.1 0 1098.5-21.5 1611.2-61.8 326.7-25.6 642-58.8 943.7-98.9h.1c589.3-78.4 1126.3-183 1591.8-308.6h.1c1035.5-279.2 1718.2-662 1839.9-1089.4"
    ></path>
    <path
      fill="#ffe755"
      d="M22088.9 23155.9c0-1328.1-3119.4-2404.8-6967.3-2404.8s-6967.29 1076.7-6967.29 2404.8c0 21.4.82 42.6 2.47 63.9 97.92-1298.7 3178.82-2341 6964.82-2341 3786.1 0 6866.9 1042.3 6964.9 2341 1.6-21.3 2.4-42.5 2.4-63.9"
    ></path>
    <path
      fill="#ffe755"
      d="M18261.9 24944.4c-433.5 81-903.5 145.8-1400.7 191.5l-645.3 395.3c439-23.9 864.4-62 1272.1-112.8l773.9-474"
    ></path>
    <path
      fill="#ffe755"
      d="M21895.7 22718.8c-100.4-144-238.3-282.8-409.9-415.4l-731.4 447.9c175.9 144.1 293.6 296.8 344.7 455.5l796.6-488"
    ></path>
    <path
      fill="#ffc515"
      d="M13177.5 23792.7l-102.7-.3-182-239.4c-17.9-23.7-34.4-46.9-49.4-69.5l1191.6-730c106.5-3.1 219.6-4.6 339.2-4.5h16.3l-51.3-181.7 628.3-384.8h293.4l24.1 319.4-2107.5 1290.8"
    ></path>
    <path
      fill="#c9840a"
      d="M15398.8 23530c127.5-13.2 221.7-32.6 282.5-58.5 48.8-20.7 81.9-48 98.9-82.1 21 26.2 30.7 57.1 29 92.5l-15.7 335.2c-2.7 59.6-40.5 104-112.2 134.5-60.8 25.9-155 45.3-282.5 58.5l-55.8-740.2c12.4.8 24.5 1.7 36.4 2.7l19.4 257.4"
    ></path>
    <path
      fill="#c9840a"
      d="M14733.8 24730.1c-58.7-14.5-94.5-37.2-107.1-68.6l-50.1-124c-15.2-37.7 3.8-67.6 58-89.1 47.1-18.8 122.1-31.8 224.7-39l97.6 345.8c-98.6-4.3-172.9-12.6-223.1-25.1"
    ></path>
    <path
      fill="#c9840a"
      d="M13745.9 24222.5c-89.6 34.8-136.8 79.8-143.6 133.9l-.3.2v-454.4c-4-40.6 12.4-76.6 49.9-107.7l625.6 2.2-115.4-286c-33.3-82.5-18.1-143.3 47.7-180 16.8-9.4 38-17.7 63.2-25.2l4.5 11.1-14.2-.1 14.2 1.4v319.6c104.6-12.8 222.5-24.9 353.7-36.3l132.4 469.2c-527.1 41.3-864.1 92.3-1017.7 152.1"
    ></path>
    <path
      fill="#c9840a"
      d="M15735.1 24655.6c-1.4 35.9-27.1 61.1-76.8 76.2-42.2 12.9-110 21.4-203.1 25.6l-29.8-395.3c519.5-41.9 882.1-92.4 1080.6-152.2 55.2-16.7 105.4-36 150.5-58v390.3l-916.7-4.7-4.7 118.1"
    ></path>
    <path
      fill="#c9840a"
      d="M14390.6 22749h-16.4c-783.8-1-1286.5 69.5-1499.3 204.7-85.4 54.3-131.1 123.3-139.9 205.3l-1.7.9v-459.6h.2c2.7-91.4 48.7-167.8 141.4-226.7 201.8-128.2 664.5-198.2 1380.3-204.2l135.4 479.6"
    ></path>
    <path
      fill="#c9840a"
      d="M17087.4 23367.2c-.2-159.6-94-292.1-290.2-389.9-277.8-138.5-780.1-216.1-1493.4-226.3l-42.9-568.5h-1030.3v-480.1h1030.3l42.9 568.5c713.3 10.2 1215.6 87.9 1493.4 226.4 191.3 95.3 285.2 223.7 289.9 378.1h.4v492l-.1-.2"
    ></path>
    <path
      fill="#ffe755"
      d="M15982.4 25195.1c-281.1 12.2-568.5 18.6-860.8 18.6-1373 0-2638.5-140.2-3650.2-376l-435 266.4c1147.8 287.3 2559.2 456.6 4085.2 456.6 89.3 0 178.2-.5 266.6-1.7l594.2-363.9"
    ></path>
    <path
      fill="#ffe755"
      d="M21110.6 22054.1c-787-455.8-1998.3-814.1-3445.6-1009.9l-948.7 581.1c1573 131.3 2887.8 452.4 3662.1 877.2l732.2-448.4"
    ></path>
    <path
      fill="#ffe755"
      d="M15695 23330.1c-70.3-29.1-187.8-49.2-352-60.2l55.8 740.2c127.4-13.2 221.7-32.7 282.5-58.5 71.7-30.5 109.5-75 112.3-134.5l15.6-335.1c3.2-67.7-34.6-118.8-114.2-151.9zm-835.7 1079.4c-102.5 7.1-177.5 20.1-224.7 38.8-54.2 21.6-73.2 51.5-58 89.2l50.1 124c12.6 31.4 48.4 54.1 107.1 68.6 50.2 12.4 124.5 20.7 223.1 25.1zm2187.8-847.7l-128.9 329.2c-59 150.4-197.6 254.1-412.3 318.8-198.4 59.9-561 110.4-1080.5 152.3l29.8 395.3c93.1-4.2 160.9-12.7 203.1-25.6 49.7-15.1 75.5-40.3 76.9-76.2l4.6-118.1 916.7 4.7-39.5 101.4c-47.3 121.7-152.6 195.9-315.3 230.2-152.3 32.1-429.7 48-834 48.6l8.3 109.9-42.5-.3-354-2.2-45.1-.3-31.1-110.2c-378.9-7.9-657.2-31.1-838.3-70.6-194.8-42.5-333.9-117.1-417.7-230l-99.8-134.3c-84-113.2-54.7-202.4 98.4-262 153.6-59.7 490.6-110.7 1017.7-152l-226.6-802.9c-159.8 9.6-268.9 30.7-327.2 63.2-65.8 36.7-81.1 97.5-47.7 179.9l115.5 286.1-1100.1-4 2107.5-1290.8 18.8 249.1c713.4 10.1 1215.6 87.9 1493.4 226.3 271.2 135.2 346.8 336.8 249.9 584.5"
    ></path>
    <path
      fill="#ffe755"
      d="M10886.2 24682.2c-805.5-243.7-1385.04-556.4-1634.58-906.5l-535.4 327.9c400.75 322.3 999.64 608.3 1743.78 839.6l426.2-261"
    ></path>
    <path
      fill="#ffe755"
      d="M16958.1 20963.3c-585.1-55.1-1200.9-84.5-1836.5-84.5-408.5 0-809 12.1-1198.3 35.5l-1331 815.2c768.7-108.7 1625.7-169.4 2529.3-169.4 282.8 0 561.1 6 833.5 17.5l1003-614.3"
    ></path>
    <path
      fill="#ffe755"
      d="M14035 22753.5c-591.3 17.6-979.8 85.6-1160.1 200.3-181.9 115.4-184.3 298.2-31.5 529.7l1191.6-730"
    ></path>
    <path fill="#ffe755" d="M14967.5 22182.5h-736.9l108.6 384.8z"></path>
    <path
      fill="#ecaf12"
      d="M16901 23588.3v-2055.1c-462.4-33.4-941.7-51-1432.9-51-839.1 0-1643.5 51.2-2388.4 145.1v2055.2c744.9-93.9 1549.3-145.1 2388.4-145.1 491.2 0 970.5 17.6 1432.9 50.9"
    ></path>
    <path
      fill="#ecaf12"
      d="M22432.9 23887c0-539-513.7-1036.6-1381.1-1437.7v2054.4c805.8 372 1306.7 827.2 1375.3 1321.5v-1839.9c3.8-32.6 5.8-65.3 5.8-98.3"
    ></path>
    <path
      fill="#f9be15"
      d="M13079.7 23682.5v-2055.2c-2670.2 336.5-4576.49 1221.3-4576.49 2259.7v1950.3h4.2c123.45-992.9 1991.19-1829.8 4572.29-2154.8"
    ></path>
    <path
      fill="#f9be15"
      d="M19470.6 23973.6v-2054.9c-759-184.3-1629.5-317.6-2569.6-385.5v2055.1c940.1 67.9 1810.5 201 2569.6 385.3"
    ></path>
    <path
      fill="#ffd800"
      d="M21051.8 24503.7v-2054.4c-442.2-204.4-976.3-383.7-1581.2-530.6v2054.9c604.8 146.7 1138.9 325.8 1581.2 530.1"
    ></path>
    <path
      fill="#ffc515"
      d="M21100.8 25409.9l731.4-447.9c-111.2-85.9-236.6-169.1-375.1-249.3l-732.3 448.4c-774.3-424.8-2089.1-745.9-3662.1-877.2l948.8-581.1c-230-31.2-465.9-58.2-707-80.9l-1003 614.3c-272.4-11.5-550.6-17.5-833.4-17.5-903.7 0-1760.7 60.7-2529.4 169.4l1331.1-815.2c-3218.1 192.5-5679.21 1147-5766.59 2305.5 23.64 313.2 220.71 611.5 559.44 883.8l535.4-327.9c249.54 350.2 829.05 662.9 1634.65 906.5l-426.2 261c183.5 57.1 375.9 110.8 576.4 161l435-266.5c1011.6 235.8 2277.1 376 3650.2 376 292.2 0 579.7-6.3 860.7-18.6l-594.2 363.9c280.5-3.6 556.7-13 827.7-27.8l645.4-395.3c497.1-45.7 967.1-110.5 1400.7-191.5l-773.9 474c2628-327.4 4522-1184.9 4598.4-2198.6-12.9-172.1-78.3-339.7-190.7-501l-796.7 488c-51-158.7-168.8-311.3-344.7-455.5"
    ></path>
    <path
      fill="#c9840a"
      d="M21474.4 26045.5c0-50-6.6-99.5-19.6-148.4-121.7 427.4-804.3 810.2-1839.9 1089.4-465.6 125.6-1002.5 230.2-1591.9 308.6-301.7 40.2-617.1 73.3-943.7 99-512.8 40.2-1053.1 61.7-1611.2 61.7-1162.7 0-2248.4-93.3-3168-254.9-220.2-38.7-430.9-81.3-631-127.5-851.9-196.7-1509.1-458.3-1877.1-757.9-163.07-132.7-269.3-273-310.73-418.4-13.01 48.9-19.6 98.4-19.6 148.4 0 133.4 47.02 263.5 136.38 388.8 249.54 350.2 829.05 662.9 1634.65 906.5 183.7 55.6 379.1 107.5 585.2 155.5 1011.6 235.8 2277.1 376 3650.2 376 292.2 0 579.7-6.3 860.7-18.6 300.7-13.2 594.3-33 878.9-59.2 497.1-45.7 967.1-110.5 1400.7-191.5 1719.4-321.4 2866-898.7 2866-1557.5"
    ></path>
    <path
      fill="#efa90c"
      d="M21454.8 25897.1c-2.8-10.7-5.9-21.2-9.3-31.7-51-158.7-168.8-311.3-344.7-455.5-105.2-86.2-231.1-169.3-376-248.8-774.3-424.8-2089.1-745.9-3662.1-877.2-247.7-20.8-501.8-36.7-761.2-47.7-272.4-11.5-550.6-17.5-833.4-17.5-903.7 0-1760.7 60.7-2529.4 169.4-1913.6 270.7-3280.2 838.8-3457.43 1509 41.43 145.4 147.66 285.7 310.73 418.4 368 299.6 1025.2 561.2 1877.1 757.9 200.1 46.2 410.8 88.8 631 127.5 919.6 161.6 2005.3 254.9 3168 254.9 558.1 0 1098.4-21.5 1611.2-61.7 326.6-25.7 641.9-58.8 943.6-99h.1c589.3-78.4 1126.3-183 1591.8-308.6h.1c1035.6-279.2 1718.2-662 1839.9-1089.4"
    ></path>
    <path
      fill="#ffe755"
      d="M22435.4 25814.6c0-1328.2-3119.4-2404.8-6967.3-2404.8-3848 0-6967.36 1076.6-6967.36 2404.8 0 21.3.82 42.5 2.47 63.8 97.92-1298.7 3178.79-2341 6964.89-2341 3786 0 6866.9 1042.3 6964.8 2341 1.6-21.3 2.5-42.5 2.5-63.8"
    ></path>
    <path
      fill="#ffe755"
      d="M18608.4 27603c-433.6 81-903.6 145.8-1400.7 191.5l-645.4 395.3c439.1-23.9 864.4-62 1272.2-112.8l773.9-474"
    ></path>
    <path
      fill="#ffe755"
      d="M22242.2 25377.4c-100.4-144-238.4-282.8-410-415.4l-731.4 447.9c175.9 144.2 293.7 296.8 344.7 455.5l796.7-488"
    ></path>
    <path
      fill="#ffc515"
      d="M13524 26451.3l-102.7-.3-182-239.4c-18-23.6-34.5-46.9-49.5-69.5l1191.6-729.9c106.5-3.2 219.6-4.7 339.2-4.6h16.4l-51.3-181.7 628.2-384.8h293.4l24.1 319.5-2107.4 1290.7"
    ></path>
    <path
      fill="#c9840a"
      d="M15745.3 26188.6c127.4-13.2 221.7-32.6 282.5-58.5 48.7-20.7 81.8-48 98.8-82.1 21 26.2 30.7 57.1 29.1 92.6l-15.7 335.1c-2.8 59.6-40.6 104-112.2 134.5-60.8 25.9-155.1 45.3-282.5 58.5l-55.9-740.2c12.4.8 24.5 1.7 36.4 2.7l19.5 257.4"
    ></path>
    <path
      fill="#c9840a"
      d="M15080.2 27388.7c-58.7-14.5-94.4-37.2-107.1-68.6l-50.1-124c-15.2-37.7 3.8-67.6 58-89.1 47.2-18.8 122.2-31.8 224.8-38.9l97.6 345.7c-98.7-4.3-173-12.6-223.2-25.1"
    ></path>
    <path
      fill="#c9840a"
      d="M14092.3 26881.1c-89.6 34.8-136.7 79.9-143.6 133.9l-.3.2v-454.4c-4-40.6 12.4-76.6 49.9-107.7l625.7 2.2-115.5-286c-33.3-82.5-18.1-143.3 47.7-180 16.8-9.3 38-17.7 63.3-25.2l4.5 11.1h-14.2l14.2 1.4v319.5c104.6-12.8 222.4-24.8 353.6-36.3l132.4 469.2c-527.1 41.3-864 92.3-1017.7 152.1"
    ></path>
    <path
      fill="#c9840a"
      d="M16081.6 27314.2c-1.4 35.9-27.2 61.1-76.9 76.3-42.2 12.8-109.9 21.3-203 25.6l-29.9-395.4c519.5-41.9 882.1-92.3 1080.6-152.2 55.3-16.7 105.4-36 150.5-57.9v390.2l-916.7-4.7-4.6 118.1"
    ></path>
    <path
      fill="#c9840a"
      d="M14737 25407.6h-16.4c-783.8-1-1286.5 69.5-1499.3 204.8-85.4 54.2-131.1 123.3-139.9 205.2l-1.7.9v-459.6h.2c2.7-91.4 48.7-167.8 141.4-226.6 201.8-128.3 664.5-198.3 1380.3-204.3l135.4 479.6"
    ></path>
    <path
      fill="#c9840a"
      d="M17433.8 26025.8c-.2-159.5-94-292.1-290.2-389.8-277.7-138.5-780-216.2-1493.4-226.4l-42.9-568.5h-1030.2V24361h1030.2l42.9 568.5c713.4 10.2 1215.7 87.9 1493.4 226.4 191.4 95.3 285.2 223.8 290 378.1h.3v492l-.1-.2"
    ></path>
    <path
      fill="#ffe755"
      d="M16328.8 27853.7c-281 12.3-568.5 18.6-860.7 18.6-1373.1 0-2638.6-140.2-3650.2-376l-435 266.5c1147.8 287.2 2559.2 456.5 4085.2 456.5 89.2 0 178.1-.5 266.5-1.7l594.2-363.9"
    ></path>
    <path
      fill="#ffe755"
      d="M21457.1 24712.7c-787-455.8-1998.3-814.1-3445.6-1009.9l-948.8 581.1c1573 131.3 2887.8 452.4 3662.1 877.2l732.3-448.4"
    ></path>
    <path
      fill="#ffe755"
      d="M16041.4 25988.7c-70.3-29.1-187.8-49.2-352-60.2l55.9 740.2c127.4-13.2 221.7-32.6 282.4-58.5 71.7-30.5 109.5-75 112.3-134.5l15.6-335.1c3.3-67.7-34.5-118.8-114.2-151.9zm-835.7 1079.4c-102.5 7.1-177.5 20.1-224.7 38.9-54.2 21.5-73.2 51.4-58 89.2l50.1 123.9c12.7 31.4 48.4 54.1 107.1 68.6 50.2 12.4 124.6 20.8 223.1 25.1zm2187.8-847.7l-128.9 329.2c-58.9 150.4-197.5 254.1-412.2 318.9-198.5 59.8-561.1 110.3-1080.5 152.2l29.8 395.3c93-4.2 160.8-12.6 203-25.6 49.7-15.1 75.5-40.3 76.9-76.1l4.6-118.2 916.7 4.7-39.4 101.4c-47.4 121.8-152.7 195.9-315.4 230.2-152.2 32.1-429.6 48-834 48.6l8.3 109.9-42.5-.3-353.9-2.2-45.2-.3-31.1-110.2c-378.8-7.8-657.2-31.1-838.3-70.6-194.8-42.5-333.9-117.1-417.6-229.9l-99.8-134.4c-84-113.2-54.8-202.4 98.4-261.9 153.6-59.8 490.5-110.8 1017.7-152.1l-226.7-802.9c-159.8 9.6-268.9 30.8-327.2 63.2-65.8 36.7-81 97.5-47.7 180l115.5 286-1100-4 2107.4-1290.7 18.8 249c713.4 10.1 1215.7 87.9 1493.5 226.3 271.2 135.2 346.8 336.8 249.8 584.5"
    ></path>
    <path
      fill="#ffe755"
      d="M11232.7 27340.8c-805.6-243.6-1385.11-556.3-1634.65-906.5l-535.4 327.9c400.75 322.4 999.65 608.3 1743.85 839.6l426.2-261"
    ></path>
    <path
      fill="#ffe755"
      d="M17304.5 23621.9c-585.1-55.1-1200.8-84.5-1836.4-84.5-408.6 0-809 12.1-1198.3 35.5l-1331.1 815.2c768.7-108.7 1625.7-169.4 2529.4-169.4 282.8 0 561 6 833.4 17.5l1003-614.3"
    ></path>
    <path
      fill="#ffe755"
      d="M14381.4 25412.2c-591.3 17.5-979.7 85.5-1160.1 200.2-181.8 115.4-184.3 298.2-31.5 529.7l1191.6-729.9"
    ></path>
    <path fill="#ffe755" d="M15313.9 24841.1H14577l108.7 384.8z"></path>
    <path
      fill="#ecaf12"
      d="M27932.5 16568.2l-1595.7-1295.1c-317.3 337.9-633 699-942.6 1080.5-528.8 651.4-995.9 1308.3-1392.4 1945.8l1595.7 1295.2c396.5-637.6 863.7-1294.4 1392.4-1945.9 309.6-381.4 625.3-742.5 942.6-1080.5"
    ></path>
    <path
      fill="#ecaf12"
      d="M31650.6 12461.3c-418.6-339.7-1128.6-254.5-1986.7 166.3l1595.1 1294.7c796.6-391.2 1465.8-493.4 1892.8-235.1l-1428.6-1159.5c-22.9-23.5-47.1-45.6-72.6-66.4"
    ></path>
    <path
      fill="#f9be15"
      d="M25597.5 19594.6l-1595.7-1295.2c-1421.5 2285.3-1935.9 4323-1129.6 4977.4l1514.2 1229.1 2.7-3.3c-693.1-721.5-165.9-2699.1 1208.4-4908"
    ></path>
    <path
      fill="#f9be15"
      d="M29850.9 14815.9L28255.4 13521c-621.4 473.1-1273.4 1064.9-1918.6 1752.1l1595.7 1295.1c645.1-687.1 1297-1279 1918.4-1752.3"
    ></path>
    <path
      fill="#ffd800"
      d="M31259 13922.3l-1595.1-1294.7c-437.3 214.5-913.2 516.3-1408.5 893.4l1595.5 1294.9c495.1-377.1 970.8-679 1408.1-893.6"
    ></path>
    <path
      fill="#ffc515"
      d="M31993.5 14455.3l113.2-850.1c-136.8 32.1-280.4 77.1-430 134.1l-113.3 851.1c-817.8 333.5-1895.7 1152.1-2988.9 2290.6l146.7-1102.8c-169.1 158.9-338.8 324.9-508.4 497.9l-155.1 1165.9c-180.6 204.2-360.5 416.5-538.8 636.1-569.4 701.6-1062.4 1405.3-1462.4 2070.6l205.8-1547.2c-1878.5 2619.9-2688.4 5132.4-1844 5930.3 258.1 179 613.9 214 1038.9 122.6l82.7-622.4c429.2 27 1037.2-226 1734-697.9l-65.9 495.5c160-106.6 322.9-222.1 488.2-346.2l67.3-505.6c820.6-636.9 1726.9-1531.2 2592.2-2597.2 184.2-227 360.4-454.1 528-680.1l-91.9 690.7c173.9-220 340.7-440.4 500-660.2l99.8-750.2c277.8-414.8 523.7-820.5 734-1208.2l-119.6 899.6c1401.9-2246.9 1929.7-4257.8 1190.7-4956-141.8-98.4-313.1-153.2-509.1-167.6l-123.2 926.1c-155.3-60.3-348.1-65.1-570.9-19.4"
    ></path>
    <path
      fill="#c9840a"
      d="M32722.5 14565.7c-38.9-31.5-81.4-57.6-127.6-78.3 255.1 363.9 122.2 1135.2-313.7 2115.1-195.9 440.7-453 923.5-763.6 1430.5-158.9 259.6-331.9 525.4-517.9 795.2-291.8 423.5-615.6 856.5-967.4 1289.9-732.7 902.8-1489.3 1686.9-2194.3 2299.1-168.8 146.5-334.7 283.3-496.6 409.6-689.7 537.5-1306.9 882.8-1771.5 979.8-205.8 42.9-381.6 37-520.7-22.4 29.8 40.9 64.1 77.2 102.9 108.7 103.6 84.1 234.3 129.6 387.8 139.1 429.2 27 1037.2-226 1734-697.9 158.9-107.6 322.4-226.6 489.6-356.3 820.6-636.9 1726.9-1531.2 2592.2-2597.2 184.2-227 360.4-454.1 528-680.1 179.3-241.8 348.9-482.2 507.9-719.7 277.8-414.8 523.7-820.5 734-1208.2 834.1-1537.6 1108.4-2791.7 596.9-3206.9"
    ></path>
    <path
      fill="#efa90c"
      d="M32594.9 14487.4c-10-4.5-20.2-8.7-30.5-12.7-155.3-60.3-348.1-65.1-570.9-19.4-133.2 27.3-277.1 72.7-430.1 135.1-817.8 333.5-1895.7 1152.1-2988.9 2290.6-172.3 179.3-344.8 366.5-516.8 561-180.6 204.2-360.5 416.5-538.8 636.1-569.4 701.6-1062.4 1405.3-1462.4 2070.6-995.8 1656.4-1416 3075.5-1007.3 3635.5 139.1 59.4 314.9 65.3 520.7 22.4 464.6-97 1081.8-442.3 1771.5-979.8 161.9-126.3 327.8-263.1 496.6-409.6 705-612.2 1461.6-1396.3 2194.3-2299.1 351.8-433.4 675.6-866.4 967.4-1289.9 186-269.8 358.9-535.5 517.9-795.1v-.1c310.6-506.9 567.7-989.8 763.6-1430.4v-.1c435.9-979.9 568.8-1751.2 313.7-2115.1"
    ></path>
    <path
      fill="#ffe755"
      d="M33148.7 13674.1c-1031.2-837-3833 906.5-6257.9 3894.2-2424.9 2987.7-3554.8 6088.2-2523.6 6925.2 16.6 13.4 33.6 26.2 51.1 38.3-946.6-894.5 185.7-3943.4 2571.6-6883.1 2386-2939.6 5136.8-4674.8 6206.8-3932.5-15.4-14.6-31.4-28.7-48-42.1"
    ></path>
    <path
      fill="#ffe755"
      d="M32125.6 17772.6c-210.3 387.7-456.2 793.4-734 1208.2l-99.8 750.2c258.1-355.9 496.7-710.2 714.2-1058.8l119.6-899.6"
    ></path>
    <path
      fill="#ffe755"
      d="M32687.6 13548.6c-175.1-12.8-369.8 6.9-580.9 56.6l-113.2 850.1c222.8-45.7 415.6-40.9 570.9 19.4l123.2-926.1"
    ></path>
    <path
      fill="#ffc515"
      d="M28027.2 20994.5l-64.9 79.6-300.6-9.6c-29.7-.9-58.1-2.8-85.1-5.4l184.2-1385.2c64.7-84.7 134.7-173.5 210.2-266.2l10.3-12.7-173.4-74.7 97.1-730.3 184.9-227.8 263.3 182.6-326 2449.7"
    ></path>
    <path
      fill="#c9840a"
      d="M29223.1 19104.3c70-107.3 114.4-192.7 132.6-256.2 14.7-51 14.3-93.8-1.4-128.5 33.5.2 63.6 12.1 90.1 35.7l250.4 223.4c44.5 39.7 55.2 97.1 33.7 171.9-18.3 63.5-62.6 149-132.6 256.2l-610-423.1c8.5-9.1 16.8-17.9 25.1-26.6l212.1 147.2"
    ></path>
    <path
      fill="#c9840a"
      d="M29735.8 20376.9c-48.3 36.4-88.4 49.9-120.7 40l-127.9-39.3c-38.8-11.9-50.1-45.5-32.7-101.2 15.2-48.4 52.4-114.9 111.5-199l329.9 142.1c-65.5 73.8-118.8 126.3-160.1 157.4"
    ></path>
    <path
      fill="#c9840a"
      d="M28719.1 20824.1c-29.4 91.5-24.2 156.5 13.5 195.9v.3l-352.9-286.4c-34-22.4-51.6-57.8-52.2-106.5l396-484.4-294.8-90.6c-85-26.1-122.6-76.3-109.6-150.5 3.3-19 10.1-40.7 20.2-65l11.5 3.5-9 11 10-10.1 248.1 201.3c56.1-89.2 120.9-188.3 194.7-297.4l447.8 192.8c-300.1 435.4-472.9 729.1-523.3 886.1"
    ></path>
    <path
      fill="#c9840a"
      d="M30309 19552.5c27 23.7 30.3 59.6 10.8 107.7-16.6 40.9-52.7 98.9-108.1 173.8l-325.8-225.9c294.9-429.8 484.2-743.2 562.8-935 21.9-53.4 38.5-104.5 49.9-153.4l303 246-581.4 708.8 88.8 78"
    ></path>
    <path
      fill="#c9840a"
      d="M27981.3 19395l-10.3 12.7c-494.7 607.9-756.8 1042.7-785.9 1293.1-11.7 100.5 13.1 179.5 71.2 238l-.3 1.9-356.9-289.7.1-.1c-69.3-59.7-99.6-143.5-86.9-252.6 27.7-237.6 264.9-640.9 711.3-1200.5l457.7 197.2"
    ></path>
    <path
      fill="#c9840a"
      d="M30160.9 17690.6c-124.1-100.4-286.1-111.1-485.6-20.3-282.6 128.3-659.5 469.4-1116.9 1016.8l-468.5-324.9-62.6 77-524.4 646.1-2.2 2.9-60.1 73.9-372.7-302.6 62.3-76.7 524.4-646.1 25.5-31.5 37-45.6 468.5 325c457.4-547.5 834.3-888.5 1116.9-1016.9 194.6-88.5 353.5-80.4 476.3 13.2l.2-.3 382 310.1-.1-.1"
    ></path>
    <path
      fill="#ffe755"
      d="M30883.7 19700.5c-167.6 226-343.8 453.1-528 680.1-865.3 1066-1771.6 1960.3-2592.2 2597.2l-67.3 505.6c946.4-710.1 1967.3-1699.3 2929-2884.1 56.2-69.4 111.8-138.7 166.6-208.1l91.9-690.7"
    ></path>
    <path
      fill="#ffe755"
      d="M31676.7 13739.3c-849.9 323.8-1891.4 1038.5-2955.5 2038.9l-146.7 1102.8c1093.2-1138.5 2171.1-1957.1 2988.9-2290.6l113.3-851.1"
    ></path>
    <path
      fill="#ffe755"
      d="M29254.6 18748.4c-67 36.2-156.6 114.7-268.6 235.3l609.8 423.1c70.1-107.2 114.4-192.7 132.7-256.2 21.5-74.8 10.7-132.2-33.7-171.9l-250.3-223.3c-50.6-45.2-114.1-48-189.9-7zm311.4 1329c-59.1 84.1-96.3 150.5-111.5 199-17.4 55.7-6.2 89.3 32.7 101.2l127.8 39.3c32.4 9.9 72.6-3.5 120.8-40 41.3-31.1 94.6-83.6 160.1-157.4zm720.5-2232.9l174.4 307.5c79.7 140.7 72.8 313.6-12.2 521.1-78.6 191.8-267.9 505.2-562.7 934.9l325.7 226c55.4-74.9 91.5-132.9 108-173.8 19.6-48.1 16.3-84-10.6-107.7l-88.9-78.1 581.4-708.7 53.9 94.5c64.6 113.5 55.8 242-20 389.9-71.1 138.5-233.5 363.9-487.9 678.2l90.6 62.8-27 32.8-224.8 273.4-28.6 34.9-105.3-45.3c-244.8 289.2-438.3 490.7-583.1 606.4-155.7 124.5-301.3 185.4-441.7 179.4l-167.2-7.2c-140.9-6.1-191.7-85-141.4-241.5 50.4-156.9 223.1-450.6 523.3-886l-766.2-330c-93.3 130.1-145.6 228.2-157.2 293.9-12.9 74.2 24.7 124.4 109.7 150.4l294.8 90.6-696.3 851.6 326-2449.7 205.2 142.3c457.4-547.5 834.3-888.5 1116.8-1016.9 275.9-125.3 480.1-57.1 611.3 174.3"
    ></path>
    <path
      fill="#ffe755"
      d="M27273.9 23334.1c-696.8 471.9-1304.8 724.9-1734 697.9l-82.7 622.4c502.8-108 1102.2-392.8 1750.8-824.8l65.9-495.5"
    ></path>
    <path
      fill="#ffe755"
      d="M28212.8 16276.1c-411.4 419.5-822.3 879.1-1222.9 1372.6-257.5 317.3-500.4 635.8-727.6 952.8l-205.8 1547.2c400-665.3 893-1369 1462.4-2070.6 178.3-219.6 358.2-431.9 538.8-636.1l155.1-1165.9"
    ></path>
    <path
      fill="#ffe755"
      d="M27760.8 19673.9c-359 470.2-551 814.6-575.7 1026.9-24.9 214 115.4 331.1 391.5 358.3l184.2-1385.2"
    ></path>
    <path
      fill="#ffe755"
      d="M27905 18590l-464.3 572.1 367.2 158.2z"
    ></path>
    <path
      fill="#fff"
      d="M10078.9 25848.4c0-675.8-394.02-1223.5-880.08-1223.5 486.06 0 880.08-547.8 880.08-1223.5 0 675.7 394 1223.5 880.1 1223.5-486.1 0-880.1 547.7-880.1 1223.5"
    ></path>
    <path
      fill="#fff"
      d="M9273.82 26395.1c0-376.3-219.45-681.4-490.16-681.4 270.71 0 490.16-305.1 490.16-681.4 0 376.3 219.46 681.4 490.17 681.4-270.71 0-490.17 305.1-490.17 681.4"
    ></path>
    <path
      fill="#fff"
      d="M25517 19933.5c0 632.4-368.8 1145.2-823.8 1145.2 455 0 823.8 512.7 823.8 1145.2 0-632.5 368.8-1145.2 823.8-1145.2-455 0-823.8-512.8-823.8-1145.2"
    ></path>
    <path
      fill="#fff"
      d="M24722.6 19386.7c0 341.3-199.1 618-444.6 618 245.5 0 444.6 276.7 444.6 618 0-341.3 199-618 444.5-618-245.5 0-444.5-276.7-444.5-618"
    ></path>
    <path
      fill="#fff"
      d="M13327.2 18003.8c0-632.4-368.9-1145.2-823.8-1145.2 454.9 0 823.8-512.7 823.8-1145.2 0 632.5 368.8 1145.2 823.7 1145.2-454.9 0-823.7 512.8-823.7 1145.2"
    ></path>
  </g>
</g>
</svg>