<svg xmlns="http://www.w3.org/2000/svg" viewBox="0 0 48 48"><defs>
    <style>.cls-1{fill:#201602;}</style></defs>
    <title>Asset 27ldpi</title>
    <g id="Layer_2" data-name="Layer 2">
        <g id="layer_1-2" data-name="layer 1">
            <path class="cls-1" d="M15,24C6.45,24,0,21,0,17s6.45-7,15-7,15,3,15,7S23.55,24,15,24Zm0-12C7.34,12,2,14.63,2,17s5.34,5,13,5,13-2.63,13-5S22.66,12,15,12Z"/><path class="cls-1" d="M15,30C6.45,30,0,27,0,23V17a1,1,0,0,1,2,0c0,2.37,5.34,5,13,5s13-2.63,13-5a1,1,0,0,1,2,0v6C30,27,23.55,30,15,30ZM2,20.6V23c0,2.37,5.34,5,13,5s13-2.63,13-5V20.6C25.45,22.67,20.69,24,15,24S4.55,22.67,2,20.6Z"/><path class="cls-1" d="M15,36C6.45,36,0,33,0,29V23a1,1,0,0,1,2,0c0,2.37,5.34,5,13,5s13-2.63,13-5a1,1,0,0,1,2,0v6C30,33,23.55,36,15,36ZM2,26.6V29c0,2.37,5.34,5,13,5s13-2.63,13-5V26.6C25.45,28.67,20.69,30,15,30S4.55,28.67,2,26.6Z"/><path class="cls-1" d="M15,42C6.45,42,0,39,0,35V29a1,1,0,0,1,2,0c0,2.37,5.34,5,13,5s13-2.63,13-5a1,1,0,0,1,2,0v6C30,39,23.55,42,15,42ZM2,32.6V35c0,2.37,5.34,5,13,5s13-2.63,13-5V32.6C25.45,34.67,20.69,36,15,36S4.55,34.67,2,32.6Z"/><path class="cls-1" d="M15,48C6.45,48,0,45,0,41V35a1,1,0,0,1,2,0c0,2.37,5.34,5,13,5s13-2.63,13-5a1,1,0,0,1,2,0v6C30,45,23.55,48,15,48ZM2,38.6V41c0,2.37,5.34,5,13,5s13-2.63,13-5V38.6C25.45,40.67,20.69,42,15,42S4.55,40.67,2,38.6Z"/><rect class="cls-1" x="20" y="16" width="2" height="2"/><rect class="cls-1" x="8" y="16" width="2" height="2"/><path class="cls-1" d="M16,20H14V16H13V14h2a1,1,0,0,1,1,1Z"/><rect class="cls-1" x="38" y="6" width="2" height="2"/><rect class="cls-1" x="26" y="6" width="2" height="2"/><path class="cls-1" d="M34,10H32V6H31V4h2a1,1,0,0,1,1,1Z"/><path class="cls-1" d="M33,14a32.94,32.94,0,0,1-4.13-.26l.26-2A30.58,30.58,0,0,0,33,12c7.66,0,13-2.63,13-5S40.66,2,33,2,20,4.63,20,7a2.17,2.17,0,0,0,.57,1.37L19,9.64A4.08,4.08,0,0,1,18,7c0-4,6.45-7,15-7S48,3,48,7,41.55,14,33,14Z"/><path class="cls-1" d="M33,26c-.7,0-1.39,0-2.06-.06l.12-2c.63,0,1.28.06,1.94.06,7.66,0,13-2.63,13-5V16.6C43.45,18.67,38.69,20,33,20c-.7,0-1.39,0-2.06-.06l.12-2c.63,0,1.28.06,1.94.06,7.66,0,13-2.63,13-5a1,1,0,0,1,2,0v6C48,23,41.55,26,33,26Z"/><path class="cls-1" d="M33,38c-.7,0-1.39,0-2.06-.06l.12-2c.63,0,1.28.06,1.94.06,7.66,0,13-2.63,13-5V28.6C43.45,30.67,38.69,32,33,32c-.7,0-1.39,0-2.06-.06l.12-2c.63,0,1.28.06,1.94.06,7.66,0,13-2.63,13-5a1,1,0,0,1,2,0v6C48,35,41.55,38,33,38Z"/><rect class="cls-1" x="46" y="19" width="2" height="6"/><rect class="cls-1" x="46" y="7" width="2" height="6"/></g></g></svg>