<svg xmlns="http://www.w3.org/2000/svg" viewBox="0 0 48 48">
<g id="Gambling_poker_Card" data-name="Gambling poker Card">
<path d="M18.81,13.42a1,1,0,0,0-1.62,0l-5,7a1,1,0,0,0,0,1.16l5,7a1,1,0,0,0,1.62,0l5-7a1,1,0,0,0,0-1.16ZM18,26.28,14.23,21,18,15.72,21.77,21Z"/><path d="M9.83,30.45a1,1,0,0,0-1.66,0l-2,3c-.49.73,0,1.07,2,4.1a1,1,0,0,0,1.66,0C12.67,33.29,12.68,34.72,9.83,30.45ZM9,35.2,8.2,34,9,32.8,9.8,34Z"/><path d="M27.83,4.45a1,1,0,0,0-1.66,0l-2,3c-.49.73,0,1.07,2,4.1a1,1,0,0,0,1.66,0C30.67,7.29,30.68,8.72,27.83,4.45ZM27,9.2,26.2,8,27,6.8,27.8,8Z"/><path d="M43,7.29,34,4.87V4a4,4,0,0,0-4-4H6A4,4,0,0,0,2,4V38a4,4,0,0,0,4,4h4.27c23.81,6.38,22.18,6,22.94,6a4,4,0,0,0,3.86-3l8.8-32.85A4,4,0,0,0,43,7.29ZM4,38V4A2,2,0,0,1,6,2H30a2,2,0,0,1,2,2V38a2,2,0,0,1-2,2H6A2,2,0,0,1,4,38ZM43.93,11.67c-9.52,35.57-8.7,33.47-9.73,34.06S33.75,46.22,18,42H30a4,4,0,0,0,4-4V6.94l8.52,2.29A2,2,0,0,1,43.93,11.67Z"/><path d="M39.79,11a1,1,0,0,0-1.61-.43c-2.48,2.18-3.29,2.55-3,3.45,1.22,3.62,1.16,3.88,1.84,4.06a1,1,0,0,0,.92-.22C41.8,14.51,41.43,15.89,39.79,11Zm-2,4.37L37.3,14l1.08-.95.46,1.36Z"/></g></svg>