<?xml version="1.0" encoding="iso-8859-1"?>
<!-- Generator: Adobe Illustrator 19.0.1, SVG Export Plug-In . SVG Version: 6.00 Build 0)  -->
<svg version="1.1" xmlns="http://www.w3.org/2000/svg" xmlns:xlink="http://www.w3.org/1999/xlink" x="0px" y="0px"
	 viewBox="0 0 128 128" style="enable-background:new 0 0 128 128;" xml:space="preserve">
<g id="_x34_">
	<path id="icon_3_" style="fill:#231F20;" d="M102.263,128H25.737c-3.207,0-5.815-2.609-5.815-5.815V5.815
		C19.921,2.609,22.53,0,25.737,0h76.526c3.207,0,5.815,2.609,5.815,5.815v116.369C108.079,125.391,105.47,128,102.263,128z
		 M25.737,3.877c-1.069,0-1.938,0.87-1.938,1.938v116.369c0,1.069,0.87,1.938,1.938,1.938h76.526c1.069,0,1.938-0.87,1.938-1.938
		V5.815c0-1.069-0.87-1.938-1.938-1.938H25.737z M78.272,55.798c-4.565-5.06-10.064-12.028-13.796-19.689
		C57.012,51.43,42.674,64,42.674,64s3.638,3.143,8.202,8.202s10.064,12.028,13.796,19.689C72.136,76.571,86.475,64,86.475,64
		S82.845,60.857,78.272,55.798z M41.977,15.043c-1.662-1.842-3.663-4.378-5.022-7.166c-2.717,5.576-7.936,10.152-7.936,10.152
		s1.324,1.144,2.986,2.986c1.661,1.842,3.663,4.378,5.022,7.166c2.717-5.576,7.936-10.152,7.936-10.152S43.642,16.885,41.977,15.043
		z M95.611,108.518c-1.661-1.842-3.663-4.378-5.022-7.166c-2.717,5.576-7.936,10.152-7.936,10.152s1.324,1.144,2.986,2.986
		c1.661,1.842,3.663,4.378,5.022,7.166c2.717-5.576,7.936-10.152,7.936-10.152S97.275,110.36,95.611,108.518z"/>
</g>
<g id="Layer_1">
</g>
</svg>
