<?xml version="1.0" encoding="UTF-8" standalone="no" ?>
<!DOCTYPE svg PUBLIC "-//W3C//DTD SVG 1.1//EN" "http://www.w3.org/Graphics/SVG/1.1/DTD/svg11.dtd">
<svg xmlns="http://www.w3.org/2000/svg" xmlns:xlink="http://www.w3.org/1999/xlink" version="1.1" width="88" height="88" viewBox="0.8108953285938938 4.682321100917434 88 88" xml:space="preserve">
<desc>Created with Fabric.js 5.3.0</desc>
<defs>
</defs>
<g transform="matrix(0.6599793981 0 0 0.6599794728 42.0024667884 73.0821448302)" id="vAKgKWWYF_nswfydnsOxX"  >
<path style="stroke: rgb(0,0,0); stroke-width: 1; stroke-dasharray: none; stroke-linecap: round; stroke-dashoffset: 0; stroke-linejoin: round; stroke-miterlimit: 10; fill: none; fill-rule: nonzero; opacity: 1;" vector-effect="non-scaling-stroke"  transform=" translate(-45.001, -84.5645)" d="M 50.001 90 C 46.488 90 43.132999999999996 89.682 40.001 89.127 L 40.001 79.12899999999999 C 43.132 79.684 46.488 79.99999999999999 50.001 79.99999999999999 L 50.001 90 z" stroke-linecap="round" />
</g>
<g transform="matrix(0.6599793981 0 0 0.6599794728 35.4023428177 71.813004304)" id="prTe5zpBLDKkSBKA1VNLG"  >
<path style="stroke: rgb(0,0,0); stroke-width: 1; stroke-dasharray: none; stroke-linecap: round; stroke-dashoffset: 0; stroke-linejoin: round; stroke-miterlimit: 10; fill: none; fill-rule: nonzero; opacity: 1;" vector-effect="non-scaling-stroke"  transform=" translate(-35.0005, -82.6415)" d="M 40.001 79.129 C 36.27 78.467 32.887 77.451 30 76.156 L 30 86.156 C 32.887 87.45100000000001 36.269999999999996 88.46700000000001 40.001 89.12700000000001 L 40.001 79.129 z" stroke-linecap="round" />
</g>
<g transform="matrix(0.6599793981 0 0 0.6599794728 35.4023428177 59.8818953947)" id="CdYsKCgXIahgbHJprwc8E"  >
<path style="stroke: rgb(0,0,0); stroke-width: 1; stroke-dasharray: none; stroke-linecap: round; stroke-dashoffset: 0; stroke-linejoin: round; stroke-miterlimit: 10; fill: none; fill-rule: nonzero; opacity: 1;" vector-effect="non-scaling-stroke"  transform=" translate(-35.0005, -64.5635)" d="M 40.001 69.998 C 36.486 69.998 33.132 69.68 30 69.125 L 30 59.129 C 33.132 59.684 36.487 60 40.001 60 L 40.001 69.998 z" stroke-linecap="round" />
</g>
<g transform="matrix(0.6599793981 0 0 0.6599794728 28.8018888573 58.6127548685)" id="LjqneczXPDYR_Jmqis6yl"  >
<path style="stroke: rgb(0,0,0); stroke-width: 1; stroke-dasharray: none; stroke-linecap: round; stroke-dashoffset: 0; stroke-linejoin: round; stroke-miterlimit: 10; fill: none; fill-rule: nonzero; opacity: 1;" vector-effect="non-scaling-stroke"  transform=" translate(-24.9995, -62.6405)" d="M 30 59.129 C 26.269 58.467 22.886 57.451 19.999000000000002 56.156 L 19.999000000000002 66.154 C 22.886000000000003 67.449 26.269000000000002 68.465 30 69.125 L 30 59.129 z" stroke-linecap="round" />
</g>
<g transform="matrix(0.6599793981 0 0 0.6599794728 22.2020948763 53.9499998932)" id="Ux2S3q0axqGstAf3KjVT2"  >
<path style="stroke: rgb(0,0,0); stroke-width: 1; stroke-dasharray: none; stroke-linecap: round; stroke-dashoffset: 0; stroke-linejoin: round; stroke-miterlimit: 10; fill: none; fill-rule: nonzero; opacity: 1;" vector-effect="non-scaling-stroke"  transform=" translate(-14.9995, -55.5755)" d="M 19.999 56.156 C 13.875 53.41 10 49.434 10 44.997 L 10 54.998 C 10 59.436 13.875 63.408 19.999000000000002 66.154 L 19.999000000000002 56.156 z" stroke-linecap="round" />
</g>
<g transform="matrix(0.6599793981 0 0 0.6599794728 28.8018888573 67.5320474537)" id="hIBvrZ0I8he7ZUavYZlCF"  >
<path style="stroke: rgb(0,0,0); stroke-width: 1; stroke-dasharray: none; stroke-linecap: round; stroke-dashoffset: 0; stroke-linejoin: round; stroke-miterlimit: 10; fill: none; fill-rule: nonzero; opacity: 1;" vector-effect="non-scaling-stroke"  transform=" translate(-24.9995, -76.155)" d="M 20.134 66.215 C 20.089 66.19500000000001 20.044 66.176 19.999 66.154 L 19.999 74.99799999999999 C 19.999 79.43599999999999 23.875 83.40799999999999 30 86.15599999999999 L 30 76.15599999999999 C 24.444 73.664 20.771 70.158 20.134 66.215 z" stroke-linecap="round" />
</g>
<g transform="matrix(0.6599793981 0 0 0.6599794728 35.4023428177 45.4158053304)" id="XHA5EZfNZDZLDeA2_IuFS"  >
<path style="stroke: rgb(0,0,0); stroke-width: 1; stroke-dasharray: none; stroke-linecap: round; stroke-dashoffset: 0; stroke-linejoin: round; stroke-miterlimit: 10; fill: none; fill-rule: nonzero; opacity: 1;" vector-effect="non-scaling-stroke"  transform=" translate(-35.0005, -42.6445)" d="M 40.001 39.13 C 36.27 38.468 32.887 37.453 30 36.159 L 30 46.158 C 32.887 47.454 36.269999999999996 48.469 40.001 49.13 L 40.001 39.13 z" stroke-linecap="round" />
</g>
<g transform="matrix(0.6599793981 0 0 0.6599794728 28.8018888573 40.7527203653)" id="iMBsncOzSfTecy6kFh81f"  >
<path style="stroke: rgb(0,0,0); stroke-width: 1; stroke-dasharray: none; stroke-linecap: round; stroke-dashoffset: 0; stroke-linejoin: round; stroke-miterlimit: 10; fill: none; fill-rule: nonzero; opacity: 1;" vector-effect="non-scaling-stroke"  transform=" translate(-24.9995, -35.579)" d="M 30 36.159 C 23.875 33.412 19.999 29.438 19.999 25 L 19.999 35 C 19.999 39.438 23.875 43.411 30 46.158 L 30 36.159 z" stroke-linecap="round" />
</g>
<g transform="matrix(0.2472388766 0.6119377624 -0.6119376931 0.2472389046 59.9096093255 55.6164729432)" id="el_SLW8Pj1c8ZmqkgYfQv"  >
<path style="stroke: rgb(0,0,0); stroke-width: 1; stroke-dasharray: none; stroke-linecap: butt; stroke-dashoffset: 0; stroke-linejoin: miter; stroke-miterlimit: 4; fill: none; fill-rule: nonzero; opacity: 1;" vector-effect="non-scaling-stroke"  transform=" translate(-29.777, -14.89)" d="M 0 14.89 C 0 6.66648 13.33162 0 29.777 0 C 46.22238 0 59.554 6.66648 59.554 14.89 C 59.554 23.11352 46.22238 29.78 29.777 29.78 C 13.331620000000001 29.78 0 23.11352 0 14.89 z" stroke-linecap="round" />
</g>
<g transform="matrix(0.6599793981 0 0 0.6599794728 49.3239482412 63.5474213867)" id="oqif5eYlRr9_Z7g8cuYoe"  >
<path style="stroke: rgb(0,0,0); stroke-width: 1; stroke-dasharray: none; stroke-linecap: round; stroke-dashoffset: 0; stroke-linejoin: round; stroke-miterlimit: 10; fill: none; fill-rule: nonzero; opacity: 1;" vector-effect="non-scaling-stroke"  transform=" translate(-56.0945, -70.1175)" d="M 49.212 67.596 C 50.547000000000004 70.81700000000001 52.109 73.774 53.80800000000001 76.436 L 62.977000000000004 72.637 C 61.28 69.977 59.712 67.02 58.381 63.799 L 49.212 67.596 z" stroke-linecap="round" />
</g>
<g transform="matrix(0.6599793981 0 0 0.6599794728 52.9937636844 69.1173181473)" id="EVMNtHZsBwtrF8MRlPpBw"  >
<path style="stroke: rgb(0,0,0); stroke-width: 1; stroke-dasharray: none; stroke-linecap: round; stroke-dashoffset: 0; stroke-linejoin: round; stroke-miterlimit: 10; fill: none; fill-rule: nonzero; opacity: 1;" vector-effect="non-scaling-stroke"  transform=" translate(-61.655, -78.557)" d="M 60.329 84.477 C 58.047 82.321 55.831 79.604 53.808 76.436 L 62.977000000000004 72.637 C 65 75.805 67.217 78.522 69.50200000000001 80.678 L 60.329 84.477 z" stroke-linecap="round" />
</g>
<g transform="matrix(0.6599793981 0 0 0.6599794728 46.817676477 57.4954096211)" id="tAtGa-fwIK36m3XQypShX"  >
<path style="stroke: rgb(0,0,0); stroke-width: 1; stroke-dasharray: none; stroke-linecap: round; stroke-dashoffset: 0; stroke-linejoin: round; stroke-miterlimit: 10; fill: none; fill-rule: nonzero; opacity: 1;" vector-effect="non-scaling-stroke"  transform=" translate(-52.297, -60.9475)" d="M 49.212 67.596 C 47.877 64.375 46.894000000000005 61.178000000000004 46.213 58.096000000000004 L 55.382000000000005 54.29900000000001 C 56.06100000000001 57.38100000000001 57.048 60.57600000000001 58.38100000000001 63.79900000000001 L 49.212 67.596 z" stroke-linecap="round" />
</g>
<g transform="matrix(0.6599793981 0 0 0.6599794728 59.7753819896 73.5918864403)" id="HezMEzdGZvn3pylu_jYIC"  >
<path style="stroke: rgb(0,0,0); stroke-width: 1; stroke-dasharray: none; stroke-linecap: round; stroke-dashoffset: 0; stroke-linejoin: round; stroke-miterlimit: 10; fill: none; fill-rule: nonzero; opacity: 1;" vector-effect="non-scaling-stroke"  transform=" translate(-71.9305, -85.3368597947)" d="M 60.329 84.477 C 65.175 89.051 70.293 91.09400000000001 74.365 89.411 L 83.532 85.61 C 79.464 87.298 74.345 85.255 69.502 80.678 L 60.329 84.477 z" stroke-linecap="round" />
</g>
<g transform="matrix(0.6599793981 0 0 0.6599794728 45.4691265836 50.9612828506)" id="qvxxb-5Iat2PYPoYyelho"  >
<path style="stroke: rgb(0,0,0); stroke-width: 1; stroke-dasharray: none; stroke-linecap: round; stroke-dashoffset: 0; stroke-linejoin: round; stroke-miterlimit: 10; fill: none; fill-rule: nonzero; opacity: 1;" vector-effect="non-scaling-stroke"  transform=" translate(-50.2536788036, -51.047)" d="M 55.382 54.299 C 54.57 50.625 54.217999999999996 47.138 54.309 43.998 L 45.138999999999996 47.797 C 45.04899999999999 50.936 45.403999999999996 54.422 46.212999999999994 58.096 L 55.382 54.299 z" stroke-linecap="round" />
</g>
<g transform="matrix(0.6599793981 0 0 0.6599794728 47.2420432299 43.13788618)" id="rvdhaQxiz5QoJ1FCKzS7F"  >
<path style="stroke: rgb(0,0,0); stroke-width: 1; stroke-dasharray: none; stroke-linecap: round; stroke-dashoffset: 0; stroke-linejoin: round; stroke-miterlimit: 10; fill: none; fill-rule: nonzero; opacity: 1;" vector-effect="non-scaling-stroke"  transform=" translate(-52.94, -39.193)" d="M 54.309 43.998 C 54.5 37.339 56.672 32.275 60.741 30.589 L 51.571 34.388999999999996 C 47.506 36.074 45.332 41.135999999999996 45.138999999999996 47.797 L 54.309 43.998 z" stroke-linecap="round" />
</g>
<g transform="matrix(0.6599793981 0 0 0.6599794728 48.6019307797 73.2613292571)" id="wWHf90IDYWL575pD2oxc7"  >
<path style="stroke: rgb(0,0,0); stroke-width: 1; stroke-dasharray: none; stroke-linecap: round; stroke-dashoffset: 0; stroke-linejoin: round; stroke-miterlimit: 10; fill: none; fill-rule: nonzero; opacity: 1;" vector-effect="non-scaling-stroke"  transform=" translate(-55.0005, -84.836)" d="M 56.05 79.672 C 54.096 79.877 52.08 80 50.001 80 L 50.001 90 C 53.513 90 56.867999999999995 89.682 60 89.127 L 60 84.166 C 58.649 82.855 57.323 81.352 56.05 79.672 z" stroke-linecap="round" />
</g>
<g transform="matrix(0.6599793981 0 0 0.6599794728 53.5184473059 74.4562220926)" id="k2HLeOczX-SpwB-65v4iH"  >
<path style="stroke: rgb(0,0,0); stroke-width: 1; stroke-dasharray: none; stroke-linecap: round; stroke-dashoffset: 0; stroke-linejoin: round; stroke-miterlimit: 10; fill: none; fill-rule: nonzero; opacity: 1;" vector-effect="non-scaling-stroke"  transform=" translate(-62.45, -86.6465)" d="M 60 84.166 L 60 89.127 C 61.716 88.82199999999999 63.347 88.438 64.9 87.988 C 63.266 87.029 61.617 85.736 60 84.166 z" stroke-linecap="round" />
</g>
<g transform="matrix(0.6599793981 0 0 0.6599794728 37.4439890857 65.5191100616)" id="ryzc_zIIrklToRC1WZMgO"  >
<path style="stroke: rgb(0,0,0); stroke-width: 1; stroke-dasharray: none; stroke-linecap: round; stroke-dashoffset: 0; stroke-linejoin: round; stroke-miterlimit: 10; fill: none; fill-rule: nonzero; opacity: 1;" vector-effect="non-scaling-stroke"  transform=" translate(-38.094, -73.105)" d="M 49.901 69.145 C 46.797000000000004 69.688 43.474000000000004 69.999 40.001000000000005 69.999 C 32.365 69.999 25.418000000000006 68.56 20.123000000000005 66.21 C 21.36 73.926 34.251 80 50.001 80 C 52.077999999999996 80 54.105 79.893 56.065 79.693 C 53.781 76.684 51.679 73.117 49.901 69.145 z" stroke-linecap="round" />
</g>
<g transform="matrix(0.6599793981 0 0 0.6599794728 41.9688078391 60.0419404169)" id="6WYMO5avg6-XhtVJQIIId"  >
<path style="stroke: rgb(0,0,0); stroke-width: 1; stroke-dasharray: none; stroke-linecap: round; stroke-dashoffset: 0; stroke-linejoin: round; stroke-miterlimit: 10; fill: none; fill-rule: nonzero; opacity: 1;" vector-effect="non-scaling-stroke"  transform=" translate(-44.95, -64.806)" d="M 49.214 67.596 C 48.098 64.903 47.226 62.225 46.567 59.614000000000004 C 44.452 59.857 42.264 60 40.001 60 L 40.001 69.998 C 43.474999999999994 69.998 46.794 69.685 49.899 69.141 C 49.67 68.629 49.433 68.123 49.214 67.596 z" stroke-linecap="round" />
</g>
<g transform="matrix(0.6599793981 0 0 0.6599794728 30.9699211801 48.2375475664)" id="DnVYNKkAziLLIr0FqfkKs"  >
<path style="stroke: rgb(0,0,0); stroke-width: 1; stroke-dasharray: none; stroke-linecap: round; stroke-dashoffset: 0; stroke-linejoin: round; stroke-miterlimit: 10; fill: none; fill-rule: nonzero; opacity: 1;" vector-effect="non-scaling-stroke"  transform=" translate(-28.2845, -46.92)" d="M 45.142 49.786 C 30.889 48.623 19.999 42.453 19.999 35 L 19.999 33.84 C 13.875 36.587 10 40.561 10 44.997 C 10 53.281 23.432 60 40.001 60 C 42.260999999999996 60 44.452 59.861 46.568999999999996 59.625 C 45.696 56.162 45.228 52.842 45.142 49.786 z" stroke-linecap="round" />
</g>
<g transform="matrix(0.6599793981 0 0 0.6599794728 45.3023637789 33.7374685592)" id="3ZWg7q1TZUb2E0p97CQ_v"  >
<path style="stroke: rgb(0,0,0); stroke-width: 1; stroke-dasharray: none; stroke-linecap: round; stroke-dashoffset: 0; stroke-linejoin: round; stroke-miterlimit: 10; fill: none; fill-rule: nonzero; opacity: 1;" vector-effect="non-scaling-stroke"  transform=" translate(-50.001, -24.9495)" d="M 51.573 34.386 L 60.744 30.588 C 64.444 29.057000000000002 69.014 30.607 73.457 34.338 C 77.54499999999999 31.775000000000002 80.003 28.533 80.003 25 C 80.003 16.717 66.569 10 50.001000000000005 10 C 33.431000000000004 10 19.999000000000006 16.717 19.999000000000006 25 C 19.999000000000006 32.712 31.644000000000005 39.059 46.61900000000001 39.899 C 47.703 37.256 49.35 35.308 51.573 34.386 z" stroke-linecap="round" />
</g>
<g transform="matrix(0.6599793981 0 0 0.6599794728 40.8884215644 46.6139980633)" id="k3IYwa7LMCAvAqkg_mxgi"  >
<path style="stroke: rgb(0,0,0); stroke-width: 1; stroke-dasharray: none; stroke-linecap: round; stroke-dashoffset: 0; stroke-linejoin: round; stroke-miterlimit: 10; fill: none; fill-rule: nonzero; opacity: 1;" vector-effect="non-scaling-stroke"  transform=" translate(-43.313, -44.46)" d="M 46.625 39.891 C 44.332 39.757 42.111 39.504 40.001 39.129999999999995 L 40.001 49.129 C 41.655 49.422 43.373999999999995 49.643 45.141 49.79 C 45.031 45.953 45.531 42.56 46.625 39.891 z" stroke-linecap="round" />
</g>
<g transform="matrix(0.6599793981 0 0 0.6599794728 62.9347033683 38.6001973148)" id="4Etrgt6QAHn7syj7K-n2L"  >
<path style="stroke: rgb(0,0,0); stroke-width: 1; stroke-dasharray: none; stroke-linecap: round; stroke-dashoffset: 0; stroke-linejoin: round; stroke-miterlimit: 10; fill: none; fill-rule: nonzero; opacity: 1;" vector-effect="non-scaling-stroke"  transform=" translate(-76.7175, -32.3175)" d="M 78.52 39.635 C 79.47399999999999 38.175999999999995 80.003 36.617999999999995 80.003 34.998999999999995 L 80.003 25 C 80.003 28.531 77.521 31.758 73.432 34.317 C 75.168 35.773 76.882 37.559 78.52 39.635 z" stroke-linecap="round" />
</g>
<g transform="matrix(1.8125 0 0 1.8125 44.8108953286 48.6823211009)" id="5SlkG7UxwCGlhDAJU_wl9"  >
<path style="stroke: none; stroke-width: 1; stroke-dasharray: none; stroke-linecap: butt; stroke-dashoffset: 0; stroke-linejoin: miter; stroke-miterlimit: 4; fill: rgb(0,0,0); fill-rule: nonzero; opacity: 1;" vector-effect="non-scaling-stroke"  transform=" translate(-25, -25)" d="M 25 1 C 18.068 1 11.53 3.993 7 9.126 L 7 3 L 5 3 L 5 13 L 15 13 L 15 11 L 8.042 11 C 12.205 5.963 18.405 3 25 3 C 37.131 3 47 12.869 47 25 C 47 37.131 37.131 47 25 47 C 12.869 47 3 37.131 3 25 C 3 22.367 3.46 19.792 4.367 17.348 L 2.492 16.651999999999997 C 1.502 19.32 1 22.128 1 25 C 1 38.233000000000004 11.767 49 25 49 C 38.233000000000004 49 49 38.233000000000004 49 25 C 49 11.766999999999996 38.233 1 25 1 z" stroke-linecap="round" />
</g>
</svg>